<mxfile host="app.diagrams.net" modified="2024-02-05T13:51:19.369Z" agent="Mozilla/5.0 (Macintosh; Intel Mac OS X 10_15_7) AppleWebKit/537.36 (KHTML, like Gecko) Chrome/120.0.0.0 Safari/537.36" etag="HJROuBXwxdY2PnbuAqlB" version="22.1.18" type="github">
  <diagram id="9fnjXT7nlAm7Ix4f8WDv" name="Page-1">
    <mxGraphModel dx="2009" dy="1649" grid="0" gridSize="10" guides="1" tooltips="1" connect="1" arrows="1" fold="1" page="1" pageScale="1" pageWidth="1000" pageHeight="400" background="#EFF1F3" math="0" shadow="0">
      <root>
        <mxCell id="0" />
        <mxCell id="1" parent="0" />
        <mxCell id="DY7HlPOlNImtq-ZD-zq9-1" value="" style="shape=image;verticalLabelPosition=bottom;labelBackgroundColor=default;verticalAlign=top;aspect=fixed;imageAspect=0;image=data:image/png,iVBORw0KGgoAAAANSUhEUgAAAgAAAAIACAYAAAD0eNT6AAAACXBIWXMAAA7DAAAOwwHHb6hkAAAAGXRFWHRTb2Z0d2FyZQB3d3cuaW5rc2NhcGUub3Jnm+48GgAAIABJREFUeJzs3Xl8VNXdP/DP985MEmRJAoQ1ZCYkIBQXFFQ2aZTMRFRwjda1bqCCQCZa9fc8ffqkfdqnbiQBXOpWfay0tWit4EYSEEEgLriDIpBkhh0EEtYkM3O/vz8SLCJLcu65c+/MnPfr1X8s55wvJDPf7z3n3HMARVEURVEURVEURVEURVEURVEURVEURVEURVEURVEURVEURVEURVEURVEURVEURVEURVEURVEsQ1YHoCiKeXJ89/WI6JGRrPE5YMohUI4O7kVAJwCdW//YPgb2A9hKQA0Y63Wij5OdoZXr35mz08LwFUUxkSoAFCXO9PP6hxP4SgJdAWCQwe7WAPgXk/bPYMXMVRLCUxTFJlQBoChx4NSJ93c+1Bi6joCpYJxhyiCMtUx46lCo6fmdS57cb8oYiqJEjSoAFCWG9Zkw+RRnY6dpBH4AQHqUht1NRHOSU5wz185/ZF+UxlQURTJVAChKjHL7im4A06MAelsTAW8h4L66yvK/WTO+oihGqAJAUWJMjq+4X5j5aQDjrY6l1VthZ/iuze/M2WR1IIqitJ0qABQlhrgLii+Azn8D0NPqWI7yPem4qW5R2btWB6IoSts4rA5AUZS28fiK/x+YX8S/X9+zk1NAuD41Z1RTQ83K5VYHoyjKyakZAEWxP3J7/Y8CuNfqQNro8cDo1BkoKdGtDkRRlONTMwCKYm/k8RW9CNDdVgfSDuembWzKbKipXmB1IIqiHJ8qABTFxtzeopkA3WV1HALOTssd1bVhw8p3rA5EUZRjUwWAotiU21tcDKDE6jgMOC81Z2R9Q031h1YHoijKT6k9AIpiQ1neotEEeg+Ay+pYDAprpI+rrZi11OpAFEX5MVUAKIrN9Mm7t7vLpX8N+73qJ4i3RDQ6fdPCst1WR6Ioyr85rQ5AUZQfczm5HJKTf9du3TBg0CB4cvojo0cPpKanIzklBQDQ1NiIhj17sHP7dtTV1GDdt2uxe9cuiaNTHydzGYBfSuxUURSD1AyAotiI21c0Hkxvy+iLiHDamWdgxPlj4c72gKhtH3dmRqC2DtXLluLrL74EM8sIB8T6RXVVsxZK6UxRFMNUAaAodlFY6HDXZ34BYIjRrjw5OZh41ZXo2dvYNQHbt27Fgtf+idoNG4yGBAK+qhudOlSdD6Ao9qDeAlAUm3Bn+m4F6A4jfWgOB8ZfNhGXFV6NTp2NHxjYqXNnnHXOOUjp0AE169YbnQ3omb6pqbZ+Q/UXhgNTFMUwVQAoih2UlGhpwaZXAHQV7SI5JQW/nDwJZ559dpun+9uCiJDl8cDTvz/WfPUVwuGweGeMwQ011U9IC05RFGGqAFAUG8hKOutSAqaKtk9OTsZtU+6GOztbZlg/kt61K3IHnYovP/sMEdEigNA9LXfEhw0bqtfLjU5RlPbSrA5AURSAgCnCbYlw3S2/RGZWlsyQjqlvZiauv+UWaGTgq4NJuNBRFEUeVQAoisX65N3bHYx80fYX+LwYMGiQzJBOKPfUgbhwfIGRLnyZBX7hpQ5FUeRQBYCiWMyZpF8JwTM5evbqhQu8XskRndzP88ehd9++os1dDubLZcajKEr7qQJAUax3sXDDKy6H5oj+Vh6NNFxy+WXiHTBdKi8aRVFEqAJAUaxFxBgt0jAzKwu5AwfKjqfNsnNz4enfX7T5GKhzSBTFUqoAUBSrFBY6PPlFPwfQXaT5eaNGSQ5IIIbRwjFkeLz+sSgsVG8iKYpF1F0AimKyUyfe3/nggaZBpDlOJfBgAAMBHoR6GsCEZJE+HU4nTht6puRI22/w6acjKSkJzc3N7W7LwBJ3fWYTvEXrAPoWxGuZtW8Z/G1jqOnbnUue3G9CyIqitFIFgKJIlHXJg+loCg0B6cMIGAZgWOOh0CBN0zTgyFP0jM1+Z7ndSEoWqh2kcrlccPfvj3XffivaRTJApwE4DUwgMAjAKa5kuL3+rWCsIo1W6eBV0LE6WFVWIy96RUlsqgBQFEGnTry/86FD4XOJeCQYIwAMR3NTz2isbPfL9pg/SBu5sz1GCoAT6Q3Cpcx8KQEAAW6ffxsYq0CoZqaVHTo4P1o7/5F9ZgyuKPFOFQCK0kaZBf5cp05jwDwShJGNh0I/I8ABOZfltUtGRo/oD3oc3aMZC6MXgEvAuITAaDwUirh9/tXMvFIjWhkJOz/YuPhR4zcXKUoCUAWAohyHJ+9XvXRX5HyNOZ8JPujwMNgWe9e7pHaxOoQfdE5NtXJ4BxhnEOgMZtypOcJwe/1bCfhAJ1RpGlfUvVteZ2WAimJXqgBQlFb98x9IDWtNXgL5wLiAEc4lAGyDhH80V1KS1SH8ICXF+r0IR+nNQCExCjlCyPL612mM9xhU4XKFKte/M2ev1QEqih2oAkBJaFn5/v4gTCDCpRFuHktM9smsJ6DrutUh/CASiVgdwgkRMIAJAwCeHAo7I26vv5pBC0BUFayY+SlgxSKOolhPFQBKYskrcWYl7buAELkCTBcDcAOIuRTQ2NhodQg/aDxkn1jawAFgNIFHgxlur78OjLcZeD0YTl2CJSUG7jpWlNiiCgAl7uWOn5bcHHKerxEmMBquBaOnLRbyDdize7fVIfxg965dVodghAeEKQRMcbsa9sDrf5MJ85Ic4Yr178xpsjo4RTGTKgCUuJQ7flpyOOIYz6xdEwrzJUToEmMP+Se0fctWq0P4wY6t9onFoHQANxHjplDY2eDOL36TwPM6pqe+s3peSftPOlIUm1MFgBJXsnz3DtNYvzkUxnUAMmJubr+NajfY5023mvXrrQ7BDKkgvoGBG/bXN9S7vf4FzHgpWFW2CPH6S6UkHFUAKDHPnV80GBpuANMNYN2TCN/Ou3buxM4dO5DRw9rzAPbs3o3t27ZZGkMUpAG4iQg3ub3+WjDmkqbNrauYacrpR4oSLbG9EKokrJ6++zp20CPXMGEygBFWx2OFn+ePg++SSyyNYfHCCix6911LY7DQCgI925yy/x9bFjxz0OpgFKW9VAGgxBR3fvFZ0PRJYLoegKUn0EgSRsuUsqu9DU/p2BH3/devkWzRnQChUAiP/c/vsX+f0Em8IbR8/8TDLGQDGHOJ+Nm6yvLPrQ5GUdpKFQCK7fWZMPkU56FONxDxZADDrY5HUDMI3xLjW515DUhbwxT+pktq1+/272koA2GKSKf5F4/HBV6v7FjbZOnixVi44E3B1vREp7QuxXsbdg8kdg4G6z/TiH4GYDADpwKIifMYjkagjxn6M5H9NHfTyrJDVsejKCeiCgDFtnJ8xf0izFMZuANAN6vjaYeDIHwBHZ9Bw6fQ6dPue/Z/vWrVM6Fj/WFP/owCJk1oHt3lSsKMB+9HeteuxiJup4b6esx66GE0NYm9Kcek+YIVMyuP9f8NKSxJ2r+3/jQwnQUdZ4NwNoAzAJxiIORo28WEZ12gJzdUlG60OhhFORZVACi2k5V/7xiN9OkMXIFYmCJmrGXilWBtBWvhlRtTt36DefPafDzekMKSpP31DZsBdBcZPsvjwaR7pkJzOESat1tE1/HnJ55EXY3wzbw7uu8+kHm8guiYCgsd/Rp6DyY4RoExioCRAAaKBhBFYQL+qYNnByvLl1sdjKIcSRUAij0UFjo89X2vYab7Wp/47CoC4BMClkRAK5KdoZXr35mz02in7nx/KQh+0fbnjhyJy64pNBpGm8x/9TV8uNxALiN6LFBR+iujceSOn5bRFHaNdACjdXAeAcPQctKfXa0iwmN1qZvmtadAVBSzqAJAsZQnryQFroZbGPgVgP5Wx3Ns/DWBFkdAi1zser+m6uEG2SO484sGg+hrAJpoH2MvvBC+Sy8BkXkf64q33sb7VVVGutA1h/6z2ndnrZUV02GevKI0OOnnIFzIwDgAQ2SPIQXxBmLtUacz9KI6bVCxkioAFEvkjp/WpTnsuIuI/K13vNtJPQEVOtNbDo4srF00a3s0BnV7/a8BuNJIH8POPQ8TC6+C0yl35SQcDmPBq6/hkw8/NNrVq4HKsqhMVXjyftULSeECMC5hwAf7vTWyFYQylyP8tLqhULGCKgCUqMq65MF0am72AzwNLQes2MVqAr0F8Nt1odTlVlwK484vPgvEq2Dwc9knMxNX33A9evaSU1ft2LYdr86di82bNhntStc0Ort2YekXMuJql7wSp8dZP4ZBF4NwKYDBUY/h+OoJmI0Ql9UtKa+3OhglcagCQImKlid+ZxEBftgn8X/CoFc54nh14+JHbXG2bpa36AUC3WK0H83hwMjzx2DshReiU+fOQn3s37cPSxctxsoPPoAu58rfFwKVZbfJ6MioTO/0AU52XMWEq9Gyd8AO6gEuTemQVL52/iNChysoSnuoAkAxVeuJfdOYcB+sf5WPQagG4zVy8Gt175bXWRzPT3jyftWLXeEAJL0H73K5cPrZZ+GsYcPg6d//pG8K6JEIajfU4PNVn+Crzz5HKNT2jfon0Uwhp7tuyaO2OzfY7bsvG3r4KhBdBeA8WP+9uItBjzaR9vj2iscOWByLEses/kVX4lTLbXzOKcx4EIC1B9YDawDM1SLa3NrFMwMWx3IilOUrKiWmIjM6T05ORj+3Gz169kRqejqSUlpOEGxubELDnj3YsWM7NtYFhN/tPxkmLg9WlBfDxpfpeC4q8nBYuwHEN8D6ZYIdxPRHpyv0lNosqJhBFQCKbJTlLb6aSP8jmHIsjGMXMV7Tof0lWDXzAwvjaDOP1/8QAw9YHYeZYqEIOCyrwD9E03ETE35p5UZVBjaC8PvgqNTnUFKiWxWHEn9UAaBIk+2bMZbZ8RiDz7EohDAT3iKdnw2kb343ht61NvXJ325iqQgAAOSVOLOS9l6ksT6JQRfDosOpCPQxUeS+2opZS60YX4k/qgBQDOs/rnigrvHvGYjOSTQ/tZmAlymiPWXzKf5jSoQn/6PFXBHQyl1Q1Jt17WYCT4ZV51YQqiI6ijdVlX1lyfhK3FAFgCIsd/y0LqGw478BmgaB2+wM0pmwQIvgT3Xnp1bE6NRoQj35Hy1WiwAAQEmJ5lnW4NMduIsYE2DgACdBITAedyDpt2YcTKUkBlUAKCIoy1t8NcAzCegX5bH3EuPv0LSyuoqZ30Z5bJnI4/WXMTDD6kCsFNNFQCu3775s4sidDEwCEN1bmYBdDPxPcHTqnBgtghULqQJAaRePt2gogx4HMDrKQ69n0HNaSH86Dg5LUcn/CAx+OlhZfjdiuAgAgIy8KZ06JCVfT4zpiP4xxJ8Q07S6qtLqKI+rxDBVACht4skrSuMk/C+YJiO6F64sZ6KHghWlbyHGE0QrlfyPgYBZdZVlfsTJzzjL57+UWl6BHRXFcXUGP4uklP8XfOuhPVEcV4lRqgBQTirL559AjCcBZEZx2OVMeDhYUbYgimOaTSX/E4iXmYAjZeXfO4agPwDCJYje9+12Zro/WFX6UpTGU2KUKgCU4+o7flqmI+J8nBiXRWnICAivaBH94dpFs76M0pjRIjv5HwRwAECGpP5E7QTQEcApMjqLs5mAH2QXFJ+p63gA4GsQpRk0AhY4iKZuqCjdGI3xlNijCgDlWCjL559EjEcBdInCeDoBr4G038T4xr7jkZ/8iSccbG7+qGNSyn3M/CCAZEl9t1WIgKcQ4v+OJNPpmo63AXSS0XE8zgQclpXv768BDzDhdkSnEDjIoN8F0zY+FkPnYihRogoA5Uf6jyseGNH4BURn7VIn4DVdw2+DC8tWR2E8K8hP/hpdGlhY+t7h/+C5qMjDEe0+gG8D0EHSOMcfn+h5LUwzjzxzwV1QfAF0fhNqJqBNWk8Z/G8GrkJ0XiGsJtJujdMCWxGkCgDlMHLn+6eC8DAkfYmfENO/IuDfxPlhJqYn/yPljp+WEY44b2TGzQCGShqzBeNTAv2lOUwvb1ky8/tj/RFVBLRf9rgZZ+jk+C2IL4/CcIeI6T/qxnSZrV4ZVABVACgA+ufPyIpo2vNg5EdhuBUg+lWgonRFFMayUlST/9GyL5pxaiSiXUSAD8DFgmO+zUQLHVpkYe27s9a2pYEqAsRkeYtGE+gRRGfmbQk5+FY73oapRJcqACyWPW5Gz4iDzifGYBANAqM/Wm7P69j6vxCACBi7AGxh4gCBvgbxZwebmz/aueTJ/UbG93iLb2FwOYBUw3+ZE/sOTP8RqCr9J+L8yxwWJ/8fKSx0uOszwyKDBtI2OUXWjVURIM6dX3QliP4IYKCpAzH2gbg4UFn+nJFuMvKmdDolKelcMJ3F4NOIyQ2gDwjd0LLHwYWWzaoHAOwAoQbAN9DpG6emLdtQ8dgOw38XRZgqACzgHlc0kjS6loF8GDswJARgBQhvOXT9lZqqWcG2Nuw7bmo3JyU/F4Wpx50A/7b77oPPrFr1jLTL5W3MPskfsKQAAFQRYMSwYZNd33frOAmMEpj/lsdbLmf41vXvzNnZ1gatM4bXgnEJWmYsRI8BZ4BXM6FKA/+9rmLWh4L9KIJUARAlnryiNDjpLibcCnOqex3AUjDPCaRvfuNEX9zZvhljddbmwtz3+sMEPIkQ/3ccnNzXVuTx+ssZmC6pP2PJH7CsAABUEWCUJ68oDS4qYWAqzL2BcCuDbgpWli467p8oKdHcH9RfDqJpAMbCjI2LjLVM9IKTXX9S9xtEhyoATJY7flpGc8RZTIwpiM4rdQBQw0y/DY7p8vKPNvsUFjo8Df3+i5l/DXNfQVqsU2TGxorZX5s4ht3YL/kDlhYAgCoCZMgq8A8hHbMAjDNxGJ3BDwdDab/BkpJ//76UlGhZy/deT6SXgCnHxPGP1ADix0PNjvLjbThV5FAFgFlKSjT3ioa7wPgDgDRrguCvdY2mbFxYtqzv+GmZjrBrLoHHmjhggInvC1aUv2riGHYkP/kTTwhUlC823JPFBQAAuH1FF4JpAVQRYEjr/oCZADwmDlNNDr6u7t3yOreveBSYnwRwponjnchuAv1H3eguz6q3FsyhCgATuPOLBoPoJQDDrY4FADPzP4goH0A3k8YIE6i0OWX/b7cseOagSWPYlX2TP2CLAgAwpQiYXVdZVoQEKwIyR/o7aJ3xG2LcC/Ou4G4A6G2Ar0X0rzn+CQY+cjj0m9v6JorSdqoAkCzLW3QTgZ6EpFPRYsBnOjB5Y2XZJ1YHYgHpyZ9BE0+4FtteNikAAKBfgf98dWKgHJn5/tMdGp4GY6TVsUTJfhDfFagon2t1IPHE8uoubhQWOty+oicJ9BISIfkz9jHz9EDapnNU8pfiIIgnSE3+NrNxYdkyEF+GlnsMDCPQnR6vvxwJ+CCzqarsq8Co1DEgTAWQCBvmOoHpZbeveDZKSlTekiThPjhmyB0/LTkUcc4F4yqrY4mSt8LO8F2b35mzyepALGLvaf8j2WgG4DC1HCBXP+/9fYhCT0bx0i5LETDP6QzftP6dOU1WxxLrVCVlUGvyfzNBkn8DMW4LVJZdqpJ/DCR/mwpUlC8G8QRImglgYHqizgQAwMbKR7YEK8ouZ9BNAPZYHY/ZGChsDjvn546fFu0LsOKOKgCMKCnRwmHnX6J0hK6lGKhwEp1eV1X2gtWxWMiUNf9ESv6HBSrKF+saLgJg6CTLwxiYnuUtegoJWgQAQLCy9GVN1wcz4Q2rYzEbAb5QyPV3FBZG5WrleKUKAAPcHzTMYaDQ6jhMxdjHhDuDlWUXJfi94mrNXzK1J0C+2kWztgcryi4nxm2I970BxJd76jNnWh1GLFMFgKAsb/GNIEyxOg6TVUNznBmsKHsGCbq+2kpN+5tELQeYo66q7AUH62cQY5nVsZiJgRken/8XVscRq1QBICDTO30AtRyQEa+YgNnddx8YG6h4rNbqYCympv1NppYDzFFTNStYNyY1j4EitNwbEpeY8azHd+8gq+OIRQn9ARFSUqJlLW9YScC5MrvtntEDAwafiiyPB90zeiA1LRUulwsRXUdzcxP2fL8L27dtR92GDVi/di0OHjTnvB0GNmrATXWVZe+bMkBsIbeveBaYp0nqL/pP/jZ8C+B41NsB5nGPKxoJjeYCyDaj/1M6dkTuwIHIzs1Bj5490bV7d7iSkuDQNIRCITTU1+P7HTsQqKvDurVrsWtHm+8eahvCykBF2Wion3W7qAKgnTze4jsZ/CcZfWkOB4YOH4bzRo1CZlZWm9uFw2GsXb0GHyxZgmBdnYxQDnsnouHGTQvLdsvsNEbFfvIHYqoAAFQRYKb++Q+kRqj5BQBXyOozy+PBmLw8DDptCByOtu/H2xQM4sPly/H5qk+hRyT9ihHuCFSUPS+ns8SgCoB26DtuajenlvQdgK5G+xp8+um45PLLkN7VWFfrvvkWC15/Hbt2Gq+oCfhHXWXZtYY7in3xkfyBmCsAAFUEmCnLW/QCgW4x2k+3jAxMuPIKDBhkbOZ9965dePtf/8I3X682GhIAfM9JyQODbz0U969CyqJeoWiHrgNG/ydABUb6SEpOxtXXXwfvxRejQ4cOhmPqltEd54wYiUMHD2DzRsOb9AenDhj5WsOGasnzczElfpI/AAwZoqU1dvmNSNOGlL2/w5o1UU+aDRuqa9NyR1QDVAg5592fl54zMr2+pnqhhL5iVqZ3+gAN2tMwuPfrvNGjcONttyOjZw/DMXU45RSccfbZ6JbRHRvWfoeIsdmAUxAOH2qoqVbLl22kNgG2Uf/8B1LBNNVIH6mpabiraAbOOPtsWWEBAJwuJyZefTWuuPYaaGToR6qRjl/LiisGxVfyj2FmvB3g9hXPQgLPejrg+A0Ap2h7jTRcdk0hJl59NZwu4W6OaeiwYZg8Yzq6pKYa6oeIpp868f7OksKKe6oAaKOI1jwZBq71TU1Nw6Tp96Bnr14So/qx4SNG4JqbbwSRoe+4azIL/LmyYoohKvnbjOwiAMzTErUIyMr39wdwnWh7IsLVN1yPc0ead/dQr969MXn6NKNFQNfGQ+FJsmKKd6oAaCvGraJNk1NScMtddxpe72+L04cOxcWXGzoSXNMifIOseGKESv42pYoAOYj4BhhY8h0/cSLOHCZ35vJY0rt2xS/vnIzkZCOn/OrC39WJRhUAbdBv3IxzAAwWbX/FtdegR6+eEiM6sVFjx+L0oWcKtyeiRDpYQyV/m1NFgAwk/PQ/5IwzMDrv5zKDOaFevXtjYuHVBnqg09z5xWdJCyiOqQKgDTTSDH14Th86VGY4bTLhqqtxSseOos0HJcgHSCX/GKGKAHEeb9FQCD7AdOjQAZcZSsZihg4bhsGnDRFuT4REeogRpgqAttAwTqSZw+HAJcam44V17NQR4wqMvLDAV0oLxp5U8o8xqggQw0zCN5VeWFCAjp06yQynzS6+/HJo7Thb4EjMHPcXtMmgCoCTyB0/LQOM00XanjV8OFLT02WH1GbDR4xAl9QuQm2J+DzJ4diJSv4xShUBAjSMEGnWsWMnnDNKqKkUXbt1w9Dhw8QaE4ZmFvjN33QV41QBcBKhsHMMBL8czhszWnI07eN0OTHsXLE8zqBhiM8vRXJ7/bNV8o9dqghoFwJDKIuefe45cLmSZMfTLiNGC3+HaqTTGJmxxCNVAJyc0NpZj1490SczU3Ys7WZg527XzAJ/jsxYbKAl+QP3SOpPJX+LqCKgbTK903MBCE1DRmPX/8n07dcP3XpkCLUlAxu3E4UqAE5O6KzL3IGnyo5DSEbPnsLLEJpO8bQRUCX/OKOKgJPT2CH0Ge7YqRN69ekjOxwhA4WPG9bVDYEnoQqAkxsg0ijL45Echjh3ttgFYARu+w1F9qaSf5xSRcCJESB0Xm9WtsfogWLSiH6XEkjouzuRqALgZFhs+kzGOdmydM8Qm0ID0FtmHBaRnvwZNFElf/sIVJQvZtBEqCLgp4jFvr8y7PP9ldFDOBbrdmDHCFUAnAyx0LnSnbsYO9NaJtGjNYkR62dqU+sXudTkH6wsXSSpP0WSYGXpIl3DRQD2S+mQeZon3/8nxHgRwCR2c2lnwbeHzCD6/cWI+e8v06kC4KRI6CVYY0dZypWcIhYLE4xfV2gd6bv9VfK3t40Ly5Yx6HLIukCIMLl19ih2iwAWu78kyUbfX6KxkCoATkoVACcndB2qzrrsOITpunAsQvfI24B68k9Q0mcCgHtieyZAbCHfwHeGdCwei33+EjalCoCTE3qaaDzUKDsOYU2NgrEQ2+cv0XbqyT/BqZmAfyNioX8D4e8MEzSKxyJnT0gcUwXAyTWINNqze5fsOITt3iUWCzPqJYdiNlM2/KnkH3uClaWLpG4MBO6JxSKAQWLfX4LfGWYQ/f6C4Hd3IlEFwEkQeKNIu+3btskORZhoLES0SXIoZlLJX/kRVQQAxCz0Gd6+bbvsUITtEP0uJQh9dycSVQCcBLMm9EtUt2GD7FCE6JEIgjW1Qm0ZFJQcjlnI7S2eA5X8laMkehHApAVE2m0KBhAO2WMLUM269aJNVQFwEqoAOAkCvhJpt+7btYhEIrLDabeaDRvQ1NQk1NYRJqG/e5S1Jn+eKqk/lfzjTCIXAaKf4XAojHXfrZUdTvvjCIexfq1YHKxzLHx/WUoVACelfy7S6uCBA/h29WrZwbTbZx99LNp0d+3imXafAVDJX2mTRC0CWj/Du0Xafv7xJ5Kjab9vV6/GoUOHBFs7PpMaTBxSBcBJHNKcHwNoFmm7fMn7kqNpn4b6enz1uVD9AgJ/AMFXIKNEJX+lXRK0CGAmLBNp+M1XX2HPbqHaQZoPliwRbdqoH9BXSQwlLqkC4CS2Vzx2AIzlIm0DtbVY9823skNqs8ULK8SXIVh7T240UqnkrwhJzCKAhI6tjug6FldUyA6mzb5dswYb64S2MADA8k0ry0SnDhKGKgDagvCWaNMFr79uyWaajXUBrPrwQ9HmrIPny4xHIpX8FUMSrQjQNH0+BGfzPvvoYwTr6uQG1AahUAhvv/66gR7obWnBxDFVALRB2Bl+BYIQx8BiAAAgAElEQVSnSu3auRNv/etfkiM6sabGRsybOxfMwjP4q4JVZTUyY5JEdvI/pJJ/YjqiCJD1lGjbIqDu3fI6BoQ2AzEz5r0818hhPELeev117Ppe+P1/PRLhV2TGE69UAdAGm9+ZswnAEtH2H61YgY9WrpQX0AlEdB2v/OVl7Pr+e/FOCC/Ii0gaM5L/BJX8E1drETABUouA4jmwYRGgQfwzvXvXLvzjL3+BHqW3mj5asQIfr6wW74CweNPiss3yIopfqgBoI2LMNtJ+wbzX8MWqT2WFc0wRXcc///o3rF2zRrwTxr6UFNdf5EUlhUr+iinkFwE81Y5FwIFQ08sA9oq2X7vmG7z6t78hYvIdAV+s+hQLXv2noT5Ix+OSwol7qgBoo7oxqQsYWCfaXmcd8+bOxQfvLTEyNX9cjY2NmPv88/h8leGNr39aO/+RfTJikkQlf8VUiVAE7Fzy5H4CnjLSxxerPsXc5/9syj0BzIxl772HeXPnGrtIjXhDXfqmN+VFFt9UAdBWJSU6MUqMdMHMeGf+fPz1hRdxYL+sy8qAYF0dnpw5E2vXfGO0qwMuV/hRGTFJQu58/+Mq+StmS4QioDmkPQaDtySuXbMGT8ycKXVj4IH9+/HXF17Eu/MXGH44Yl37HebNs/4EthjhsDqAWNJw80Wr0zY2XQagl5F+du7YgY+rq+F0OtG7bx84HGI/hj27d+PtN97AW/98HQcPytjQzL+vXTj7HQkdydCS/AlTJPWXmMl/yBAtrbHLb0SaNqTs/R3WrLHzWRBSNdSsrE3NGVVNQCEAl4Quz03LGdW9oWalLT5T++pWHkzLHekAcKGRfg4dPIRPP/oIDfUN6NO3D1I6dBDqJxRqRvUHH+CvL/4ftm6WsWTPXwfTN01NpN9Zo2xTncYKT37xCCZeDkmzJx07dcLZ55yDocOHoVefPif98+FQGBvWfYfPPv4Eq7/6SubGnM0USs2tW1Jih3tAVfKXpbDQ4a7PFHoPNZC2yZmIT1NZ3uJxBF4AQCyz/QQ9EagsnQYbHKzlyStJYVfDegB9ZfTncDhw2tAzcdbw4eg/YECbHma2bdmCLz/9FKs++hj790lbbWSN9LzaillLZXWYCFQBIMDt9f8FwI2y++3UpTPcnmx075GB1LQ0JCUlIxIJo7mpGbt2fY8dW7dhYyCAUCgke2gAYGa6M1hV+qwZnbeD/OTPmBisKquS1F9sUQWAkKx8fz4R5iPOioCs/OJJRPw0TPjuT0pKQpbHg569e6Nrt25ISk6G5tAQampGff0e7Nq5E3U1tdi3V3gv4om8Hqgsu9KMjuOZKgDaqe/4aZnOsPNzAN2sjsUEDMI9gYqyJy0aX/aVvomd/AFVABiQ7ZsxVmftLQCdpHRIeDZQUXYnLCoC3D7/7WA8g/jc+7XfodOwmkWl31kdSCyJx18E85SUaM6w8/8Qn8kfAAiMx90+v6yn73aNrZK/Yie1FbOWaqRfAoMb537AmOT2+U15+j6ZOE/+ANApovHcIYUlSVYHEkvi9ZfBFJ4Ve38DgxtoYoAVRYBK/ootHVEEHJDSoQVFQAIk/8OGH6jf+z9WBxFL4v0XQpp+Bf7zmfnXVscRJdEsAlTyV2yttQi4GDFYBCRQ8gcAMPhX7vyiS6yOI1YkxC+FUVmXPJiu6XgZifXaZDSKAJX8lZgQi0VAoiX/VgSiP3vyfmXoVe1EkUi/GOJCTS8AyLI6DAsQGI9n5RdPMqPvlkN+VPJXYkNtxaylzLgcsg4LYkxq/QxILwKy8osngfEsEvM7vge7wn+G2uR+Uon4y9Eunnz/rcS4zOo4LERE/LTkmYCWJ3/1qp8SY4JVZVUa6RdB1kwAYYrsmQC3z387Ef9JZp8xaLzHWzzZ6iDsThUAJ9B3/LRMJsy0Og4bkLkcoKb9lZhm5+WABJ32PyYGz8ws8OdaHYedJfwvyQmQM+x8EUC61YEYtBly3juWsRxAbl/RE1DJX4lxdlwOyPL5J0uc9me0fHfEso6aTs+jpETlueNQ/zDH4c73TwUwzlAnjDeZ+RUA5t6heWzfM1DUKS21PzPJOnyEiPhpwSKgJfkz3S0hDkAlf8ViwaqyKmZMhKwigDBFtAjI8vknE0PWtD8z052d0lL7M1AE4HsJfbaXzsyvgGHoZj8Cj3Uv31skK6h4owqAY+g/rnggCA8b7CZAYb4pWFX+C9ZwRhQLgb1g/N7lDOcEK8tmrZ5X0hysKn3W4iJAJX8lLtmhCJCc/PXDR4KvnlfSHKwsm+VyhnNA/AcwonFNuM7Mr7CGM4JV5b+gMN8EIGisS/6DO79osJTo4kwibxI5tpISzb28YRmAUQZ6iTBrecGqmR8c+R/7jyseqDtwPTNfB2CgoTiPwsBHGvBCcgfX3LXzHznmB1XyOeBtvTtAJX8rqaOAo0L63QGMJwNVZffgJEW7Ccn/ruN9pk+deH/npoPhG0G4lcHnSBjvSN8R0d+0CP569HG+/Qr852s63oOB17AZ+CiYtmmU+n3+MVUAHMXt808B4wkjfRDRb+sqSktOOE5B0dlgXAnQeWAMB5DWzmF2E/gDHbRYc/Abde+W17WlUZSLAJX8raYKgKiJdhEQzeR/NLfvvmzmyEQNfCGDzkf790o1AFgFoJpJ+2ewYuaqE47nLf4dwP/VzjF+hIGiYGXZLCN9xBtVAByh9aKf1QC6iPfCHwTSNue184uTMr3TczV2nEXEGQC6gimdidOJNZ3AYdZ4J3TaBnCtpju+rl08MyAaYZSKAJX87UAVAFEVrSLAyuR/LJ6Lijy6rp0GXc/WiPqCkc6EDsycpIEaQDjEhM0EbNQi9GnNotJ1aM+SZF6J053UsBSMkaIxAtjvYH1ITdUsg0sK8UMVAEfweIveYNBEA100aBHtTCPJOVpMLgJU8rcLVQBEndlFgN2Sf7S4ffdlQ498AUJnA928HagsU0cFt1KbAFtleYsLDSZ/EMMfC8kfAIJVpc+C+A7I2Zh45GFB5PYWz1HJX0lUph0WVFKiuX3+24nxFCQV7iBMi4XkDwCBisdqGXSvwW4u9viKr5USUBxQMwBoOeufmptWA+htoJuYrCxlzwQAeB9AnoS+AJX8jVMzAJaRPhMALAHwcyTYk/9RKMtb/A6BCwz0sT2i4WebFpbtlhZVjFIzAADQ3PS/MJb89+hwmXFevulkvyIIlfwVBYAJrwi2fLYSOfkDAEecoTsA1Bvoo6eD8ZCsgGJZwhcA7vziswgwlLwZNH1j5SNbZMUUbZKXA2RQyV+JC9KXA4xjYronRpM/AGDzO3M2EchvqBPG7dkF/nMlhRSzEr0AIBA/DiPvlxLeCFaWviwxJksEKsr/zEx3Qc5MgBGHmLTLVPJX4kVtxaylTNoVkDcTIEpnpjvrqkqfsjgOw+oqS18kYIGBLjRdx+xEPyY4of/yHp//Zhg78GevHsZUWfFYzQYzAS1P/hUzKy0aX1FMEayYWWnxTEDMP/kfjTW+Ey3nCYg6z72i/hZJ4cSkhC0ATp14f2dm/NFIH8T04KbFZbF+YcaPBCrK/wziSYh+EaCm/ZW4Jv0WwbZjYpoaD0/+RwosLN/KbOxwIDD90ZNX1N5D2OJGwhYAjQdDv4WxjX8f1o3p8rSseOzEgiJAJX8lIVhQBMRl8j8sOCbtCRBWGuiiB1xUIiueWJOQBYDHd+8gkKEraUM6Re5ASYldNs1JF8U9AWrNX0koUdwToAM8OV6TPwCgpETXIvpdAEKiXTAwNWvcvT+TGFXMSMgCABx5GIDLQA+PbqyY/bWscOwqCnsC1Jq/kpCisCeAiemeQGX5cyb1bxu1i2Z9SUCpgS6cRLrR219jUsIVANm+GWMNnvhXG9mP30sLyOZMnAlQT/5KQjNxJiD+n/yP0pxy4HcA6oQ7IFzqLii+QFpAMSLRCgBidjxmqAPi4k0ry6x+nSeqglWlz4GwSGqnjBfUk7+S6IIVMyvBeEFyt+8FKsufl9ynrW1Z8MxBMN1nqBOdH0GCnY6bUAWAO99/ncF7rBfVVZT/S1pAsYE8Xn85GPlye8XdWb7i6VL7VJQYk+XzTwZB1r0Zh43z5PtlXRYUMwJVpa8xaKGBLoa78/3XSQsoBiRMATCksCQJGv/OQBdhnSJF0gKKDeTx+ssZMCNREzGXqyJASVSSb/X7ESZMTsQigFj3w8CGQBD+4MkrSZEXkb0lTAGwv37vPWDKEe+BZyfCxr8jmJn8fxiDmMvd+X4jb2QoSsxx5/vvMSv5H8aEyW5f8Swzx7CbQFX5N0z8hIEuPOzaO0VaQDaXEAVARt6UTgA/aKCL7Q5ONjJ7EGuikfx/GAuE2aoIUBKFO99/DwizEY3EzDwt0YoAp55cAmCHeA/8YEvOiH8JUQB0TEqZBiBDtD2B/rum6mEjR07Gkmgm/x/GBGF2Vn7RtCiOqShR17rmH53kfxjztERaDqiperiB2NDhPhkdnckJ8UAS9wVA7vhpXZhZfHcoY21dqEui7Ki1Ivn/MDYRzVJFgBKvzFzzP5lE2xNQl77xGQBrRNsz4YFEOCI47guA5pDDD6CraHsCHsCSkrDEkOzKyuT/QwyqCFDikZXJ/7CEKgLmzYsA+LWBHtJ0F8X9BuW4LgA8eUVpRDRDuAPCyrqqsvkSQ7IrOyT/w1QRoMQVOyT/wxKpCAhUlr0O8Aei7QkozizwCz88xoK4LgDYSfcCSBdtTjoVw/yz8K1mp+R/GBHRLLe3KG6uWlYSUzR2+7dXQr0dQNoDEP8OT3VE4JcZjt3EbQGQO35aFxCMPEW+XldVWi0tIHsit694lsTkf5CA2ZBTNBFAc1QRoMQqybv9ufWzdVBCXwnzdkCgonQFAPHD2wjTcsdP6yIvInuJ2wIgHHJOAZAq2FzXdP23MuOxodYT/ljWVPtBEE+oqyybAfBkyLlAiACao5YDlFgjebc/AzytrrJsBrNWAGC/hD4T5u0A1vBfEP8+Sm0Ou2Sf1GgbcfmD9+SVpHBSQy0YvUTaM/MrwaryX8iOy0bI7SueJTP5E/MldVXlSw7/B09+8d2tB3JI+wIMVJYbOeAj/pWUaP2W7RmmkTaANPTUgR4ak8bg+0W6I9AjOrGuATvAvC0CWrdxdOqn8XwNtgzSn/yZph55sY8nvyiPid4CcIqE/gHg8UBl2XTE8XKnx+t/hYFrhBoTtlFzanbdkpJGyWFZLj4LAK//LgZEb8KKgPn0QFX5N1KDsg/Tk/9hqgiIDo/v3kEMvRiMywD0MHm47cR4g5x6ae27s9aaPFbMMTv5H6aKgPbJGnfvz0jTvwTgEGlPwN11lWV/khyW5eKvACgsdLjrM78D0F+oPdPcQFXpjXKDsg3pyR8aXRpYWPre8f6AKgLMk1ng7+pgPATGrQCcUR4+zODnkZTy/4JvPbQnymPbUrSS/w/jFRRfAJ3fhCoC2sTt888F43rB5jWBtE0DW18vjBtxtwfAvSfzWogmfyCiOSP/IzMeGzFlzf9EyR8AWr7A1J4A2TK90wc4dCwHYxKin/wBwEmgO6m56aOscff+zILxbcWUNf8TJH8ACCwsfU/qngDgnnjeExDhSAkA0TNd+nvq+4otIdhY3BUAAO4Vbsn09zid1pS+2x8aXRqoKF/clj8cqCx/jpjugaS3AxL9FcHscTPOcMDxMYBBVscCIJc0fXlmvv90qwOxiuRX/ZiYprZ1litYNfMDaDQRkt4OYMJkt9cf3aOKo2RT5ex1YHpFtD0ziZ8oa1NxVQBk+2aMBeFsweasa+GHpAZkD5Y8+R9NzQTI0Sfv3u66pr0O8TdczJDmIMzP8d1n9v4D27Hiyf9oaiag7ZjpfyH6HUQ4u1+B/3y5EVkrrgoAnTXhhEDAm3F43a+lT/5HM2UmwOdPmKs7AcCZpD8H8SUuM3nCiDxpdRDRZOWT/9HUTEDbBBfNXAPG26LtNd1WB6YZFjcFQP/8GVkALhdtr4MflhiOHcjf8Cfw5H806TMBjMcTZSagX4H/fGrZ6W9PjKuyvEWjrQ4jGuzw5H+0wMLS93QNF0HNBJwQgf5goPkVbt992dKCsVjcFAA6aVMguBmKGMuCleXLJYdkJXN2+ws++R9NzQSIId3Q5SZRQaD/tDoGs9npyf9oGxeWLVMzASdWV1VaTYxlgs0dxPpdUgOyUFwUAH0mTD6FgTtE2zNRPK392/LJ/2hqJqB9Mgv8XQm40Oo42iA/65IHRe/fsD07PvkfzYyZALfP/zTiqAhgAzO+DJ7U03dfR5nxWCUuCgDnoU43AOgm2PybQGXpOzLjsRC5vf7Zdn3yP5qaCWg7B/N4WPO6X3u5tFBTgdVBmMHOT/5Hkz0TAMakeJoJCFSVvw1A9LC39GREbpAZj1XiogAg4juF28q7vMZq1Hq5xz2S+jPlyf9oZswEuPP9sv4N7EMnO7zy10axFGvbxMKT/9HUTMAJHb5cSQgxJssMxioxXwBkFxSfCWCYYPP6Q+T4i8x4LGLOtL9JT/5HC1SWPwfwnZBVBBBmx18RQH2sjqCtGBwzsbZFls8/WeaTfzRPs9y4sGyZruFiSLtACJPipQhoTjnwEoDdgs2HuQuKRF85t42YLwAiOhvZkPH89orHDkgLxhoxNe1/PLKXA0CYHVfLAcQ9rQ6hrUjwEi47iqVp/+NRywHHtmXBMwdB9GfhDlh835ldxPQPsKfvvo4pHNkCQOS+5gjIMSBQ8Vit7LiiiFo/iPKm/U9ytr/ZpN8dQLgnUFEW8++nu33+FWCMbG+7s845Bxk9xWqHPbu+x8crq0WaLg9Ulo0RGtRGon22v9nk3x1ATwQqS6chhpdQPRcVeThC6yF2SVBDIzn6xvJDZCxsKjquFER+AbHkDya8GVTJ/0iWJ3+gZU+AJ78YkoqAlj0BPj9ivghg9BNpNmL0KGS63UJDbtu6VbQAyBQa0EbiLfkDLXsC3AXFl8orAniq21uMWC4C6t4tr3N7/W8AuFKgeWoHPXINgBckhxU1sb0E0HIRihBN1y39MBoUkxv+2kptDPyxft77+0AwqaaldxUeNzUtTbSp25P3q5hdBpC+4Y8x3erkf5j8jYE8Ndb3BDBpwtf8MsX2MkDMFgCtN5CdJ9i8tm5MeqXMeKIoLtb8T8aMPQGe/OK7JfQVdRqaLxZp53A60bFzJ+FxO3TogKSkJLHGzvB44YEtZMqaf1XZ4xL6ksacPQHFcxCjRUBwVOdFAGoEm4/KvmjGqTLjiabYXQLQIjcK/74xPY+SEhlPl9EWl9P+xyN7OYCJn/DkF6M9T2M5vvt6hBAeC2h9CHoPgBpJx+aIA+s3dtm0Ijr3g9OtIq26d+8OImP/bN0yMrB182aRprciGlOjeSXO7KQ9o1jXclhDX4BTGNoO0rHZqWnLNlQ8tqOtXcXjtP/xBBaWvuf2FU0A0wIk+nJASYlOvuLnmPl/RZrrYe1GAP8lOaqoiMmKDS2JsBaAyOJmWIfLvbHykS2ygzJZQiX/I8neGHjSL+bCQodnT+bNrGESGOfh+DNluxlYQMwPB6rKRQ8VOSFP/owCJu1dkbYjxozBhKtEljb/7a3X/4UVS5cKtWXSfMGKmabMtLnziwaThgeZ6VIAx1vn0AFUE+O5uvRNL52oWEuk5H8kt6/oQnlFABCrGwPdBUW9oVMAgEugeW2gsiwHMfZ3BsR2Plou2zdjLIOKhBozzQ9WPfac5JDMlrDJHwDqa1Z+kt5/1A4QLoaMjYGEi9P7j9pRX7Pyk6P/T3dB8QVph7osQMvaXr+TjNeBgKEguistZ1S/bv3HLt1Ts7zJYHw/yMib0snlcP0TQHeR9mPHXYgegm8AHBaJRPDlZ58JtSXw8JTcMS8e2LAiZCiII3jyitJSc0c9AcLTAJ0FoMMJQwD6gXBZWmOXwtT+I9c21FT/ZKrX7S2aCiJZU9gxk/wBoGFDdW1a7ohqgAohlvyOdm5azqjuDTUrY+p01YYN1fvTckaeBWCwQPP01P6jqxpqVgZlx2W2mNwDoEO7Ubgx4VmJoURDQif/w+qqSp8ipqmQtCegdTngR3sC3Pn+e6BzBYCftbM/B8B3RKi5uv+44oES4gNKSrSOruQ/AxA6VY+IkJ2baziM7NwcaCT8NTE4hSPPoaREyvdM/3HFA9lJ1SC+De1/eBlMhHfdXv+9R/5Ht7doKpCYyf+wQEX5YhBPgKw9AS3LAbG3J4BYPDeQHpNHA8dcAZA7floyGIWCzbcG0jYulBqQuaj1g5TQyf8wM4sAt6/4URDmwNi+mEERjavdBcUXGAls2LDJLveKhr8whH/PkTvoVJxyivFZ3ZSUFAwYbOhk31+4lze8iLwSQ/uN3L6iCyMaV4NgZMOVA8Bjbm/x4wBIJf9/U0UAEEjdXAFgq0hbAq4ZUlgiuGPWOjG3BNDZM+oyEP1SqDHjuYY3nxdaT7VAa/LnqZL6az3etywmk/9hZiwHpOWOHAOG+KzSj3UA47q0nBF7Gmqqf7LEcDKZ3ukDGjskzwdgaBf9JVdcju4ZGUa6+EFKhw744tNPjXRxZpqjKb/zgJFL926obt/RqyUlmtt51lSAXgIg/krDj52bljPy5wDdDZX8f5DwywFr1nBazog+ALX7wC0AHUKHmlbV11SvlR6XiWJuBgBEwk9FcPDLEiMxk0nJ316v+omSPRMARr6Efo6UBNDjnnz/+x6v/+dtaeAuKOqd5Ssqc8DxBYARRgbv2q0bTh0sspR5bAMHD0LXbqKXbf5glEPHl+58f6m7oKh3Wxp48ovy3Mvr32+dmZH9dJUHlfx/IuFnAlgTzhEMA7nJIrHxQ2nlyStJYWfDDhA6CzRfE6gsGyI9KPlU8m8jyW8HmOkLMBawpi11RjigJYX2NIecnTVwFqANZY0vAeMCSJqRm3DllRhxvtyTeFcuXYY3X39dVncREN5jxpsa8xc6KJjkCu/Tm13pYQe5SdfHQsNEMM6QNaBJ4ir5HymR3w5we/1fAxDJFQ0uZ7jn+nfmSNsIbLaYmgGIuPb6BJM/iCgWnv5bT/iTl/wZNDEekz8g/cRAM50Jwq+J9YqIxmtDYecOImxgoveYuKx1BkJK8u/ZqxfOHSUyg3li544ZjV59pF3y5wAjn4ByJnqPCBtCYeeOiMZrifUKEH4dC8nfTif8yRaoKF+cqCcGEkM0V6SGwq5xUoMxWUwVAAQWfamZKUx/lRqMfC1P/pKv9A1Wli6S1J8tST4xMKYRESZcfRU0h/ytPQ5Nw6VXXmH4YKE4YcsT/mTbuLBsGYgvQ4KdGOjQaC5EHyoYV8mNxlwxUwAMGzbZRcBEweYraxfPDEgNSC417W+A5D0BMWvo8OHIzskxrf/snBwMHT7ctP5jRNxO+x9LIu4J2FBRuhHASqHGxJcZfeMlmmKmANiV3uFCAOkibYnwquRwZGp9z19N+xsRQ8sBpujdty8mXm3+w8dlhVejb2bMX/YnKq6n/Y8nEZcDiPCaYNNuWa69bdr4awcxUwDoRFcINmUKa/+UGow88t/zT4Bp/+NJ1OWAjp064cbbbhO/uKcdXC4Xrrv1FnTsKOuNvJjBINwT79P+x2PKckC+/3HYtAhozRlC3yPEwkvVURczBQBAQjeiEegTm07/q2l/EyTackBySgpuuO1WpHUVmhwTkt61K66/7VYkJSdHbUyLtST/irInrQ7EStKXAwhT7FoE1C6eGWDgY6HGLWeUxISYKAAy8/2nU8u57O2mQ7fj9L9K/iYyqwiw2wa4jh074fapU+DOzo762J7+2bh9yt3o2Klj1Mc+ERN+Rir5HyGRigCARZcBPK3X1dteTBQAGok9/QMAR1yiP0SzqOQfBXVVpX8CIHaN3TE4XU78ctIk+C691MjZ+NKkdU3H5Bn3WLoen5mVhUnTpiE1PXqzD8dDRLiwoAC3T7lb9lLI+4GKsoRa8z+ZRCkCjOQOokhMzALExFHAaTkj/gDAI9B0dXDRzD9IDscIlfyjxO0rehKgq2X05XQ5ceNtt2HA4EHw9M9GP3cWvvvmG4RC0i65a5fTh56JG2+7HWk2SLwdO3bE0GHDsXv3Luzcvt2SGFJSUnDdrbfg3JEjkd61K9z9s/H1518gEjnu7b/t4UnLGdG5oaa6QkZn8UL6scGEc9L6j8xoqKm2zbHBe2tX7EnLGVkIoEe7GxM5G2qqX5IflVy2LwA8eUVpcNBsCMRKoBfra1ZWmRCWCHLn+x8HQSV/k7l9/l+B6T9k9OVyuXDT7bdjwKB/X4jTrXt3nDb0TOzcvgO7d+2SMUybdOjQAVf+4hfIHz8+Khv+2iopKQmnDx2KbhndUbNuPcLhcNTGzhk4ADfdcQey3O4f/pv8IoBGHu/66ESWCEVAes7ILAAix2r2zTj1nNm7139k61MBbV8AdBkwagIBvxBpS8B/1tdU22ED4OHkP0VSfyr5H0eW714vMb8ACctbLpcLN95xO3JP/ekFdB1OOQVnDR+O3n37YFMgiMZDh4wOd4I4kjDy/DG49uabkOXxmDaOUb369MGwc86Fzjq2bdkCXTfvjcy0rum48tpfoODSS49566H0IoDg6zJg5JK9G6pj7s53M8V7EZCee14zg24VaOrQI/RJQ031N9KDksj2BUBazkg/gLMFmtZ3331g+tatq6x+L1wl/2gpLHSkNXaeD5Epu6O4XC7cePvtyD114An/XEbPnjhn1Eh07tIFDXv24MB+Sa9KA0hKTsaI88fgult+iSFnnhETu+6TkpMxcNAgDD9vBJgZ27dtkzUVD6DlqOMLfT5c+YtrT3o0seQiwEGMsxtuvugZLFmSEG+YtFU8FwH1/cZvTnM0TQPQob1tmVDfUFP9pglhSWOrTRfH4vb6NwDo3952BPyjrrLsWhNCalcYKvlHjyfffysT/my0H5crCTfdcTtyBg5od9u6mhp8Ul2N9Wu/w769e9vdPjk5GacOGe/6EMEAACAASURBVILTh56JAYMGweWScSurdUKhEL775ht8/fkXWLtmDZqa2j8j2rlLF+SeOhDDzzsPHoGTDms3bMBLzzyL5ubmdrf9CeIbAxXlc413FH+kXyDEeDJQVWb5uR5ur/9vEJuF/i5QWfbT6UMbsXUBkH3hvW7dodeJtCXQrXWVpS/Kjah9IajkH11ur/8DAKON9OFyJeHmSbej/4D2J/+j7dyxA7Xr12PL5s3Y37AXexsasHfvXhABTqcLKR1SkJSUhJ69e6NX377o06cPevXpC6crZk4SbZdQKITtW7Zg6+Yt2LJ5M3Zs24rm5mY0HmpEOBwCM9ClSxd0SU1Fp9Qu6NO3L7Jzc5HRw/CEjrQigEFLg5WlMXPSW7TFYxGQ5S26iUBCG/rCznC/ze/M2SQ7JllsXQB4vMW3MPgFgaYMjfsGFpZvlR5U26jkH2V98u7t7nLp22BgWUtm8lfsR1IREI5o6LlpYdluWXHFmyxv8TgCz0ecFAHZ42b01DVtKwTyJYNuClaW2vYmWutfaD4BBl8o2PQblfwTS5JTHw2jyX/yHSr5x7HsnBzcPHmS0TconKSTyK7whBGsLF3EoImIk3MCahfN2g7wapG2xLhAdjwy2boAAAT/8YisOgu/5WIfick/ES/2EcEa+oq2/eHJPzdXZkiKDWXn5OCXd95paEOlBl3oVNJEEqwsXST1AiHCFLfP/zRKSizJWQQS+w4mVgWAiEzv9AEAhI45I+hWJExqrVLVxT4WIJDQQjER4ZfqyT+hePpn4+Y7bhc/Npipl9yI4tPGhWXLGHQ5ZF4gtKLempkAhmhOyfZcVOSRGYpMti0AHOQYK9g0ortS3pcazMmpJ3+L6QyhF/GZGRvr7HBUhBJNwbo6MIstKZNGchJaApA+E8B0txUzARqSlgAQepdUj+B8mbHIZNsCAEwjRJoR6NPgWw/tkR3OiYZ0e/2zIfHJn0ET1ZN/OzGE93xUvP021q6x9XkdikTr165F1dvvineg8zZ50cS/jQvLlukaLoa0IgCT3Csa/hTNIqCm6uEGAn0q0pYEc1k02PZ9IwKfJ1KfM/MS2bGcwOFpf6kb/oIVZerJv52I9XUQnNJlZsx7+WXcXVyMbt27SY7Meo2Njfh+xw7s27sPzU1NaGpuQuOhQ2huatkNn5SchJQOHZCclIyk5GR07tIZ3Xv0QEpKisWRy7fr++/xt/97CTqLnw/GGq2VGFJC2LiwbFmWt/hyaW8HtCwHhANA1K7+ZuYlIJzT7oaEkSaEI4UtXwPMHT+tSyjs3AOBGQpiXF5XVfaGCWH9ZCi3r+gJMN0tqT+129+IwkKHuz5zG4Duol3kDhyIW+++S2JQ0bd71y7UrFuHzcGN2LlzJ3bu2I79e/cJ9dWpS2dk9OiJjIwM9M3qh/4DBqBrt9gukP781FPY8N06I13sDqRt6oF58+Qdb5hApL8iSPxUoKI8KkWAJ99/GRP+JdA03EiOtO0Vjx2QHpRBtpwBaA45zyUSW55waI6VsuM5BunJn0ET1ZO/AfPmRdhb9CaBbhHtYv1332HNV1/hZ6efLjEwczU1NuKb1auxYd061Kxbh/rd8la/9u/dh/1796F2/XpgZcvHKq1rOvrn5iJn4EAMHjIEyTE0S/D1F18YTf4g4jdV8hcXrCxdlOUtnihvJoDudvuKEI0iwKE5VoY5wmj/g7MzhfRzAbxnQliG2LIAAGGUSDMG1m2oeGyH7HCO0rLmz5Cb/NWav2EOBz+kR+hGGPi9fvP1f2HAoFPhctnntr2jMTM2fLcOn3/yCVZ/+aWcI27bqH73Hnz60cf49KOP4XQ5kTtgIIaecw6GnH4aNId9rxYJhUJ4d/4Co91EWMdDMuJJZMHK0kXZvhnjddbeAtDJcIdMd7u9xa7A6C53oqTEtLtfNlQ8tiPL619PQLtfGSLGCKgCoG0IOE+knUZs9tN/65O/Sv52VPvurLXu/OKXQHybaB8Ne/Zg1YcfYcQY+531cuDAfqx4fylWffiR0D0DsoVDYXy7Zg2+XbMGnbp0xrBzz8PovLHo2NH4d7psH1dXY89uw4f3vRioKle7RSWorZi1tHVPwAIIXLTzU3yHe0V9KAp7AlZAoAAAsy33Adj1LYBhIo100HLZgRyh9clf8rS/Sv5SuVwhP4A1Rvqo/mC58CtiZti/bx8q3nwTj/3u91hSWWWL5H+0/Xv34f2qKjxc8ju88Y95aGiotzqkH/lkhcFnA8ZaByfdKycaBWiZCdBIl/uKoLf4GVPfDiCsEGnGYKGcZjbbFQDugqLeAHqKtHVE9GrJ4RzW8uSvXvWzvfXvzNkL5qsBNIj2sXP7dgRqaiRGJebggQOY/+qreOR3/4P3Fy2O6lS/qEg4jI9WrsTM3/8v5r/6Kg7st37fU826ddi+zdCbe/WaU7+spuph4d8p5dhqK2YtbT0sSOgcj5/iO8w8LEjXIVhJUp8c333Gb7WSzHYFABhDBVseqo2kG3ryOw5zNvyp5G+aQFX5N8y4GkBItI9PPvxQYkTtw8z45MMPUfbHh/Dh8hWIhMOWxSIqEg7jw+UrUP7QQ/h4ZbWlMyoGf5bNDLq69t1Z6tU/k7TeHTABsoqAlo2BT8CEImBTOPUbCJ5sqHNENLeZxnYFAEET/Uf6EktKZH9TquQfo4JVZVUA+0Xbr1/7nSVJa9uWLXhm9hy8/vdXcPCA9U/PRh08cAD/+sc/8PTs2diyaXPUx2dmrF/7nZEeitXn1XwxUwS05JgvRZpGwKoAOCkW/EciFjql6UQ9quQf2wKj055i0FKRtvv27sX3O3fKDum4mBnLl7yPJ0rLEKyri9q40bKxLoCnysux7L33olpY7di+HQf2iy4x8weB0WlPSQ1IOa6YKQKIPxNqJv5waxrbFQA6cJZQQ4bMAoDc3uI5EpP/IWZcppJ/lJWU6Kzxr0Wb165fLzOa42psbMTf/+8lvP3GG9Aj8fuKuR6J4N35C/Dyc89HbXajdp34z1Aj/k8zXytTfioWNgayrgkVAFAzACeWkTelEwE5Im2ZHII/lJ9o3fDHUyX1d5BBE1qmpJVo27iwbJlocbhls/lT1hvrApj9yKP4+osvTB/LLr5dswaPzyyNyiVM27ZuEW36eW3FLKHZI8WY2opZS5lxBey6MVATuxMAwMA+EybLOQFRElsVACmu5EEQiymU5Gj+WkIIato/DpFGQifA7G/4/+ydeXxU9dX/P+fOTBJIIAuENWSysYkbokBYJJAFkIobVKvVurcFkYSg7dP21+bp0/bpo8AEEbW41bVVrBtFIBtRWYKIKMqeZSYkKHsmCySZuff8/ghYRJCZ7/3Oltz36+U/bc75HiaTe84937P4tt1u91c78fxTT8F5wp+7q4ID54kTeO6p5dj9pYw/2wvT6BQt3Bf7zhjIobbEVsKMmZB4HZCYnfcUJAQBp32NSIGxyXIqaqje82USVAEAgYYJiu6rXLOsTe/xidl5TxnOv/OhMT4WkXMKO4+Ls+2TLfjHiy/C5RJuVAh53C43Xn/x7/i0wlfdu0CjYBCngDdINsXAS2QHAQT8QkYQcNrXCFWWEmmiPs4nBNUkQGIeKvKrIZ2DX3Da+RMgaxOM4fyDCE1hh0ngJre5yTcZgI9KSlH0wQf+7jI4AWAfCFWkoRmEEwxuAQACRYIRywqiwEgFMBRAjD+M0ljDu2+uRHNTMzKys6TrFx2a5IJaI9kUAwFqS2wliVl5M4nwPiRMDDwdBKC22DYHOiYGErCLgRECkkYAcEEIYh8OkZ4AQLbzP2U4/+DC3GZuZktw9NJ/VFKKdatX+/oYtWN3OZdBQ7nJZPrM2x0ZqTkL+6iqehUUmszgKegozvXJsH9mRvEHHwCAT4IAEcyucLEVigbSCcoggGgXxAJ4IwC4MDxMMDsjOp/bF87/esP5BxkRrgio3n+vZC8E2vbJFhSddnQ+gbCZNHrFbeI36tYt0TX4/nTAsPb0fxiYObeXWbHcBtCdENzVcTFK1qxBVI8oXD12rDSdYWGCv8MIV+isOewCBGEQIOpzhgvK+YTgqQGYPdsEUJqIqFtjkQyA4fy7Cm4kiYhZRJ3Hedj95Vd4742Vvkj7tzHwjEmjoY4i2zh7yZKn69bZdG+9OZf60uXHHMWFyx3FtrGKSRtGjBUA9NbdfAdmxntvvoXdX34pTaclzCImqJJVmhEGUgimmgBBnwMGBnf4uuAgWAIASjoxcCIAkajbHWFxe1uQYTj/roRCQrMlIrpJWFIGoNZuxxuvvAJVk9pS3gqGTYMlpbbY9svq0iV6xt15Rc3apXvtJbafqypSCVgKiYGAxhr++cor0oYhdRP8HWoQHklu4EOCJQg47XNE7hUjTvs6n+wq8JaAGTEgI7+3OUy7WWGewaDxAHoJqmoH8fOk0vvmMPd6D7oBDOffxbBm55UAyPRWbsz4cZg5a5aus0+2tODJRYvhbJC4HY+wViXMq1tn88+koouQkrlgiKZoTzIoW5bO6JgYPLQwH90jI3XpeXflSmwV2QRIKHEU2aT9ewzkkpiVlyXrOgAAGHjGk+uAtOnzwt3t5sls4plgug+AaJrwGBM2QKPVbje9c7B88VFBPbrwbwBQUKAkbmq8jsBzwciC/BqE4wS8omnKitrSxedL0RjOv4sxKPvRAQpcDgh8126cPRvXjBNf483MePW557Fnl7QdVUeYeE5tUeFbshTKJDEr78dEWA6gtwx9wy65BD+9/z4QiT+mtmzchPffEvq43Bos1gPFjwlPEjLwLf4MAqxZucOJ6OcM3AkgTsZ5Z+EGoYRBy2vH9fzAn9Mn/XMXMXu2yZqQc09Mbdsb1LFSNw2+uX7oBmAsEc+JTksf2TNpTFVjzZYzf8CG8++CxKWO/h8A40RkM7KzER0j3g23obwcFRs2CsufDTE+VjVkHygpDNyawovgrK7YGTX0mn8oGo0GKFGvvqNHjiAsPBzW5GRhHZqmYpvYNkCFWFOc1RXrhA838CnO6orq6JT0LUSYDUCw2OM/EHB1dGp6X2d1xbeVuok5+aNiktOfAuEJAGMhKdg4BwVAGgG3xxxouyM2Jb25YdSgL7Frl8/7hH2eAUjKzJvGChZBqGdSNwzgNVXFrxUTfifV+TNmGuN9g5uUzAVDVIW/gEBtSXh4OP7rf/4Ii0XsuXKwrh5PFxZKme1PoMfsrp6/9cG2S9+QUWC2hjX+L5gX6lWlmEz4ZW4uBiQMFJJ3udrxl9/9Hu3t7SLip1QFlwfLVYvB+fFFJkBT8SeTCf8L4KcIzFX5TtKw0F5qW+vLQ3z2D+toGworRMcHGGhckBAhnsZw/iHAqFEPWo7GRX4MwZa1y0eOxK133Sl0NjPjb088IWPWvQbww47iwuV6FQWCxKzceURUCJ3ZvkFJVvz84YeFrwL++dLL+PLzz8UOJ2x2tEdfGzLBVxdFdhAAuT5DD6+6tfbc+tLlx3yh3CddAEnZeZPMprCvEBzOHzCcf9eioEA52ivy79DRr37plVcIH7+1okKG828nottD1fkDQG1J4TIi3AFA6PX7DAfsDnxaIX7zcdmVOgr6GelWi/NFmdvkDOQjfXdAcDh/APip2RT2VXLO/Gt9oVz6lzopJy+PgRIw+snWHWAM5x8CxGfMiUra6PwnGLeL6ggPD8eQ4WLzOlpamlH8b92T/jQiustetOQNvYoCjb3I9k8C3w1AV2FT0erVaGkWWyE85JLhCA8P13P8TxM3NLzeN2ehvpYEA5/igyAgOGD001gpTczOmy9btcwiQErKzitk4A8InvkCsjCcfwiQmJOfHaaY3gYwSY+esRMmYNiIS4RkP3jvPTiqdY6RZzzsKLa9qE9J8NBQXfFVdNq4BgKmi+pwuVxob2/D0Eu8/72YTCa0NLfggEM8K0NEl5rBN0anjtvrrN5s7AkIUmQXBgYRCgHTYlLSo53VFUWylMoJAAoKlETLyBcB/FyKvuDCcP5BzICM/N6xaemzolPTnyDw7wDE69FnsVjwk5/9DGECb4xOZwPefv2fuqb9EegxR4ntL8IKghRn1eYtMaljewIk3Ff5zddfY9SY0QiP8H5eWP8BA7Fl40Zo+oYxxRNwV0xq+uTolHFaZOK4+ib75pN6FBrIx1ldUR2dNv4TAs9C5woCAEJ6TGp6ovOuaatQXq67S0BKH751o3MpgJ/J0BVkGM4/CEibPq9nu2rKIcZwgPqA0B+MXiAeBNZSZZ41etw4RPXsISS7oXQ9VB1V/8T42O7u+VthBUFO7+Mnf300LnIsBNsyVbcbH5etx4ybbvRaNqpnD1wzLh2bPvxI5OhzmUTEkywWhjUntwoa1ULBcTC+BuEQNN4V0T2seO/7jxkLhQJEbdHi4sSc/BuItffgm9a9QHKPdVNjswN4WK8i3V0ASTkL/ouZO90bCwznH3CSshaMZeLfAcgCoOsS1xO6deuG3P/6NaJ6eB8AtDQ34/E//gkul3C921G32T2yfs2yOlEFoUBK1vxElZTtEBymYrGE4ZHf/w6RUVFeyzY3NqHwr3/FqVN+uSJuI6CIFPypZp3tE38caPB9EnPysztpEAAi+o29aMn/6tGh6wogKWv+VAY9jyCZaywRw/kHkAEZ+b3jhox9GcAiAEPgp62VN992GxKTkoRky4uLUV0p3i7OoLvr1i2tEFYQIpyo3uKMTR17AKBbROQ1TYViUpA6ZIjXsmHh4egZE4NdO+QtG/oBzACGMuP+2NT0SyKTR61vqtnauYrTQgBn1ebOex0ATI5LTa9oqK6oElUgXKyXmrNgEJPyqh4dQYrh/APIoJyHL7VYtE/AuAV+DCwvu/IKXDHqKiFZVdOw7RPxlzwGrastXrJSWEGIYS8u/AcA4Qma2z75RHix0pWjRuEyHS2eAhADPzYrYZ8kTs0LxDC0Lk9t0eJiJuUGdLbuAEDRgFcHTp+XIKpA+M3Kzfw3SJr5fQaLJQzW5CQkJichvm9fRPXogfCICLCq4tTJUzhx4jgOff0NaiorcfjQIV+sVjWcfwBJyskfxqx9DEB8/q4AMXGxupb+VO7Zi+ZG4eveVk3hh4QPD1EUkzZXU5UdEFim0tzYhKq9e4VbNWfOmoUDtbVoOH5CSF6QFNLwcfK0+ek1a5fu9efBBr6tCSAi9OnXF8lpaejXrz9i4mLRrVs3kMmEttZWNDc14cihQ6itscNRY9dzTXg+4s0u89MArheyXUTImpN7B5heFZE9H4lJSRgzYTxGXH4ZLBbPngfHjx3D9q1bsWXDJrS0NMsy5RiHhQ+uXf1Xvz4ZDICEqXlxioYKAgb789zIqCj8fN489Ooj3jygZ9IcExfWFhXmCR8ewliz85ahYzeI11x+1VW49U7xOWPHDh/B35YtQ0uztGeHZzD2kpvH2ssLJa6HNPCExBm/jqX2tn2Q9OIaGRWFsRPGY+Q11yA2zrOSFperHTt3fIlPNm6Co0ZeNymBbz+dWfMKr2sA+uYsjDQzrwIgVip9Fv3698etd92J7OuuQ78BA2AyeW5Ot+7dkZKWhrETxyMsPAIH7HZdFdin6Q7NHe6sMhaA+JvY1PSlBPh1/Wp4RATu/eUv0Ld/f2Edra2tePfNN0Xby9o0lW5rrKnoktXivdPGfaUBcyHwHDp+9CjSJ06E2SyWxOweGYnUIYOxY/t2qG4/Tvkl9GYTxTirK3RPizLwjhjrNX8Beb8W/FzCw8ORPeM63HrnnUgbMgTdunmeUDCZTOg3YABGjRmD5LRUfF1fj+YmKX/+6ZEjLn+mad82lzdCXv/hxaeOXQjA+z6cs1BIwZRpOZh950/Rq7e+YMxkMiEpJRkjrx6F+gMH0HBCX2BNoFExaRNedVZtMiJ0P2HNyh0O0Ar4sZ4kMioKdz1wPxIS9S2t+/Lzz/HV518IyTL4+QOl3kftnYUTVZsbY1LHWQF4XXyhaRr69O+HfgMGCJ/fo2dPJKelYs/OnXCJLQsSgoAr44aMebOhcotP5rsbfJ+kablJYHoZegvfU1Nx35xfYsjw4V69sJ6P2Lg4XJ0+FkQER3UN+PtbiL2AeihuS6OzusKr9aNePXCHzny0BzM/6p1h3yU8PBx3PXA/pkydCpMi73kfHRuLe+fOxehxQi3GZ2MBa/kybDLwEFIWwE+V/gAwIGEg5i7IE674P5uqffuFZRUyFeo2IMRhjWyislX7xT/7MyQmJWFu/gIMSBCuoxLBzG5lgT8P7OqwSvkQqDc5m7ETJuDeOb/UtSL8XEyKgsxpU/Gznz+gd1w1CPQrb8dVe+WBW1tdd0JHgVZYeDju+cUvMHj4MFEVP4hJUXDD7Fm4NktvlofvTc1Z2EeKUQY/TEGBArBQAYu3EBFGXnMNHnx4HqJjY6Xo1NH6t8VetHiPFCNCmNrSxbsAfCoiWy0hAACA6JgYPPjwPFw1ZrTwxkFvYQUzjQVD/mFARn5vAPfq0TEpKxPX33Kz1JfWs0kbOhT3zvml0JTLs4jrxqpXK0y9+dcQGHO8NOg/B5lMuOOeezAoySqqwmNyrrsOV48RXgQHAN3cXn6QBmIkb3ZeDaCvr8/p278f7ps7B7Nu/4nHhaYX49jRo3CeEKwXJbwsxYhOABO9IiLXcPwEjh2Vk0W3WCy45bbbcP9Dc3VdK3gMo9+gjU6xvlMDrzBbtDsAdBeVvyZ9LHJmzJBo0flJSEzEHffcA0XH1QKD53rz8x4HAIOy80YBEO5jzb5uOtKGej+8QwQiwvWzbsFAPWk9wl3yLDK4EMxI8aX+uF698KObbsLchQuRnCp1arCeFLTqVttDftOfLEyq+gYEtwXKygKcISklBXPyF+D6W25Gr969pOo+FxOR3C+kwXkhFn+WJyQm4vpbhGZWCZE6ZDByZlynQwNdap2a63Fg6XEAQAThTyExKQkTJ08WFRfCbDZj1h13iEdTjMuNwR1+QbwE/wIopGDI8OG464H7seC3v0H6tRN9krqrrz0gKrq9vnS5UQB2mprSpYcA7BCRrT9QK9majqvEsRMmIO83v8HPHnwAQy+5BAr5IvXLfkg1dG2ScvKHgbwvMgU6Csxn3XG77mI/b5mQkaGvPolxs6c/6nHhFbFY5T8RYeasW/x2t3Y2ffr1xbhrJ2LD+nIheYWRA2CnVKMMvgvrH/pjtpjRu3c8kgenITVtMJLTUhHhRWuOKEcPHxYTZKyXa0lngMsAutJbqSOHj/jCGAAdz64hw4djyPDhaG1tRU1lFar37UN1VRWOHTkCl8urjqvvI+G7b/DDaKxNFfU84ydNQnwf/5eCnfGZyxcvERt2x3QjgN958qMeBQDJmfP7aoBQ5d6wS0eg/8CBIqJSmDh5MrZs2CQ0fYmBHADCVcoGvuOKUVdhQkYGomNjEBnp/WIYGRwRDACIUSbZlJCHSVlPzF5XxgsHYV4SERGB4ZeOwPBL/5MUbGlphvOEE1s2bMCnW7b4xQ4D7yBgqoicxRKGCVMy5BrjBf0HDsSwSy/F7i+F9lZcMiAjv/fB8sVHL/aDHgUAbKJ00RbFcRMniglKIqpHD1w+ciS2fSLwB8qYZs3Okz5v2OA/iH64cb16+7t16zucOnVKfIqcahYbG9iJ0dy8XSTT2tzUhNZTp/yS8TmXyMgoREZGIS5ebIokA7+3Zuf9XrJZBhK44qqRAXuxOMO4iRNEAwAyWXgcgPcv9oMeXWwxcLWIFdExMUhOSxMRlcqV14wKtAkGnYyjh4TfPJ328se/kWlLZ6CuzHYQDKGRaP7KAhh0HUZeI+TypJKcloboaLFbIsVDn+1RAEBMQvPZhwwfFpC7/3OxpqTo7a80MPgOTU2NQnIMGItgzg8DECrpbxJfxGRg8D3CwsMxKDk50GaAiJA2dKiouEdv3p5mAIRatazJPu3w8hiTomCQ1ffzBwy6Dm2tbUJyBFRLNqXTQAShveZt7WK/CwOD82FNTvbZwB9vSU4T86EM9qjF1NN/pVCrVnzf4Bmm16evz2fNGHQh2gWdDjHEUgddAAY5ReREgzEDg/MRTH4rXtxveeSzPQ0AvJovfIYYSeNWZRBMthiEPq2CTodJ7J67S8As9Nm0trbKtsSgCxNMviImRswWAjyqYPRpABAeoW+5gUzCdC5aMDA4m/Y2MafDgk6uK0CCwZGrzcgAGMhD71IemYSJ+1CpAYCBgYEEFEUJfFVskMIIgophA4MuhKcBQIuI8mC6m2s33hIMJBIWLtZVwqz1kGxK54FZqPHaEkRvbAahT1sQ+Yp2cR/q0ZASnwYADaKb0nxAMNliEPpECKbmiCmw00WCGUJPEbEIo8XXQCLB5CsaThwXkmOZAQCBDooYceTQIRExn3D4G2P2ioE8wsLEAgANHC3ZlM6E0GcTTLVGBqHP4W+CyG8JDhwjwCOf7VEAoLEm1Ltsr64REZOOqmmodTgCbYZBJ0LY6RAFfsJIsCK4Gjpc8DrGwOB81Nrt0FQ10GYAAGqqhUZjAB7O1PAsA6CgUsSG/bv3iG0zkoyjqsqoATCQSo8eQtlqECA82quTQyAMERHs0dMoqzCQR3tbGxw1gX95ZWZU7hEcHMokMQDQaKuIDU5nA6r3C8UOUtm+bVugTTDoZPQWHxYSbZ2aKzRYqzMzcPq8gfCwdelcegdgZatB52b71sD7jOr9lWh0Cs3GAhN75LM92gZoUkyb3awyAK/bdDZ/9BFShwitEpBCc2MTvvxsu5gwYa2jyDZdrkUGZ5OUnfffDHi9Ee3Y0aOoP3AA0dExiArAG2C3bt0QGRUlthGQcSWAr6UbFcKYVPNIEbmonj0CVgTY3NSERqcTxw4fEZIn4I/2YtsfJJtlcBbW7LwPAHj9DN+xfTumXj8DkVGBq9nd/PFHoqLsblc2e/KDHgUAVUWLDluz8/YAGO6tJXt27UJ9XR0GBmh164dlpXC5XGLCTMVyrTGQxY7PPsOOlrxKLAAAIABJREFUzz4DAJhMJsT17o2UtFSkDB6MlLQ0dI8Uml3lFfF9+giuBFamAFgj255QhjRM9v71AoiP98/b/8mTJ2GvqkLV/v2o2V+Jo0ePQnW7/XK2gTjEVMTEXgcALlc7Pi5bj2kzr/eFWRelvq4Oe3buEpTmnQfLFx/15Cc9CgAAgMHvEsjrAICZ8f5b/8Iv5j/s982Ah77+GhUbNgrLs8LrJJpjcD4IDdBZJqKqKo4cOoQjhw5hy8ZNICKkDh6MsRPGY+ilI6CQb+ZdxfftA3u1QH0s82T51oQ4CjJFvgfxPkz/MzP27NqFLRs3onLPXvn1TIQGuQoNzoWhrRNIXAMANn30Ea4aPRp9+vl3jwwzY9W//iX+fWN619Mf9fjJyKC3xawB6hwOfFRaJiouhNvlxsrXXheu5iTgy9p1tp2SzTL4PtJT4cyMyn378OoLL2LR//wZG8s/9ElV78BBiaKiIwdk5PeWaUsok5TxSD8wLhORHZg4SLY50FQVmz76CIv/9Ge8+tzzPixmFmuvNvAcR0nhbgCfi8iqqoq3XnsNbj9nej4uLcMBu56uNc99tccBwIFi26cAhB1i6Zo1qNzrn1XozIz33lqJr+vr9eh4WaJJBheAyLfrcZ0nTuCD997DE489jqp9QuvmL0jKYOHaFsViUW+VaUtIY1Zvg+Brmo7fwXmpqazEk4sWY/U77+LEcbEhLJ6iMgv2eBl4AxGEn+X1dXV4f6WOt3Evqdy3DyVrdNwOEnY4SpZ4XPTmVW6UmJZ7b1EHqqbh9Rf/jlq7XVSFx6xb9W989olQ48IZWhXmV2TZY3BhatKjPwXg88kbRw4fxgtPP42Vr76G9vZ2KTp79e6FaMHNYQy6S4oRnQAG3ykiFxsXh7hevaTY4HK1463X/4Hnn3oah/wxNIzwzYHx0Z/5/iADs8n9KoBTovLbPtmC4tWrJVp0fuocDrz2wotQNU1YBwNe+WivAoAWd+srAITD4ra2Nrz49DPYu0u0uOGH0VQV7775Jj5ev16fIuIXa0qXBs84qM5MQYEGwvv+Ou7zbdvwt6VPSHu7Sx2cJiRHwGhrVq7XNTWdjcSpeSNAuEpENiVNztt/w/ETWPHEMmzfutVvb3rM/B4KCsSf9AYeU7lm2RGAXtCj48PSMry38i1dzvmH2Ld7N154+hm982qOusNbXvVGwKsA4Ej5U80Mesw7m75Le3s7XnnueRR/8IHUe9kTx49jxZNPYuvmCr2qXID5cRk2GXgGQVkCwG8Xbd8cPIinbTYpkypThwjNrulAoTzdBoQ4pNICUVkZ7cX26ho8tcSGg3Xi14UCuMyassSfB3Z5SFkMQLAdrINPNm3Cc8uelHo1pKkqSj5Yg5effU7/EiLm/zu4asVJb0RM3p4ROeKy7SZ32L0AdDVf26ursXPHDvTq3Ru9eovXQ7W1teHj9evxxsuvSvnFMPGy2qIl/9StyMBjGqo2H41NSU8AYZS/znS1u/DVF18gbcgQ9IwWH88fGxeHTR99BE3szeCy3mnjXjpRtblR2IAQJnlKvpUVfg4CzyGLJQw33/ZjmMweNzJ9j/oDB/DiM8+g9ZRwdlgM4hX2EptRY+RHnFWbGqLTxsYRaKwuPQ0N2Lq5AkTAgIQEmExef3W/pXLvXrz6wgvYuWOHHpPOUK+20J2NdRVevUh5bX3Tvm2u2NSxBwG6xVvZc2lpbsHn27Zh3+7dMJtN6NW7t8d/0EePHMbGDz/Eytdex95du6BpUrIJRxEWMcu5f0OrDGUGntNzeMZGUtWbAMi51PUAVVWx+6svMezSSxEpODfAbDbj0DeHcOhroWYGEwOmhuqKtUKHhzjRqWP/AoLQA/mykVfg8quEbg4AdDw/XlgeAOfP2Esu/KTBXmE8Y/xM9LCMT0hV7wPQXY8eTVNRtX8/Pq3YjLbWNvSMifF47khbWxu+3P453l25Eh+VlqKlWWjR7vdgxgMHPrJ94a2ccGO+NTtvNYDrROXPh9liRqI1CYnJSYjv2xdRUT3QLbI7VLcbradO4cTx4/j64EHU7K/C0SNiW5IuwjFF06bUlC6VEpIZeEdSTv4wZm0zgBh/nhsdG4u5CxYgMkosCNi3ezdeWvGs6PFtikm7ombtUv+0yAQJiZn5l5CibQcQJiJ/94MPYvDwYUJntzS3YPmSJXD6f+1rg2LSxna133WwkJw5/3JNUcrgg5eM+D59kJyWhn4D+iM2Lg4R3brBZDbjVMtJNDc34cihQ6i1O1Brr4HbJfe2k8Dv24sLbxCRFc6fuc3un5vd5u0ApPUzu11uVFdWoroyYPsDemmKUpKQlZdZV2L7MlBGdFXsRYv3DMp5eKLCpvcB+G1rnvPECbz31krcfvfdQvKpQ4eiR8+eaGoUyuSHa5ryJIBsocNDEyLSnoSg8+/RsydSh4nXXrz/1luBcP7VGqk3ONY+YTj/AJCQlXeZRiiBjzKMRw4fxpHDPnkpvRiHVYT9UlRYeERa/ZpldQpwB4DOVskabyKUDsp5+NJAG9IVOVD0xFculzIawFuA3hmBnrPzix34XHBplElRMGrMaPHDGVlJOQu6zFwAa07u7SAIT0McNWa08HTHz7dtw1dfeJ0p1QMT8KZbax99oOiJr/x5sEEHg3IevtREKAUQH2hbJKMx444DxY8JD5TSNSO1pthWRIzf6tERpMQrbDKCgABxsHzxUUexbTYxjQOwGoBfdjmv+tfbaG5sEpIdN+lahIUJvdACAJh5eWrOAvlj7YKM5Cn5VjAtE5UPCwvDuEnXCsk2NzZh1b+EB5p6SxsY/ybS0u3FtlvrS5cf89fBBv9hUM7Dlyps6ozOHwz6TW2JrUSPDvESxtM0VFdsiE1NjwXEinmCmEiCMit6cPoaZ1WF2LovA100VG+uc1ZXvB4/9JonVKbPCPgKTLtBqANwCMQqQHGyznO73dBYw5Bh3t8th4WFoaWlGQccwiM8u2vAaGfitJdhL+9sWTUAwKhRD1paIi0fABAbngBg7IQJGHH55UKyxR+sQU2V9OF7lQB2ANgOxnoQrwIryyO6W35RtWbx3xuqtvi1v9DgPyROzRuhsFIGoPPti2bYaktsXm9RPRfxHpqzsI+PXmDd6IwCcJ8MfUFEH9JQmpiZP6W2dLFvphcZXJTKNcsa0XEl8D0GZOT3NlvU6cR0j5608hm2btqMSVMyhVYMT5w8GVs2btKzJW681eL8qwNYKKogmDkWF/k4gDGi8maLGRMmi/2KmxubsHWzRxtSPaGMQS+qWtsa480+OEnMzL+ENK0UndH5E551FNvyZajSnQEAAJSXs7O6YlVM6tgeAKVL0Rk8RBHxrJiUsaud1RUerVg08B9N9s0nndUVO5zVFS9Fp47bQMDV0JHu0zQNDMZggSxAeEQEmhobUX/ggOjxADAuOjW9wVldsUWPkmAjKScvj4E/6NExevw4XD7ySiHZkjVrxTY3fpedUOg2R5Htv53Vm3c01Wz1cw+hgSdYs3KHk4L1APy7xs8fMB53FNvmQ1J9lMw9qewoLsxnIBc6Jy4FIX2hUFlSTr5Y35GBX6gtXlLaSqbRzPyGHj1bN1fA5RL7CmdNnybcTngGApYkZef+RJeSIMKak3sHMxbr0REZFYnMadOEZF0uF7ZW6J0QSv9oJdMYx7olOueMG/iSpJz8YVCoDJ3P+bvAmOcosT0KicXR0hel1xbbljIrUwDuXKsuGf2YNSMICHIOFS1qqZ0QczsAr2Zin017Wxv27d4tJNs9MhI5P/qR6NFnUBj0UmcIAqw5uXeA6UXomDkCAFOv/xG6dxeb37Jv125dM9aJ+GVH8ZI7DhUtkjO1xcAnnJ4jUgZGv0DbIpl6EGU4SmxPylYsPQAAgNqSxRtUhS4jCpqVurKKqvoza2XJ0+YPlaTPwBcUFGgOV/Q9AIRf+77cLrRCHAAwavRoJCYlCcufxsKgVxOz8+brVRQoknLy8sD0CgCLHj2JSUm46hrxNssvPxf/XQLYZG+PuQ9+bEk18J7kafOHMmtlAPpLUhkUhbgMvMRh4Zc5ipZs8oV+nwQAAFC3znbcXlT4M2JtGsCB6n9lAK+QiVMByOr/6a+pVJaSuUDHFhgDn1Ne4Fah3gXBNaD7du8WvgYgItwwexYUHXPCT6MQUGjNzl2MjAIpBbv+YNSoBy1J2XmFzFgCnW/+ismEG2bPApGYGperXc/20ZOaar4L5QV+W1Rl4D0pmQuGaCrJdP5vn/YZryJAgR8BXyrA1Npi2921q//qs6lVPgsAzmAvWbrOMT7mCiLcDWCfr887jQbgbTCNchTb7rKvLbT3Pt5yG6QFATRAVbgsIfthOftIDXxCXfET+5n4byKybW1t+KZe/Bar34ABmKb/KuA0tMBqcX4YCnMCkqfkW4/GRX7EgJTMxbQf/Qj9BgwQlv+6/iDa29sFpfmZA2WPS+8bNJBHQvbDg1WFywAS/5J8l7d7H2+5zb620O4ott0Jha9Gh9/wT0aAsZeZfmYfH31lTbGtyNfH6YrOvaagQLFubJwG8FwAOZDUhngWRwB+hcj0rL1o8Z5z/89Rox60HI2NehPEN0o6r15VkFG3zhaw2cUGP4x1am5/aFQLge/ajbNn45px4k0tzIzXXngBu7/aKazjHI4R4SF7kS0ot1Vas/JuB2EZACmzGYZfOgJ33Huv8Ns/AGzZuAnvv3XeDtKL4YbCiY51hUJbngx8T8LUvDSThnIAA6UoZHq394nmH2/btuJ7qb+O+gL1AYDuhPyhQi4AxSB+0lFUuBZ+zDr4NwA4i4GZc3uZTWE3gjEDwASIf6jtYDzHivJu/LGm8vP98s5mxOyCsCan801iCC1POA91qoLJRhAQvFhz8orByPJWbsz4cZg5a5aus0+ePInlixej4bjELB6hRFG0h4Jlqczp4qvlAKbI0hkTF4u5+fnChX9neHflSmzd5H3/P4GL7cWFOboON/AZp53/egAJMvQx4b0e0dE/3rmy4AfTRSNmF4SdbHBmaIwbQLgfgvssABwBsAHE/1aJ3q1bZ9O/y16AgAUA50BJ2XnXMlAuIOu2mN1RlWuWeVzmO2J2QVhLQ8NKBs0UOO97MHCAVfNkI10YnCRlLchlYpvXcqmpeOChubrPr3M48Nzyp4RrCi5AGwF/c5ndj9evWVYnU7GnpGTNT1RJeQTAgxB/EH4Pi8WC++fOQYLVqlvXs8uWwV5d47UcE82vLVryhG4DDKQzaMojqWRyrydAypUYgd+PjImZfTHnfzZp0+eFu9zmZghkFhXSJtUULf0YQVBY6vMaAA9he0zdBgAiO7LNrS6zVwV5O1cWtEfGxMwmYJXAed+DgEFkcq9PzMpLkaHPQDaaUBm4rF3xCVYrbv3ZXTApUv/cwhl42Ow2V1lz8lb4sz3VmpU73Jq94FmVlP0AHoJE529SFNx6111SnD8AnBL8HSrMft0YZOAZiVl5KXKdP1Z56/wB4LTPEbnCbq2JPrgRQeD8geAJAICVK1UC9ouImhW6xFuZjiAgehYY/xY581wIGESE9dachX5bY2vgIWbYRcRcwsVj32f4iBG48cc/1nWffQHCwHiAWdudmJ23xZqV91Da9HnSF5+k5izsk5iz4GFrdt5WEO0CWE/687wQEW64dTaGXzpCmk5Xu2DWxcTCSx0MfIM1Z2EyEaQ5fzD+HRkTPctb5w+I+RwAAGEfVq5UhWR9QFC1FjGwF8Bl3guy0C9j58qC9rTp82a53OZ/AZghouMcEsHqemvOwsmOokXe5x0NfAK5+BQr3jtel0teAAAAV40ZjabmZhT9W0rM+T0IGA3CaJfbvNSanfcFgDKAyqBo270tZhuU/egAhdtHgjAFoCluVi8nH78wZF83HaNGC68KOC/CHQCtFpFspIGPsOYsTAar6wEkSlK52mJxCzl/AMI+hxjfK04PJEEVAICxR7AqYbjokZVrlrWlTZ93i8ttfhvAdaJ6zsIKVtcnTcvNsK8ttEvQZ6ATl1npYQqKsR7ApMyOOrni1avB7LMsoAJgZMd/nA+NYM3OawSwj4AaME6wQo2sac0AQIoSRRr3BCGWgWQAQwBXT8jPVpwXIkL2dddhUlamX87zBMWk9gTwTaDtMACSpuUmsaquByDnXgj4wGJ23+JN3dh5EPU5RgBwQRTeA/b+ocOAWDrmNKeDgJtdbvM7AKbr0XUaK6u0PnlKfkZN2WIjlRhgTMyJIvWuPXr09IE1HUFAjx498O4bb0DV/BaZ9ARwNQNXgwAw/+c6glnkz04KJkXBDbfOlv7mf4YePXuiuanJazlWOAn+m1ticAGSp+RbNVWT6fzXWMzum3U6fx0+h4MqAAieGgAADJPohzMkbfq8cD1nV65Z1kau6JtBWKtHz1kkaSZtfUrWfFkpKwNBWMNEEbme0dGyTfmWq0Zfg9vvuxcWi9Rr9JDCYrHgJ/fe4zPnDwA9o8WCOI3FvjMG8kjJmp+ombT1AJKkKCSsJVe0bud/2tcITYJlVowA4EK0gfZAbOKSpc1t9r524Bzs5QWt1B59E4PW6dV1mmSVFCMICDBEdL2IXJSg8/CUYZdcgvsfmoPYOClzc0KKmLhY3P/QXAwfIa/g73wIB3EKpLQIG4hxusV0PTqupHTDoHXUHn2TvbxAd21Huxp2KcT2W6hqi5EBuCCHiha1gMU6AYhwlQwb7OUFrWFm1w0AVsvQByBFJeWjpGm5SZL0GXhBYnbueACjRGQHDpQyY+QHSUhMxLxHFuKyK6/w+VnBwvARIzA3Px8Jib6Pi4XHCDMut05dMFmuNQaeMHD6vAS1Y6WvlLZqAhdrzSzF+XegCT1PAOyp22yT01ssiaAKAACAwWKruxgjZdlQuWZZm9qM2QQulqTSyhpKBk6f53uPYnA2REz/IyqcPDhVpi0XJDwiArfedRdm3HQjTPoXCAUtJpMJ1914A+64717dE/48JSVNx7oOjf+EgoKge0Z2ZgZOn5dgVk3lYJLyx0fgYncz3SDT8RL4SkHBoJstEXRfbgUkurtTSgbgDHWbbafczXQDCCVSFDKlmt3m9UYQ4D8SsxbcD4LQW1yPnj3RO76PbJMuCBFh3LXXYk7+AiSldL55UtbkZMxZkIfxkyb5YhbCBYnv2weRUVGi4uMSNzU+JNMegwszcPq8BLPbvF6W8wehRLbzBwAwifoaXXupfUHQBQBgsQ+JgMtkr0yt22w7pTZhJoBSSSrTTG5zWcKUPDnLKwwuSGJW/gQiFh7lmjY0MNue+/Xvj/sfmotZt/9Ej+MKGiIjo3DLbbfhgXkP6drqJwoRYfDQoeLyzIsSs/K83iNh4B0JU/IGmtzmMgBpklSWqk2YKd35d/iYy0VEGYoRAFwU1Sz6IXVLNp3Q1Q54Puo22065IlpmAiiToY+AwYoJ6wdlP+r/p2EXITErL4VIewdAhKiOq8eOlWiRdxARRl5zDfJ+818YN3EizJbg6tb1BLPFjHETJyLvt/+Fq8aM9utb/7lcPVZXl4GFCG/5c9RyV2NQ9qMDFBPWEyBrvXqZK6JFvvMHkGB2DgfQTUQ2zNRuBAAXw17++DcgsQEcrCjjZNsDAAdXrTjpimi5HhKDAIKr3AgC5DN05qM9FMK7AHqL6ujTr29QpOG7deuGGTffhEf/8HtkTpuKiAjheMZvhIWFYdzEicj/7W8x4+ab0K2b0LNSKslpaejbv58eFdHM2ntJGbkxsmwy6CA5c35fBa5iec6fN5x0td1wcNWKk3L0fRczYbygaF3lmmVHpBojgaALAAAAjG1iYvBJAAB0BAGtZJoJsY2F34OAwQq7yqxTc/vL0GfQQWurazGLjJM+i7ETgqsFPDIyClOmTkX+736LKVNzfDqfQJSe0dGYnJODR37//zDj5puCzsZrxqbrVTFEs1ChDFsMOrBOze2vkfIhdA5yO4vyVjJPO1L+VLMkfd+HWOiLRODPZJsig+AMAAgVgpK6/8p/iENFi1pcES0zwFgvRSFhKDQyMgGSSJ42fygY9+jRER0bi6tGXy3LJKl0j4xE5rRpePQPv8cD8+ZhdHo6wsJ1zb/ShdlixmVXXoGf3n8fFv7+/yFr+jR0j4wMmD0/xNXpY3XPWyDgp4mZ+dKvGbsiqTkL+0CjEhDECzS+A2846Wq7/lDRohY5+i5wCsQyABqUTbJtkUFQ9hxFp4yzEHCXgGhcXPKYZxpqtvjsS9C0b5srIm3CWyZgAskZT9mLoF0XmzjxXw32Tb6LXLsA0cnjHodgz/8ZZt9+O/r2D+6kDBEhJjYWw0aMQPrEieg/cCC6de+GttZWnDrpk8znt/Tq3QuXXnEFrs2cght//GNcOWoU4vv0gRLAO35PMJlMiI6NwZef67qGVYg42lld8Y4su7oiSRmP9NMUdT0kvfkz6KM2Mk0/XLrUp84/OXN+XyblLyKyCvOfG6or7JJN0k1QVhd162b+pPWUS4VAgMImSgfwrnyr/sOhokUt8RlzZkSawz9gkjIydDhb3GXJmfMn15QuPSRBX9dj9mwTGiA08e8Mg4cNw/DLLpVlkV8IDw/HZVdeicuu7GhNdp44gar9lairdeDokSM4eugInM4GId3R0THo1Sce8X3ikZBoRUpaGmLiYmWa71dGXH450oYOQeVeXSP+ZyCjwIzyArcsu7oSyZnz+2qKuww6FridDTE+PulunXGk/CmfOn/gtG8R29/lPqWYt0o2RwpBG7Zbc/K+AAu0WxAtchQtecQHJn2P+Iw5Ud0tYWsAmiBJ5S5F06YYQYD3WDNz06GQcJqte/fumJO/oFOO5W1ra8PRI0fQ3NiI9vZ2nDp1Cm2trXCdXpVrCQtDeEQEunXrhrCwMPTo2RO94uMRHsDrBV9x7OgxPL1kCU6dEi8QZ1Ym1pYs3iDRrC5Bh/NXyiDtzp83nHS1T/fpnf9ZWHMWPA7mhV4LMj5zlNh0ZSZ9RVBmAACANFQwCQQAzBnyrTk/R8qfau6bs3BaBKurAUySoPISTVHKkzIemWwvf9xYReoFpChDWTA8JyLM/ukdndL5Ax1ZgoEJxvwpoOMK47a7f4aXnlkBjcU2MRKpwwAYAYAXpE2fF+9yUwnkFfxtiugWdp2juNB/16aivoUQlPf/QLAWAQIA0WZByZGJM37ttzzloaJFLa1kmgHgQ0kqh7HFvT4p4xFdfUtdDmbhzyvnRzMwZLiUjKRBCJA2ZAiyr9Ox9ZvI+Nv0grTp8+LdbnMpQHLu1wibLWb39L3vP+b9nmdBTreAio2bZ4j6Mp8TtAGAW2HRCNtE7W0ZMm25GIeKFrVYzO6ZIGm/6GGwuIvSps+Ll6Sv86OQUJM8EfllKY1BcDEoySo+nIjFBsF0Rc44f72tud9C2GwxuadVrlnWKEWfp5hpEgSL5hVN2SjZGmkEbQBQt85WCcAhKD5Fpi2eULlmWaPF5J4GCLcwfgcGLnOp5pIBGfnCA226FBqE6iaYGS+veA5V+4SWUBqEIPbqGrzy3PNgFrsyYmbjes4DEmf8OtblMq+V5vyBbWwJn+F35w8AJOxTqmvKFov6MZ8TtAEAALD40B2/BwBARxBg4rBpALZIUci43GLRjCDAI/igqKTL1Y5Xnnse1ZWVMg0yCEJqqqrw0t/+hra2NmEdBEX4u9ZVGJCR35va29ZD0pp2AFtMHJZZu/qvJyTp8woGi/oUOTNjfERQBwAKCX94wwM1Ya+65P+cJg6bysAnklReYbFoJQMz5/aSpK9T4uL2DQBUYXlXO15e8Ryq9xuZgM5KTVUVXl7xLNpPdz8IorrcJKvep1MyMHNuL4tFKwFwhQx9DHxi4rCp1SX/55Shz1uSM+f3BWiEkDBxUAcAQdsGCAApWfMTVVKE0icEusdevOTvkk3ymKSM3BhYlCIGXyNJ5edurT2rvnT5MUn6Oh3W7NyP9bZkWixhuPP++5A6RN9ocmbG4UOHULO/Egfr6tHU1Ahnwwk0NzZD01SEd4uAyWxG9+7d0adPP/RLGID+AwZgQEJCp2y/A4D29nZ8XV+Pbw4exNf19Tj09Tdoa2uFq92FttY2kELo0bMnoqOj0SO6J/oPTEByair69Our+2xJzh8gbHYU2Xw2cjzUGZg5t5dZCSsBcKUMfQTaCpeWYy8vFBtmIYHErAV3EfFLIrIaLAMPFD8WtBmjoA4AAMCak1spsh+agJX2YtuPfWGTp/ggCNiuKsiqW2c7LklfpyIpe8HdDH5Rrx7RIICZUVNVhU8rKlC5dx9amr3vUDJbzBgybDguG3klhl5yScgHAy6XC3t37cJXn3+OPTt3w+Xy3gFH9eiBtCFDcPXYMUhO835brDTnD4AId9uLbELOoLOTMDUvzqShBKLV8ucQDM4fABKzcv9JRLd6LcjY6yixBfUWyRAIAPJWgPGAgKiz9/GW+G3bVrikG+UFiTN+HUvtbcXQOaL2WxifcXh4VqDuwoKa2bNN1oaEHZDQa2yxWPDT++5D2tAhF/1Zl6sdn27egi2bNuHIIXkznCyWMIwaOxrXZk5BdHRoLaJramzER2Vl2FaxRdd9+7nE9+2LMePG4er0MbBYwi768zKdP4Bdjpi6y7FypfBVU2clccavY6mtrUTinf82DgvPDvhzLqPAbLU4jwDw+g+QgWdqi22/9IFV0gjKXQBnE506NpxAIm/yEaciLGWBnr/s3L+hNXp4xkpS1SwA+pf+EPqTqmZFD89Y6dy/oVW/hZ2IXbs4OnXcXgLugM76Fk3TsPOLL5BgtSKu14XLL3Z+sQOvPP88dmzfjpMtcqeRapqKutpaVGzYiKbGRvQbOCDoVwI3OhtRvOYDvPX663BU10BV5frKky0t2LdnD7Z/ug09o2PQt9+FW/IlO383iG93rnqhWoayzsS3Lzkk6SUnWJw/gKTBIycC+IWILAF/cVZX7JFsklSCPgDolTypnknNh5B9MX1sAAAgAElEQVStdMRZXVEs3Sgv+TYIcKvZIMgoThxAqpoZmzh2ZYO9wggCzsJZvbkmJjW9BUCOXl0/FAQcO3oMb7z8Mj4sLUXrKd/+CljTUH/gAD6t2IKonlEYMDA4p/p99slWvPLcc7BXVUPTxKbseUpbayu++uIL2KurYbUmfW8LoWTnD4AecRTbXpekrNPQMSBHLQYgZ4VmR4YzKJw/AMSkjpsDsQ2A7RHdLL84tnejrC+gTwj6AOBE9ca2mNT0KQCSvBYmxDqrK56SbpQAzv0bWnsMTn9LYeQAkoIAk5IZkzjGCALOwVldsTkmJb0PCLprL74NAhITEde7oxtz/549+Pszf8Phb/y7skF1u7H7q534ur4OKYMHB3QV8Nm0NDfjzVdfw0elpXC7/bsj58Tx49j+6afo078f4vv0AQDYZTt/4qcdxbbfyVHWeThT4wTo/zs7zXbVhOwDaxYFhfMHgOjUsUsBiAxkK69as/g52fbIJugDAACISUvvAyBbQDS+R+ro1xurtwRF0VxjVcWpqORRbylkygEgY5zoQDbRlF4pk1aeqN4o76K1E+CsrlgTk5qeAZHA8Rw0TcNXX3yBhEGD8NUXO/DOP9+AyxW40pKjh49gx2fbMXjYMERFRQXMDgA4/M0hPPvEk6irrQ2YDW63G19u/xzMHZMd5b7540NHcWFAi4mDkZSsX0WrJq0IwGhJKj93a+3Z9cVPBMWzGgASpualKYz/EZOm5c7qzUE7AvgMIREARKelO4kxR0TWxMrBhuqKoFnc0VSz9UwQMBUSggACBjKpk40g4LtYc/LmAPglJBW6apqGLz77DFX79kF06ZBM2tra8OX27UhJS0XPmMAUCNY5HHjhmWfQ3OS3kew/SE1VFbZv/VR23YE1Ji39iLOqIijXuQaClKxfRavUvo6AMZJUfhGMLc5xyekPgpAlIkuk5DZUbT4q2ybZBPUgoDPUrrPthOBYYCbcItkc3dSXLj/mcilZAL6QpHKMSu1r06bP6ylJX0hjzcmbA8aTkNzlIjo61lecPHkSzz/1NGqqqvx+dk1VFV54+hnphY968cHviMB48nRA2eVJmz6vp0rtayHR+btcStA5f0CX76i2Fy0O6uK/M4REAAAAIP5AUHJU0rTcJJmmyOBg+eKjLpeSBcIOSSrHulRzlw8CfOX8g5X29na8/uLfceK4/zKnJ44fx+sv/l1qe1+QYwQB6HD+LtW8FsBYKQoJO1wuJetg+eKge1NOnpJvhXjrtqiv8jshEwCwRm8LihK7MUuqMZI4WL74qMXkziLgSykKGeldOQhIzFrwQFdy/mc42dKCl1Y8i7ZW39eCulwuvP7i34Puzd8PdAQBWXkPBdqQQNA3Z2Fku9uyCox0SSr3ULt5ajA6fwDQTNosCD5HiPlfks3xGSETANS6o8sBiKWJiILuGuAMlWuWHTGb3ZkAfyVFISPd5TZ/MHTmoz2k6AsRrDl5c4j4b+hizv8MRw4dwvtv+f65896bK3Gwrs7n5wQpBMITXS0TMHTmoz0iWF1H4GvlaOSvLGb3tfbyx4N5q+LNgnJH7LH1H0u1xIeETACA8gI3gPcFpccE4zXAGSrXLDtiJnMmgJ2SVI5vPeVaE58xJ7Al4n6iq6X9L8Tn27b5dJlRdWUltn/6qc/0hwhd6jogPmNOVOsp1xqI9cKfj51mMmdWrll2RJI+6aRkzU+E8DUHvRdKkyJDJwAAAPHUCrFKt0u1RTJVRYsOm8k0RVomABjf3RK+trNnArpq2v9CrHr7bWiSp+8BgKppWP32O9L1hihd4jpgwPUPdu9uCV8FWc6fsRcKZ1cVLTosRZ+P0BST8CRRYvUtyeb4lJAKACwWtQRAo6D4T2Xa4guqihYdVjTOArBLksrxbSddqztrJiCE0v6fAvx7KDSFTJzMYeFxbrN7EIMngDAXhLUApAwWOPzNIVRs3ChD1XfYsmEDvvn6a1nq3AwUMfPDmoJrmZHKYeFxqoLBzMgm4I8Atss6zEd06uuA+Iw5UWGnItcCyJCkcpfC2iTHukJpXyJfwcyivqIhMjY2qNf/nkuwPzi/hzUn7zUwhN7mmZSra4sWb5Ntk2ySMh7pxxZ3GYDhklR+2EqmGYeKFnWayq0QSfuXg+i3jqIlmy72g8mZ8/tqpOSDMAdA5MV+/oeIjYvDgt/9BgrJie+ZGYv/9GcZnQYtAJ4hl3mRJ/e/g6bmTTSp+DMTJuo92IcwCA85imxBMXFUBn1zFkZGsLoawCRJKneTyzwlyO/8AQDWqblXQSNRH/GKo9h2l1SDfExIZQAAgMArxaXVoM8CAIC9/PFvyGWeAkBWL+mkCFb/3TdnoS7HEixIdv4MoEyCnrNpJ+CXjmLbFE+cPwDUlC495CixPQoyXcagj/QcfuL4cezduVuPiu+wb/du3c6fGB+DTJc5im0LPXUEB9bZPraX2CaBMBeA7Jnq5YCUiU6dqibgtPP/N+Q5/z2h4vwBACoJ+wgm6PBNgSHkAgCzSV0DQOhpRKDbkFFglmyST7CXP/4NFJ4Cxl5JKjMiNHXVgOsf7C5JX0CQ7vwJDzmKbZkAL5GgDwAaQDzdXmx7BgIOxlG0qKY25sAUBv9djxFbJF4D6NXF4L/bY+smO4oW1YiIO4psT4F4OgA5e+E7ZvtPAeEhGEHAtwy4/sHuEZq6CrLS/h13/qHj/GfPNkHBTwSlj/aIjl4n1R4/EHIBQOWaZW0smgVg9LOaG6ZKNslnONYVfq2RRV4QQJhsaY0M2SDAJ87/dOrWUVyYz8wPA9CzzWaPYtLGOooK9WUUVq5Ua4sL7wXwT1EVlXv3SunVbz11Cvt36/j6EV6vLS68V29ltKOosEwxaWN1/i2oYH7EUVQ4B98GFkYQAHQ4f0tr5CoQJktRyNirkWVKKNz5n8HaMGgqWHA8O+PNnSsLgnrz3/kIuQAAAMCmV0VFifCgTFN8zYHixw5qZJkCYJ8klVMsrZHvJ6TndZOkzy/40vmfobakcBkUyoH37ZhuEJ41cdjYmrVLZWVsuJVM9wMQyuUzM2oq9Y8IrqmqhsbCq313usJbHoAcB4uatUv3kpvHAngegLcBxS4GTXWUFC46+380ggAgIT2vm6U18n0AUySp3KeRZcqB4scOStLnHxgPiMuysE8KJMFcQPVDkDU7rwpAsoCsW4PFGmpfzoQpeQMVE9YTMFiKQkKJ2oSZdZttp6To8yH+cP7fYfZsU9KJhLuYcB+AdFw4UD7G4FUKmf7PV7O/E3Pys4m1IhHZMePHY+YsfTOwVr/zLjZ9JFaSwKCs2uIlpboMuADWrNzhTHiUQNcD6HWBH1MBVBDoOXvMgVd+KAvh9+9YkJCQntfN1APvg8WW3pwLA/s1FZPrymz1MvT5C+vU3P7QqBaA91fExFWOosLBkBTo+pNQDQBgzcn9E5h+KyRM+H+OItufJJvkcxKm5A00mVAOIE2GPgIXu5vphmAOAgL9YE6bPi/e5TJNZGAgKegLTTlFhHqNqbI2tnazP4Z+WLNzPwZogrdyffr1xfxf/UrX2cseX4RvDgrFyh86im0Zug73hNmzTYMaE8aZNEplxkCAIxh8mIjqLGb3Bm8GzgT6u+ZvEtLzupmj+D0GiaxaPx+VqoqMUHP+AGDNzvsNgD+LyBLwR3ux7Q+STfILIRsAJOXkD2PWREud7Y7x0akoKBDObQaKgdPnJZjd5vWQFAQwUKS4om+wlxf4fpC8l3S1B/KFsObk3gum572VM5lM+O/HHwOR+Mf337/6Ndrbvb/aJMLd9iLbS8IHB4iu8p1LyiiI0CzO9wjIkaSy0m12T65fsyz05kQXFCjWjc79AFJExFWoQ+qKn/DdCE4fEpo1AADsRYv3gLBZUDwpacMJWVGvX6lfs6zObXZPBrGUHbAE5GgW53tJGQURMvTJQvKEPwbj4WB8EHsEYY2ImKqqaG5qEj725MmTQs4fAEjV1gofHEAcRbanmOnnAGS8HATlxMARswvC2OxcKdH5O8jE2SHp/AEkbmrKhKDzB3hDqDp/IIQDAAAgDc+KymqK8kuZtviT+jXL6sxQJgOolqGPgBwOc74TLEGA5Al/TExzHSW2JyXoCginK6mFHq7OEyeEz210OkVFHTWlSw8JHxxgakuWPAvCPMgqDAyiiYFJGQURzU7neyD8SJLKajPRRPvaQrskfX6HWPuFsCzRczJt8TchewUAfNu6chBAtIC4yowhtSU2KU40EKRkzU9USSmHWDHk+VhjMbtvqlyzLGCL3mWnYIlprr1kydMSdAUUa07eJpFVrCOvuQbxffsKnXni2FFs3VwhIrrRUWzzumYh2Ohs1wFp0+eFu9zmdwBMl6SyxsRaRnXJ0lpJ+vxO0rTcJFapEoBJQLzBFdEy8OCqFSdl2+UvQmIozoU4uGrFSWtW3munx6d6i4mI5wLIl22Xv6guWVqbPCV/smbS1kNOEDDd5Ta/nTZ93s2BCAIM5/8DsNjwq+1bt8q25KKQ4KCuYMNRZHsqKWsBM/Fy6P9OnmkRRCCCgNPO/21IdP6KqkyuLrOFrPMHANaUuQCLOH8A9FooO38gxK8AAEBh7W/i0nRvqC/KqSlb7DCxlgFJ1wEArnOp5nf9fR3gizv/TuP8OwiNaWoAwAiZ4S8Xw16y5GnZNQGJWbnzJOjymBGzC8LcbtObAK6TpLIWZMqsKVvskKQvIAy4/sHuYL5XWAHD68LcYCPkA4Ca0qU7AIguKY/pHhYeUssbzkd1ydJaE2uTAYiMWv0+jGkc5nwnbfq8cCn6LkJi1oIHZN75AzwvlO/8zw+FzNwKDRwytnpCbcmSZ5npF5AUBBDRUn8FASNmF4S1NDSsZNBMSSprmSE61jmosLRF3g0gTkSWQFsdJUuCfWPlRQn5AAAAQHhGWJYxDyFeCwF0BAEgUyYAOVE5Y5rbbXpzxOyCMCn6LoBPCv6KC5dL0BVcMPtk0JAvUBQlZGz1lNqSJc8Sk7SJgUS01NeFgT5w/g6QKSOU66bOgsAQ7s5gaCtkGhMoOkUAoDbhdQDHBMWHWbNyZaXGAoqjaFGNibVrISkTwKCZzQ3Od32VCZCe9gfP62Rp/28hN38A+RvxfIEL7VrILUXxhI7vFj+IELgOGDXqQUvzicY3ZDl/Bg5oqjmzM7z5A0BizoIZEF+3ftwVcfJ1mfYEik4RANRttp1iEm8JBOHXEs0JKNUlS2uZkcXAAUkqp7tcln+OGvWgRZI+AD548wfmdMo3/9PYywsbGLQ+0HZ4QLG9vFDO1r4gxFFc+FywZwJGjXrQcjQ26k0Q3yhDHwMHwMg4UPa4lNkjwQCxJjwikwkrQr347wydIgAAAM2NJwG4xKRpQmJWfsi3LZ2htsRWbVKViQDsUhQS33g0LlJaTYBP3vw71u92ahRGAYJ73jiDSGicaigRzJmAUaMetByNi3xDlvMHUMeqeXInSfsDAAZNzZsoMlr7NG4LKDQHip2HThMA1JXZ6gl4R1SeSOs0WQCgoztAVZANwQEy52GGy21+XW8mwHjzF8desqQCOr7jvoaAlY6iJZsCbYc/CMZMwGnn/08AN0mwCQDqVAWTO9ObPwAoGoTf/gl4u6poiazsasDpNAEAAGjgJ3SIX2fNWjBSmjFBQN06W6WqYDIAWcs5bj4aFyl8HWC8+evHrbU/KGsMtGTsZrM7qEbe+pqgygTMnm06Ghf1EoCbJdgCEL4Bc07dOlulFH1BQnLm/Muhox2SiZZKNCfgdKoAoLa4cCPEWwIJCi+UaU8wULfOVqlClRoEHIuLfA0ZBV4NkTLe/OVQX7r8mKrRTQCC6Z79BCv4kTeb9zoLjuLC5wiYi0BmAjIKzEkNCf8A+CcSbACAepXVax0lhaLL1oIWzaT8CuLPoE87W4arUwUAAECExcLCjFuTcvKHSTQnKKgrfmK/zCCAgdlWi/MfngYBxpu/XOpKbF+qUEcDCPgDmoH9YB5fu862M9C2BIqO72KAMgGzZ5usYc6XGJgt4WwAOMSakhPKC24uREL2w4PB+LGoPBEtkmlPMNDpAgB7dN1K4P+3d99xTpXZ/8A/5yYzIG0GUGxDEhArdmyUXVGSILK4trFiX1BUJAmW3f3+1LHsrgWSAFas+7WugxVRSYKiUlWwo0iZJIwofYY+Jff8/phhv4oCM/c+yU0579eLf2Cecw+Q3Ofc5z4FRoetbMx8h8p8skV1dOISzaYPgrpNWs532Gue31MRIE/+6VEdnbiEGrgfA48BaLQghQYwHrFz8Yn5+KTYWpaMBAyssDs2HPgCGJcouCYAXqnZ9FOTM8YvUhMvu9hgvwvGt79fGi9ZMUVlPtnA4B7IWWzRIi7p1beOgGEGI/Qu6dF/Sm3V3LwbzqxZOn9dl0NOnsZM5wHoaDYeER1Zaqs7pLZP9zewaNFvbnzK9/YHri/kJ/+d1cTnba9dPm9al0NOfkVnFBFRGYB0b239EwMv2HW6PD4j9NyG5bMtOzgq29Qsn/dZ54P6rgIwFCrODgDOLO3Vd03tsnm/PdChvNzmbGjzPBFdZPI6O/yk2fj0qvcmLFYUL6s4Bvt7E8PwmQ5M+Fvt1KeMvl7OWjm/A97vaTr4wrYcoAOMtCfglXg0dKHqvLKFyzv2MIb+ARj7qYlILyVKV1yGysrUjt9R3/nTqHg0aOLchwJQUaF1n117vI3QCzrtp2u8r8akMfhWI+EI9IBOrGs6rYKGn3TQ0mS/jp+jokLFUHfecnn81zHwCNJ1imB5uc1Z0/05Ze/8CT8TtNPikfF5t4PjDi6P/xXjr0l4ZZE91dPKU1LTJS8LAABwev23gPGAweasaXRc1fTgl0qTyiI9zhhzqJ6i940WSTsj4JV4Q8mlmFnRmJa9/WXY35jycpuzpszQK4JEabX9l0WdaDmnx/cXgB6HmteszMxjkrHwpOb/z2cAXKYgLgCsZg2n5/Mcju7em47U2PYljP5fMN+SiIXz7v0/kIdzAHZo27boMQAbDDYnXec7VeaTbarem7CYdZsHwCoV8Ri4wFlU+4zD7Rut9p0/jZLOX+SadMwJcLh9o501Zc9CXee/inXttHzu/AFA0+33wHhft6Ftu+K8HXnM2wJg8VsPbCIiM/sCnO30BvopSygLJWeMX8S6djoUFQEAhjf/m8uwvyh48WjoMQKuh7oiYCKA4QpiAU2d/+n5OuFvB4fH19/MrohENHHxWw9sUplTNsnbAgAANL0oBGC9weYE5vHI49ckQFMRQKQNBGXVefMMwo3S+Ytcp3iJoCprdEq5873zBwAC3W+ieY1eVJxXG//sLK8LgOWx+2tBCJkIcYrT41e1p3bWikfGf0/QTsuSIuC3k56EyGGJaPhJgK9FdhQBa1KMQSsiE7+xOpF0c7oD5wHobzgA07jktPuMvkbOCXldAADA1vq6MIDVJkLcp/okvGyUJUWAdP4iL2VJEbAmxRhUHQt9bWEOmTGwwg7ie0xEWNe2nd3MK+SckPcFwJqZj2xmUNBEiEPWde7wF2UJZbF4ZPz3WkofDGCtBZeXzl/kNYuLgA3Q+IyC6PwBOItrRwI43Gh7Bj+Qz+/+d8j7AgAA6kh7CCYmujFxRU/3bSUKU8paVTMmfKVp5EZmiwBmwnXS+Yt817Q6gFRNDGyptZpGpyWmhxdm8JqW6em+rQQMM6u4VtWRvSBWHhVEAbAqMm4LA/8yEaJbCvV5vSzwl6qmB79sLgLWZeByzITrkpHQ5AxcSwjLxaPBxwk0CpkpAtZpGrnzeU+TnTVqdRUAuhltz8C/VkXGbVGXUfYqiAIAADqWljwK42cEAITRZW7/Ueoyym7NRcAgpLcIYBBulM5fFJp4NPg4CCOQ3tcBNTpwRiF1/o5BY48gphtMhKgqtjcWzHbjBVMAfFtZUU9E/89ECLvN3IqCnFM1PfglgdM1EiDv/EVBS0RCT4GQriWCNTrgWREN5d3+9bulcRCA4UnbRPS3fNzyd1cKpgAAgHgk+AqA+SZCDHK6feeqyicXxKPhL6CxFwylE2IINEo6f1HoEpHQU807BqrD2ASNBxVa5+/w+s4n8GCj7Qn0aXMfUTAKqgAAwLqGW0xFIBp/wLCR7RTlkxOY6QSQ2lPmmPRjkOebLAnRAqQDx6iNiA7MdILSmFnugGEj2xGTyf36+RZkdnKm5QqtAMCK6aGPwfSGiRAue13725UllOWcXv81xHgUqjtrplFOr1/VmQFC5CJyegKTCLhOdVxiPOb0+q9XHDdrFW1rXwHAabQ9gd+KR0MfqssoNxRcAQAAmj31VwANRtsTY2yPQWOOVphSVnJ4/SPBeALp+pwwRjg9gUmQIkAUHnK6/Q8BrHb4/xfxwXjI4fWPTFP8rNFjcOAYEPwmQjQy46/KEsohBVkAVL03YTEAM7s8FaU07QmUl9tU5ZRt0vbk/xt8g8vtfyz91xEia5DTG5gAQrqf0PN/JKCiQtOZHwVgNxqCiR9KxMLfKcwqZxRkAQAAbfcqugvglUbbE3CSs7bsWpU5ZQun138NGJORoc8HE0ZKESAKBLk8/jCYR2fqemA8lK9FgGNWzQ1g9DURYrVWj7uUJZRjCrYAWPzWA5sYJod9GP8qO91/oKKUskKmO/8dmDDS4fFlYMRBCMuQy+MPM3BTpq+bj0WAc7BvfyIys98/CHRbfGa4RlVOuaZgCwAASEbDzwOYbSJEJ7uN82YpW9rf+e8Bga51eH1mzm0QIms5vL6gBZ3/Dnk3J4B0ehyA8S3aCXPj0eC/1WWUewq6AADAKcYoAI2GA4DOcrgDlyvMyRKZe+e/e8Tkc3h9BbXhksh/Dq//X8TksziNvJkT4HL7r2JgmIkQukbwocCW/e2s0AsAVMdCXzcPeRtGxOFcfhVg9ZP/zojJ5/T4xludhxAqOD3+cZQ9s8xzfiTgwCGjy5hgaqSQwU9UTQ99oiqnXJUVN3yr2VD8dzMTAgF0ttnMFRFWcbgDI4ihagIeA9imIA4ACji9gQfVxBLCGs2f4bGKwm2DmidWIsZjDndghIJYmUa2xqInAZQaj4CfUdz2b+pSyl1SAABYHru/FqyZfTd3ptPrv0ZJQhni9PqvIWJlnT8zjwGRW9m2wcw3y0iAyFVOj/8fYL5ZUbgtxHwmM10LVUUA8eO59jrA4fWPMLPdLwCwjjHJafdtUJVTLpMCoFkiFnzV5A6BAGN8j9PHGt6NKpMc7sAIhcP+DPDoZCw8KREJztFtGApgs4K4ACjg8gTuVxNLiMxwefz3Afi7onCbdQ1D4rHwzGQs+ATAo6GoCADjoVwZCXB6b+5BOsxt98t4OxkLFdR+/7sjS65+oex0/4E2GxYB6GQizOxEafWpqKxMtaIN9ThjzCGsa8fpOu8Dos4g7qwBXXQm1hh1IGzQmX9k0hLE/E0yFqqCwZuAwx0YQcSqtuH93VP9enjH/FFn7R0A7RVcAwTcH4+GsuU9au4oL7c5a8oMTXJNlFbbW/k5Ftgx4U/ZO/8tGulnVkUmfPTL33R6/deD8RCUjd7RtU3FhSHk9N7sYqSOhM4ujehAMDrrxMUAEYg3gGkDmDdoGq3RUrRw+YzgErTm/jWwwu4sqv0QQD+DOQLAZhvrvZfHJiRNxMgrUgDsxOUOjGIyt7SPmSuSsfBuN5foPmjMiaTROQQ6GUAftH45y0YwPiIN7+s63kzGQstb0igTnf8OLo//VAamQVERwOB/JaNhVU9VhUEKgIxyevz/gLon/y0EDN3VHvVWFgEOt7+nBjqLwYNA+ANaf/+qBbAAwDwm7bVkZPyC3f2wy+O/i4E7WnmNX2HAl4yGJpiJkW+kANhZRYXmnF37EYD+JqI0MnhgMhr+1R4DPc4Yc6iesl0K8MUAepnK87cWAPxMkT313NJ3J238vR/IZOe/g8vtG8hE0wCoOkHxn4lo6H8Uxcp/UgBkjNPruxdMqj6bW4l5aDwWnrn7a2auCOg1ZHSnhkbbZQBdhaaHFmUYWKIBL2k6vbB8RvCHX/6Zwz12AJE+E4DhrdcZ+CRZWt1PPs+/JgXA7yjz3HSwDbYvYK7TSlADHxufGa5xDPb31nTcwcD5SPe8C8YmaPS4HdqDyyLjVu/4bdWdPzHdEI8FH23JDzsHB06Dzm9DVRFA/I9EJPz/lMTKd1IAZITTE7gbYFWnhG6FRn9KTA9+0JIfbh61fBhpKgIO8t7crRH6LdD5WhA6KrjG7ujMXAm23Z2cMX6Ra6CvlIvoC5g46Q/AdjAfX6j7/e+OFAC74HT7bwRhkpkYBExlYAuAC5D5CZdbmfkBfQs9oLWn4VZ1/js4vb7TwTQVykYC6J5ENGhqSLAgSAGQdiqGp39hK4iHJSLh91uVQxqKAH0LP2/vSLcx8y1QN4LXUjpA/yFwB5Mb/gCgsYloUHYY/R1SAOwaOb3+CBhuqxMxh1cCtD8s7Px3cHgCgwg8FcBeCnIBAXfHo6E7VcTKW1IApJXLG6hgZlWfwW0MGpaMBmcYykVxEQDwTwAdoCCWZRj0UbJ/p9NQUaFbnUs2kmWAu8apRlwJIMfXi9IBUHdDGG208weAZDQ4gxlnQdFmQQzc4fIGKlTEEqK1HB7frQo7/zqAzjfa+QNA03eTRwJQ0dlRrnf+ALboGl8jnf+uSQGwG9Xvh34kgt/qPLIAAzw6EQ0/bDZQMhaKMWl/hqoigPlOh9snowAioxwe360EUrU/RR2Yz0tEg++YDZSIhp8E+FqoKQJyGhMC1dNDS63OI5tJAbAH8Ujo36Y3CMptTKBRKjr/HZKR8VENOBvAdhXxiKjC4fHLfACREU534H8Udv7bNeCsRCw8TVE8JKLhJwl0PQr7oJt3k5GQ0X0NCoYUAC3AbYqvBlCIm0cwCDfGo8HHVQeuioYiGvBnqCoCgLukCBDp5nT7bgbxvYrC1TNReVU0FFEU77/i0eDjIIxAYY4ErLLes5YAACAASURBVKYG+9Uo7AKoRaQAaIHktPs26BqGAyikCVEtWudvRjqKAKfHp2oplhC/4vT4x4JI1QFV9Uw4PxkJvq0o3m8kIqGnQFA1JyBXMJivjs988GerE8kFUgC00IrpoY8J+IfVeWRI2jv/HaqioQixrux1AEB3O71+2SNAKOX0+McCJveh/z/NnX9oqqJ4u1RwRQBjnMrXKflOCoBWiPcvuQuMFm3OkcMy1vnvEI9NmE46zoGqIoBxjxQBQhWnJxCAws5fB5VnovPfoYCKgAUdOpfI974VpABojYoKvbGo8XIA66xOJU0y3vnvEJ8Rek95EeAOyJbBwhSX1+8HWNWR1PU6qHxFNPiWongtVgBFwGbNpl/6bWVFvdWJ5BLZCMgAp8f/HIDhquN2KukEZ48e2HufbujUuRTFxcVIpRrRUNeAdevWYvXPPyNZFUd9fVo+42ZPBFPC4fUPI8YUAMUq4jH4tmQ0/ICKWDlJNgIyLFeH/XdH8Zbgv1JcXAyHy4V9998fXbp2RVGbImiaDY31Daip2YB1a9YgUVWFjbW/e1SJOUxvJGLBc9QHzm9SALSSyx04hYlnQ9HoSYdOHdHnpJNwTJ8+2He//fb483oqhWVLluDzzz7DN198iVRK2f35R2oo6RWfWaHoXbxx3T2BszRwJRQVASDcmoiEVE3eyi1SABji8vr9zFC1faxlT/47611eUbyppnYpAd1VxLPZbDjy2GNw/IknomevXtBsez6vZ9VPP+GLhQuxcP4n2Lxpk4o0AICJ+fQ9HZ4kfk0KgNZoOilwAYBjzYZq164dBp1xBk445RTYi+yGYtTW1GBmJIpP580Ds/kVLwzcmYyG7jYdSAGX2/9nJrwCVUUAcHMiGlI1lJs7pABoNZc74GPikKJw9cS4IB4LvakonikOt280EU00G4eIcOIpp2Cg14OS0lJDMRoaGvDpvHn44L3p2Lp1q9mUAODbRGn1MYX4mTXK8PGKhchZfOwlaNpgw5Sjjj0GV4y8Fj0P7gXNZnwgoW3btjisd28ccvjhqFq2DNtMfokIOGnvXgOe3LBszhZTgRSoWT5vcedep3wD0HlQ8zn1lh7Ub1Pt8rlzFcTKHb17a6XbOxnaH6G27ca7sWhRQa2ldngDNwEcgpqHowYivjAeDWdF599ryOhOOtteBdDeTJyu++yDK0b8BSf174e2bdsajmOz2dDd6USfU07C+nXrsGbVKjNpAUC3zttLqmqWz/3CbKBCIZMAW6q83AamCjMhiAhDzz0HF11xBdp3MPUd/JUyhwM3jg3g8CN7mw3VvhH6LSpyUiEeCb8B5osANKiJyOObJnUJ8VsOt280MYehqPMHcGE8Es6aXUQbGuy3ANjHTIzDe/fGDQE/ypxmTuf9tfbtO+CSK6/EmWf/GUTm/ukZfDvKy+XBtoWkAGghZ03ZWQB6GW2vkYYLL78M/f7wB4VZ/Z/iNm1w8VVX4bgTTzAXiPm6XkNGd1KTlXmJWPg1lUUAM4Iud8CnIpbIH063/0YimgBVnT/zRYlo6HUFsZQ49KxbO4Jwk5kYx/bpg4uvvgptTDz1707/U0/FBcMvhUamuqWezfdq0QJSALQUY7SZ5n++sBxHHWt66sBu2TQN51x0kdmRgA4NjbbLVOWkQiIWfo2JLwFg6F32zpg42DTUKwTg9PqvB2Ei1HT+jUx8SSIWfk1BLGXqtjYOB2C4sD/siCNw7iUXw6alt8s4+vjjMaz8PLNhblSRSyGQAqAFDvIGuoNwqtH2pwwYgBNOPlllSrtk0zRcMHw4unYzM9JHVylLSJFkJDyFQaqKACLmsMPtM1XUidzncgdGgfEQVHX+oEuSkfAUBbHUIhj+Tnfde29ccNnwtHf+O5zUty9O7NfXTIiBB3kDSlY55DspAFqgUdcvhMF/q7336YYhf87siFRxmza44NJLzbxP69P99FsOUpmTCslosJIZl0JVEUA0wen2y9NCgXJ5/Ncx8cNQ1fkzLk1Gg5UKYinl9N7cg8GG3g0SEcovvTRtw/678qezz0HXvfc22lxrvmeLPZACoCWIhhptOuy8c2G3G1vmZ0aZw4ET+p5iuL3N3piV79GSsdArRDQciooAECY6vX7TKztEbnF4/SMZeASKOn8iGp6MhV5REEs5hj4MBv+efU46Cd1d6ib8tZS9yI4/nWtiXx+iIeqyyV9SAOzBPgOv7wCgn5G2rp490evQQxRn1HKneT2wGS0+GKepzUadeCT4HwJfDjWnMxIYD0kRUDgc7sAIYjwGNZ1/igiXxSPB/yiIlRYa64MMtbPZMNDrUZ1Oix1y+OFwuFxGm/c/YNjIdgrTyUtSAOxBe3vxCTC4Gc2AgYanDShRUlKKow1OPGRgALJ4o6h4NPwSGEqLAJc7MEpBLJHFnB7fX4hYWecPxuXxSOhlBbHShRhkaOlR76OOQucuXVTn0yoDBg402rSNrb59H4Wp5CUpAPZEo+OMNGvfoT0OOeII1dm02rEnGF4W2LnH6WMdKnNRLRELvQjiK6CoCGDih12ewLUKYoks5PT6rgbocai576VAfEUiFnpRQay0af4OdzbS1vSSYgUO7X0E2rUz9iBPbOzeXUikANgD1ulII+0OPvQw2FqwL3a69Ti4F4rbtDHUNmXnoxSno1wiEn6BQVdCVREAftTh9Y9UEEtkEZfbfxWYnoCizp9BVyYi4RcUxEoro99he5EdBx1s3evL/+Zht+OgQ4zlQYysv39ZTQqAPdHY0FOw66DsmERv0zS4evY01JZYz/zsHwOS0eDzDL4KiooAYjzmcAdGKIglsoDLE7iSCU9CWefPVyWjwecVxEo7o9/h7g6n4TNKVOt5sLH91xjG7t2FRAqAPWGUGWm27/57PtkvU1pyyuDvYeBAxamkTTIafo4I10DNeedExI85vf5rFMQSFnJ5/Vcw+CmoudfpzHR1Mhp+TkGsjGAiQ/evbgbvGenQbb/9DbUjGLt3FxIpAPasxEgjqyfP/FLnrsZyIYKxY74sEo+E/k0gVUWABsbkpvfGIhc5PL7LmKGs8yfQNclY8H8VxMoYAhu7fxm8Z6RDF+O5GPq7FxIpAPbM0AyUTG+csTtGc2HGXopTSbt4NPis2iKAnnR5/NcpiCUyyOUNXEigp6HmJEkm0PXxaPBZBbEyiply/v5l4sRBWQa4B1IApInJAy2U0gxu4Ukg62cxGhCPBp8F8Qgoeh3AwMMuT+BKBbFEBji9vkuZ+QUAKl5i6yD+SzwafFxBLAuwoeOcjd4z0oGM55I9f4ksJf9Ae8RbjLSqq6tTnYhhdduN5UKMbYpTyZhEJPy0wiJAY/BTLq//CgWxRBo53P4LwPQsVD35M92YiISfVhDLEsS0wUi7+iy6f5nIZZPKPPKRFAB7RBuNtNq0sVZ1IoZtrDWWC1Nuf4ESkfDTzHQdAENPQTvRmPG0wx24XEEskQYur/8iIrwINU/+zEzXxmPBRxXEsg6xoQJgU62h215a1NYYvpfm9P0rE6QA2BOCoS/QmlWrVWdi2NrVhnP5SWUeVkjGgk8wQVkRQMRPOzy+rDouWTS982fGc1D05M+E65Kx4BMKYlnL4AjAmtWrVGdi2FrjuaxXmUc+kgJgDwi8xEi7ZFWV6lQMSxjMhUFJxalYIhkJTSbgeqgpAmwEesbhCQxXEEso4HD7L2Dm56HoyZ9Ao5KR0GQFsSzHgKHqP1mVABubPqBcoipuqB0bvHcXEikA9oCZFhtpt2SxoWbKrf55FWpragy15ZRtoeJ0LBOPhh4jphugrAjgZ51e36UKYgkTHJ5AORFUTfhjYrohdyf8/ZZOqc+NtNuyZTN++nGl6nQMMXov1QzeuwuJFAB7QMSLjLRbs3o1fqyuVp1Oq32xYIHRputXvP/gcpW5WC0eCz4Kwo1QVASA6d9Ot/8SBbGEAQ6v73wCK3vnD8KNOf/OfyfV0YlLAWOvMb9caPjeoUx1Mol1a9YYapsiMnTvLiRSAOxBfb1tFgx2GPM/nq04m9ZpbGjEwk8+MdSWwAugpqPMKolI6BGAR0NVEUD4X5fXf5GCWKIVnG7fucSkrvMHj276bOQdJvBnRhp+/umnqK+vV51Pq8ybZfgeqrPGs1Tmko+kANiDlTPHrwXwlZG2ny/4DBvWWzcP5ZN5c7Fpo7HZvAxtnuJ0skYiGn6YmcdAURHAjOdc3sCFCmKJFnB6/OeA6GUARQrCMRg3JaLhhxXEykrMNN9Iuy2bt+DTOXNVp9Ni69auxVdGRzAZX1RPD8kkwD2QAqBFeIaRVnoqhWlvvKE6mRbZsmUzPnhvuuH2BP01helknWQsPImJfFBTBNiZ+XmH23+BglhiN1xe39kA/gNFnT8T+RKx0EMKYmUtIn7VaNv3IxFs3mTNarppr7+BlG5sGw8iiilOJy9JAdACOuglo22/+/obfLkg83Pp3qycgq1btxpt/l08Gv5CZT7ZKBkJTiSmgKJwdiK84PAEyhXFEztxuf1/ZiZ1nT/gT0aCExXEymrN32VD78O3b9uGNyorM74i4PNPP8PiRcZf4TPjZYXp5C0pAFpgRTT0GQx+gQDgzcpKrPopc0vqZ8/8EN9+aeitBQCAUThfnngsGCaCuiIA/KLD6ztfUTzRrLsncBYTXgFQrCIeMQWS0dAEFbFyAsHUQ8ysmTMVJrN7P69cibemTDERgb9JxIKGVj8UGikAWor5GaNN6+rq8OzjkzMyH+CrhQvx7ltvmQmR4pT9BVX55IJ4JBQCaKyicHZietHpDpynKF7Bc3j9wzRwJRR1/gCNjceCYTWxcoXtBQApo62nT33bzIqiFlu/bh2efXyyycmHmuF7daGRAqCFiopSkwEYW1CPpu14J0+ciJ/TOBLw6Zy5qHz+RZPDdfTKivcfXKYsqRyRiAaDYL5FUbgiEL/kdPvOVRSvYDndvqHEUNj54+ZENBhUFCtnJCLjqojYcGHPzHj1hZcwf/YclWn9ys8rV2LyxEmGJy43W992L3vu7+CYIVIAtNDSdydtBGiSmRgbazdi8oSJ+PwzQ6tydqmhoQFvvPIK3qishM6mzr7RWad7VeWVaxKx8DgQblUUrghELzs9/nMUxSs4Tk/gTBC9CqCNkoCEWxPR0HglsXJQI9E9ABqNttdZx1tTpuD1/7yChoYGhZk1LTl8fMJEs50/mHni4rcekDMAWignj3u1SseDT/lSY/wFJs6ZTqVSWPT111i5YgXKnA60a2fuyOrvvv0WLzz1FJb+YH7XS2Z+JTkjlFcbobRW7bJ5c0oO6redALeCcDYA53budcrXNcvmfa8gXuv17q2Vbu90h5GmtW033o1FiyzZC8Lp9Q0B8DoUdf4Mvi0ZDT+oIlau2rhs3vrSg/r2AHCcmTgrq6vx1cLP0WXvvbH3PvuYymntmjWY8uKL+Pj9D5BKGX5DscMarRHDa+LztpsNVCikAGiFjcvmbSvp2W8DEYaZjbV2zRp8Mns21q1di46dOqGktLTFbRsbGvHt11/htZdexqwPZmLbVjWn9hLRig49+ry3qerTnD0GWIXa5XNnd+7Ztw6kqgigczv37Pt1zfJ5md+aNAcLANcg/xkgeh1AWxXxGPTXZDT0gIpYuayn+7YSptRFAA43G2vbtm34auFC/PDdd2jbti267r03NFvLB5ST8Tgib0/D1ClTsGa1sZ3+foP4psSMsHUbF+QgsjqBnFNRoTln184GcIrKsF337opehx4KR48e2KdbN3TsVILi4iIwmpbibFi/Hqt/+hnLly3FssU/YPv2tBW51dDo8sT04AfpukCucHkDf2PmfyoKV6+DyldEg6ZmaLZaebnNWVNmaNg3UVptR2Wl6cey1nC5xwxm0t6Aos6fiP4ejwT/pSJWLnN4fP0J9DwAVzrit91rL/Q65BD06HUQuu23Hzp36YK2e+0FAlBf34BNG2uxetUqJKviWLp4MdavW6c6hTmJaGgA8nD30nSSAsCAssH+XjYdCwB0sjqXNGECJrUvLbnl28oKa/cCtZjT678FDFVPj/XEuCAeC72pKN6e5VAB4PCO9RDrbwLYS0lAwu2JSKhg57QAAAZW2B1FG8cS+B6o2T8hG23WbPoJVe9NkMN/WkkmARpQPT20FIxRVueRRsTATZtqaj8uG+zvZXUyVkpEQg+CcLuicMVMeMXhDfxJUby8IZ2/ek7vzT2cRbUfEvg+5G/nD2ZcI52/MVIAGJSIhV4EmVsVkO0IOMmm43OXOzAKBTxalIiE7mXgTkXhiol5itPtG6ooXs5zuP1upZ0/+I4C7/zJ4Q6MAKe+ANDP6mTSihFKxkKvWJ1GrpICwIREv04+AvL9w9eBiR9xenwfFfJoQDIaupuI7lIUrg2IXnN4/aYnk+a67oP9fyDCG1DU+TNzRSIavkdFrFzkHOzb3+Xxv0nEk5G/ryh3eDkxoORmq5PIZVIAmFFRodvtjZczELE6lfSjATYdC5we319QoKMB8UiwQmERUEyMyublbgXJ6fWdrul4D0B7FfGI6K5kLKzq/yfnuDyBK6HTIob5VUrZjkHTO5SWXIGKClMbnxQ6KQBMWvrupLpie+NZBTASAACdAHrC6fFP6+ke47A6GSvEI8EKAu5WFK4NmF5zDfKfoSheznC5fQPBNBUm9tT4JQLujkeCFSpi5ZoDh4wuc7r9Uxn8DICWryfOXS93LO10VqFPUFZBCgAFlr47qS7ev+RiAvL+ZLFmQ1KkfetyB3woLy+4vSTi0dCdYKh6x9yWNbzuco8ZrChe1nO5fQOZ6G0o6vwBuiceDamao5E7ysttDrdvtL3BvgiEwphYyggl+pdcKp2/GgU5lJtOTrfvXBA9hcKoxAHgC13XR66YMeFTqxPJNKcncDfAqlYI1IH5vEQsPE1RvCZZtgyweT36ewA6KAnIeDARC6navjln9Bg05mhd0x6H4v1IshZjExFfG4+GDZ9qKH5LRgAUS8TCr9l0OhnAPKtzacYApgBI11GEx2qaNsfp8Y/b13uzkne5uSIRDd7BYFWbzLQBUaXDO9ajKF7W6T7Y/welnT/wz0Lr/A8YNrKd0+1/QNe0BUhf57+x+ZVmtrxfn5OiVB/p/NWTAiANls8I/pDoX9If4BEAlG951VIEfK2RPjARDZXbWD8O4FlpupQdwNg2nPrO4fZfkKZrZKVkNPx3JtynKNxexPqbDrdfxRbEWcXhHjtA0/EOFHX+TLgvEQ39j4pYucLhCZQXbW//HQi3oOk7pxwDnzDjuHg0dCF0HgDgi3Rcp4XWgviaRDQ0oDo60fxhJ+I35BVAmpUN9nex6eQDeDQy9VqAeBkz7kr2L33hV7NkB1bYXUW1tzPwP0jvORAfarp+U9WMCV+l8RpZxeUJ3M9gVU+j2xg0LBkNzjAdKQteATg8vv7E9C4IHc3GAgAC7o9HQ39VESsXlLn9R9mACSCclsbL6AQ82HX9ltsXLJj8f0f9VVRozjk1FzPTnQQcnMbr/9IGIpqoFxVPSE67b0OGrlmQpADIkF5DRndqSNmvBeMqKDiM43foAD4g4ofi/Urf2t3yGJfHfyoDzwMoS0MeOzQCeIyL29xRKF9ip9v/QPPTmQpbQTwsEQm/byqKxQWA+s6fHohHg7epiJXtHEP/2pka6u8C8yik6Ym/2U/MuDwZC8V2+RMVFZprVu0wJowGcBrSM3q8CMzPFBWlJjcdvy7STQoAC3T3+E/QgIvQdOTs0TD+/1AHxhyA32ksSr3847uTqlva8MBBN3S1U5snQXy2wWu31Fpmvrtj59LHC2HmrtPjHwdgrKJwW6HRn0wdzGRhAeAc5OsLjd6Dqg1piMYlIkFVBVbW6tNnZNHazu2vBeFOAHun+XLT7GS7ellk3OqWNjhwyOgye4PtIoDOBKEfjB/ZrAP4CkQxBr2cjIxfYDCOMEgKAIsdMHDs3kVF+h8AHE7EhzLoYDC6AtwBoPYAdBDqwKgBoRqMBDF9A+LPt5Hts1WRcVvMXN/lCVzJ4DCAEiV/oV1byqC/J6PBKcjzE7ucHt94gAKKwm0l5qHxWHimodYWFQDKO39gfCIayvdd38jhCZxP4H8CSO+um4xNIA4kouEnzYTZ13tz+704dQKYjmPiI0FwglEGQikYbQBoAG8BaDOAtUS8lJkWE/Gi+nrbrJUzx69V8xcSRkgBINDTPcaR0rSnwMjE5LP5Gum3VkUmfJSBa1nG6fYHQfArCreFgKHxaOjDll/fdzgTeQnwAjjT4HXfYSCikTY9Hhn/fUsbubxjTmbWpkNVUckIJWIhVQVVVurhHfNHnbUHAJycgcvNJBtfFX8vHM/AtUQWkwJA7EBOt/8GEO6Hsg1adoPxNkB3JGLBz9N+LWuQy+MPMTBGUbwtGuln7q5w6jVk9D6NDUWXgvhqBo5SdN0mhK9Ip2fsRQ0vLH130ppd/Zjqzp+Jw8lIWFUhlXWc7sBxAN+doY18tjHwt2T/kkmyha4ApAAQOynz3HSwDbZnAPTPwOUYwBuarlfk6YoBcnn8YQZuUhRvs67hzBXTQx//8jd7usc4UmS7FeBrALRVdK1d2Q7G05quPVD1/vjEL/+g+6AxJ2qaFoGi1S4ETIhHQ37k4Suj5o18KgCcjUzchwlzNU2/So7NFb8kBYD4rYoKzTVr47VMfB8yc6KYTsCruoa7ktND32bgeplETm9gAphHK4r33yKg15DRnRob7XczMApAsaL4LdUAoseoXr8jPjNco7rzB9GkRCQ4BnnW+TsG+3trOu5k4Hxk4v7L2ATg74kBJY/IU7/YmRQAYpfKTvcfaNPooQysFNhBJ2AKM92XZ68GyOkJTAL4BiXRGJsI+CcTjwboACUxjVtFjDATboO6fS4eSkRDNyGPOn/nYN/xpNNfGTgPGdqAjcBvNdhTN7RmdZAoLFIAiD1yeP3DwHiYgO4ZvOxsJtyfjISmZvCa6UROj38igButTiSrEZ5IRELXIk86f4d77ACCfhsIQ5Gp+y3hZ9bptmQs+L8ZuZ7IWVIAiBbp6b6tJEUN/wD4OqR3F8GdzSfi+/a0uVGOIKfX9zCYRlmdSFZiPJKIhW5Ernf+FRWac3btnxn4KwEnZfDKKRBPpnr8PT4zXJPB64ocJQWAaBWXx3csA5MAGpDRCxMvY9aeQHHx5BzfWZCcbv9DIFxvdSLZhZ5M9O90bS4XeYeedWvHbdsbLiaGD+nZ7XOXCPQpKDU6HpkwP5PXFblNCgBhiEWvBXa8/36JweFELPxdRq+tjhQBv/ZUon/JyFzt/B1uf0+NMJKBkQA6Z/TihJ8ZuDPZr+TJXP33E9aRAkAY1mvI6E4NjfY70LTMrSjDl9cJmMbEjyb6lU7PwZsfOb3+x8EYYXUiViLG5HgsdB1ybdi/6ZCcwcQ0ioGhyPzJqg1gPFRU1Fgh++YLo6QAEKb1HBQ4RNf43owtbfoNXkmg52Djx3Jsd7PCnhPA9HRiQKcRuVS8dffcegCh8TICXwughyVJEGIpHYHqWOhrS64v8oYUAEIZh3vsACJ9HDKznenvSYHxLmuYnKwveRczKwztgZ9RFRWac9bGJ0B8tdWpZFjODPv36TOyaHWXDkM05hEgDEFmJ8H+0nxdwy07bwQlhFFSAAjlHF7/MGIEke4DTXZvPTGm6NCeS8bGz0Z2DzGTw+N7lEDXWp1IhjyT6F/yl2zv/Js37bmMgSsB7GthKklmuj0ZCz6H7P4cixwjBYBIi97lFcWbampHEfA3WHvzBBiLoeF5wPZCIjKuytJcdqWiQnPMrnmKQFem6xJt27ZF9x4udNt3X5SWdoa9uGnaRmN9A2pqNmD1z6uQjMdRt317ulIAsrzzd7j9PYn4UoCGAzjE0mQIPzPoXx1LOj1WCEdpi8yTAkCk1QHDRrYrqmt/Axi3Iv1nm+8JA/gEhFdZx6vJWGi5xfn8WkWF5pxT+xwYl6gKWVxcjKOPPx7HnXgCHD1c0Gj3c9VSuo4VVVX4/LMF+GrhQtTXK+x3mF5IDOh0ebZ1/t1Pv+UgsjWcB9B5BJwI6++La8D8QMNeWx9ZOXXyVotzEXnM6g+6KBD7DLy+Qzt72zEgHotML5XaFcZCEF616TRl+YzgD1anAwBOj/9pAFeZjWOz2TBg4Knof9pAtG/fwVCMLVs2Y9b7MzH7ww+RSqXMpgQQXkxEQpeaD2Seyzv2MNb5PBCfB+A4q/Npth7A+K0NdRPXzHxks9XJiPwnBYDIqJ7u20p0rcHPzDchWwqBJt8DmAbid/Zet/XjBQsmN2Q6geaTGBcBsJuK43CgfPgl2HufbkryWrtmNSqffxHVyaTZUKzr+skrZkz4VEVerdGnz8iiNV06/JGgnwnQn2D18P6vrWfmiXa0CS+P3V9rdTKicEgBICxx6Fm3dty+rWEkwIEsONBmZxsBRIjxDtv4vcT08E+ZuKjT438OwHAzMU7sewqGnXcebDa1E9VTqRSmvvYaPp0z11wgxtuJWGiYmqx2r7vn1gNs3DCYNQwFw4PMnGzZGj8CCG1tqHtcnviFFaQAEJbqNWR0m/qGostBfAsBB1udzy58B2AGgPdTGj6snh5ar/oCLu/Yw5j1b2Biidkf3YMweOhQhVn9Vuydd/FBNGomBOuUOnpFZOI3qnLaoWywv4stxQNB2ukAn44Mb8fbUgwsIfADRfbUc0vfnVRndT6icEkBILJDebnNsaHsPI3oZgafaHU6u6ED+BzgDwGapen6nKoZE1aZDer0+CfBxEmBJ/fvh7POP99sGi3y9uuvY+5HZpai08OJaND0qYiugbfsx0WNfQEeAKaBIByLzO/I12IMfALQuGT/Tq9m20RIUZikABBZxznI15cJY4joXGR+i+HWI14GpjkEzCFdn1OV6ryoNZsQuQZWtOWi2h8BdDFyeVfPHrj6hhtg0zLT9+ms4+mHH0XVsmVGQ6wvsjcexZ2AUQAACThJREFU0Kqn34EV9h62DUewpvVjoB+I+4HpIKMJZFADgFeh88TEjLDJ9ydCqCUFgMhaBw4ZXWZrtF1PoBGwfglha2wD8BUDn4NpITRa2LGk49e7WsvtdPuGguhtIxcqLi7GmNtuQ2mXzM6nrK2tQfhf96O+zugINg1NRIPv/N6f9Boyuk19qvhIQO8DxnEAjifgaABtDSeceWsBTE6l8Ej1+6EfrU5GiN8jBYDIemV9/XvZOvLFYBoJ67YZNqsB4MUE+g5Ei3SdF+nAdyWdSxZvrq0JGz0PwDt0KE51D1Kda4t8/MEHeO+tqcYaEz/aoaTUV7uh9lANOFzT6AgwH8HAEWiaoZ/9Iz+/bz6IJ6c20UvVc0PbrE5GiN2RAkDklB6Dxhyta9oINM2WL7U6HwUa0bRBUas7vPYd2uPm229HcXGx+qxaoKGhAePuvRebN24y1BxN9x9TSx6zRA2A5zVdf6JqxoSvrE5GiJay6lALIQypqZq/qnb5vHc77tt3IhXRD0S8D0AOq/MyQYPB72G/P56KQw4/THE6LWez2dDY2IjlS5Yaao4snrDXEsT4mIlv1zfTNSs+DL1VUzXf9GRQITJJRgBEzivz3HSwneyXMvThOTIxTAn/3/+qbLMfo2rWb8C4e+8Fc8GcUbOUiF5oJH6+enrIUOUjRLbIh+E3UeCqoxOXAKgAUOHwju2jsX45AxcBsLZ3TKOu3faxvPMHgNIunbHv/vvj55UrrU4lnTYQozJHTpYUosWkABB5JRkZvwDAgj59Rt68pmv7M4hRDmAY8mO+wH/1PCh7Bjp69uqVjwXABiKeqkOr3Gfd5ulWbA0tRLpJASDyUvMNeyqAqU2bDDn6aqSXM+ECMPazOj+zuu2/v9Up/Fe3/XL+n3OHdQDeYUJlx5KS6TuWbZo+AUGILCUFgMh/lZWpJDALwCyUlwecG7v/EYxzwDwUQE+r0zOicxdDewalRZeuXa1OwTjiZcQ0Dcyvxzv/+DEqKxUceyhEbpACQBSWyspUAvgATb9ucrj9PaHBTTqGgeAB0MbiDFukbdvs2ROn7V7Zk0sLNAKYz6CpIIo1vzISoiBJASAKWjIWWg5gMoDJ+wy8vkO7ojYeBrzEOA2EQ63Ob1e0DG372xKqTx5Mg+9B/AEBkS319TE5eU+IJlIACNGsuWN4vfkXegwas29Ks/1RY3YzYQCadqnLCg31v7ursCW2b8+6A+1+ImCWTojZdf295bEJ8hpfiN8hBYAQu9B8yl9l8y/0OH2sM2XjPxBwCpj7gnA0LPoObazdaMVlf9em2lorL98IxlcgzAHxPJvOH0uHL0TLSAEgRAtVvT8+ASAB4HkA2Nd7c/u9OHUCiPqBuS+D+wB0QCZyWbs6ezadW7N6dSYv9yOBF4BpLghzt5Hts1XRcVsymYAQ+UIKACEMWhUZtwXAh82/AACugb5S3W47EqT3IaAPmn4dCsXbbifiCZXhTElUVaUr9E9gLCCNFujgBVq9/dP4zAd/TtfFhCg0UgAIoVB8ZrgGO5YcNjtg2Mh2RfXtDkOKDgNwODVNLjyMm069M7TqYEU8jrrt29HG4tUADQ31SCw3VQDUEfADgO+ZsZiIF7GGxQ3FW79fOXXyVkVpCiF+hxQAQqRZc0e2sPnX/ykvt7lqygYwMLO1MVOpFL756kv0Ocna05EXffUNGhqMTUgkYGC8tHqWrL0XwhrZs5ZIiEJTWZmKR0MfAVhrpPn8WXMUJ9R6n8yZbbTpmng09JF0/kJYRwoAIazFTDDUi/64YgWWfPe96nxabPmSJYgbH/7/GHKojhCWkgJACIsR89tG277z1pvQU5l/iE7pOqa98abh9gSaqjAdIYQBUgAIYbGGBtsbaNqittVW/7wKM6ZPV5zRns2MRM2cANjQqPFbKvMRQrSeFABCWGzlzPFrAUSNtv8wNgOLF32nMKPdW/L995gZMZwuwJhePT20Xl1GQggjpAAQIhswP2y8KePlf/8bKzKwN0B1MokXn/03dNYNxyDoDylMSQhhkBQAQmSBxIDSdxlYYrR9fX09nn7sMSz7wXCIPVq+ZAmefvQx1NeZ2vv/u3hsQkRVTkII47L+GC8hCsLMmdz5oH6bAJxtNEQqlcJXCxfCXlwEh8sFIlKSGjNj1syZePWll9HY0GAuFihQu3zuV0oSE0KYIgWAEFmipk/Z16XbO54LUDejMZgZSxf/gGU/LMEBZWXo2KmTqZx++vFHvPTsv7Fg/nwwm16192Wyf8mNmDlTlv8JkQXUPCIIIZRwuccMZtLeUxGLiHD4kUei36l/hKtnzxaPCDAz4suWYc5HH+O7b75R0fE3xSXNm4yMNzF7UAihkhQAQmQZp8f/vwAuUxmzpHNnHHrYYXAe1BPd9t0XpZ07//ccgbrt27FhwwasWbUK8WXL8MP3i1G7YYPKywPAM4lo6GrVQYUQxkkBIESWKRvs72LT8Q2A/a3ORZFqauCjmg9KEkJkCVkFIESWqZ4eWg+dzwNg7JSd7NLArF0snb8Q2UcmAQqRhWqr5lWX9Oq3kYAhVudiDo9JxkKvWp2FEOK3pAAQIkvVLps7v7RXvw4A+lmdixEETEhEw/dYnYcQ4vdJASBEFqtdNjdW2rNfdxCOszqX1iDG5HgsNNrqPIQQuyZzAITIbpyIBf8ConFWJ9JiRJPiA0pGQY77FSKrySoAIXKEwxO4jcD/QPaO3KVA+FsiEnrQ6kSEEHsmBYAQOcTl9g1kjV4CYz+rc9nJGg0YXhUNyT7/QuQIeQUgRA6Jx8IzU404gYCpVueyAxPehMbHSOcvRG6REQAhcpTLG7iQmccDONCiFKoZFEhGg5UWXV8IYYIUAELksLK+/r1sHXEjGLcB6Jqhy64FcF9qMx6pnhvalqFrCiEUkwJAiDzgGljRVrdvvICIAwCOSctFGIuZ8Ggd2Z5cFRm3JS3XEEJkjBQAQuQZ52Df8UjROSA+G6DeMP49ZwK+YdAbYLyeiAU/V5mnEMJaUgAIkccOHHRDV5utuJ/GOIEJvcA4CMB+ADoB6ND8Y5sBbATwEwjLibFUJ/o0laqb++OMh9dZlbsQQgghhBBCCCGEEEIIIYQQQgghhBBCCCGEEEIIIYQQQgghhBBCCCGEEEIIIYQQeev/A10GXdwS2Pq3AAAAAElFTkSuQmCC;" vertex="1" parent="1">
          <mxGeometry x="584" y="-341" width="228" height="228" as="geometry" />
        </mxCell>
        <mxCell id="DY7HlPOlNImtq-ZD-zq9-2" value="" style="shape=image;verticalLabelPosition=bottom;labelBackgroundColor=default;verticalAlign=top;aspect=fixed;imageAspect=0;image=data:image/png,iVBORw0KGgoAAAANSUhEUgAAAgAAAAIACAYAAAD0eNT6AAAABHNCSVQICAgIfAhkiAAAAAlwSFlzAAAOxAAADsQBlSsOGwAAABl0RVh0U29mdHdhcmUAd3d3Lmlua3NjYXBlLm9yZ5vuPBoAACAASURBVHic7N13eFPVGwfw783unrR00U3LLoVCoSxRhooioKAgbhEXTtx7D0DFLW5RpqCo7L1poVBKB3TRvWeaNEkzfn/0x+7KPTdNSN/P8/hYSs45LyXkvvfcc94DEEIIIYQQQgghhBBCCCGEEEIIIYQQQgghhBBCCCGEEEIIIYQQQgghhBBCCCGEEEIIIYQQQgghhBBCCCGEEEIIIYQQQgghhBBCCCGEEEIIIeRynLUDuIw3gAgALgDcATgDcPr/f4QQQsjVQvX//xoB1AFQAsgCUG3NoC5mzQQgEMB4AKMB9APQG4CXFeMhhBBCLK0awGkA6QD2AtgJoNgagXR1AjACwBwAEwFEdvHYhBBCiC06A2ArgN8BHO6qQbsiAfAHcB+AuWi5yyeEEEJI604D+A3ATwBKLDmQJROAEABPAZgHQGHBcQghhBB7owOwCsDbaFk7IDhLJAABAN4HcAcAiQX6J4QQQroLPVoeDbwEgWcExAL2JQHwOIC1AIYBEAnYNyGEENIdiQDEAJgPQAbgIACDEB0LNQMwBC3PKwYI1B8hhBBCrpQC4F4Ax1k7EmIG4C4A69Ay9U8IIYQQy+kJ4B601BU4wtIRywyAG4AfAUxnCYAQQgghvKwB8ACABj6N+SYAPQFsQstzCUIIIYRYxykAk8GjmBCfBCAMwBa0lOwlhBBCiHXlAZgEM7cLmpsA9AewA4CPme0IIYQQYjnlAK4FkNbZBuYkAEEADvz//4QQQgixLSUAEgCc7cyLO7tX3xstdYrp4k8IIYTYJn8A29DJWfrOzADI0HJi0XCGoDpNJpPD1dUdjo5OkEikkEgkkEikXTE0IYQQwsAEg8EAo8kEg14PvUEPg16PpiY1GhvrodPpuiqQgwDGAWhu70WdSQA+A7BAgIBa5eDohICAYPj6+sPHpycUCkdLDUUIIYRYnK5ZB4Nef8X3NZomVFdXoLKyDGWlRdBomiwZxhIAz7T3go4SgGkA/uzE68zCcRyCgkIRHh4N354B4LiuPpWYEEIIsZzm5mbo9W3fgJtMJlRWlCI/PwclJQUwmUxCh2ACcAuADW29oL0rbyCAVADuQkYUGtob/foPhouLm5DdEkIIITaloyTgHKWyAWdOp6KwME/oEGrQUqK/1UOE2ksA1gC4Vago3D28EBc3Ct7evkJ1SQghhNi0th4HtKa6uhIpKYloqK8VMoRVAG5v7TfaSgAmoqXYjyB6R/XH4MHxEInogEBCCCHdi1argdFo7NRrTSYTTmem4vTpVCEfC1wPYPPl32wtAZCjpbQgc6U/iUSCESPHIzAwhLUrQggh5KpkMpmg1WrMuqCXlhTi6NEDMBg6N3vQgdMABgK4ZBtCa6cBzgMwl3U0mUyOseOuh59fIGtXhBBCyFWL4zhwnAgGg6HTbVxc3ODj44fSkkKz2rXBG0AhgORL4rrsRVIAZwCEsIwklcpw7XVT4OHhzdINIYQQYjd0Oq3ZF/O6uhrs37etU4sJO5ADIBrA+SmFy2cA5qLlnGHexGIxxo6dTIv9CCGEkIuIRGKzEwCFwgEent4oLspnXRPgiZbDgk6e+8blCcDvYDzoZ2jcKAT1CmPpghBCCLE7HMcBJg5Go3lJgJOTM2QyOcrLzT7x93KRAL4+94uLl+XHAejH0nOv4HBERPRh6YIQQgixWxKpmFfxu9Cw3vAP6MU6/AAAQ8794uIE4G6WXmUyOYYOTWDpghBCCLFzHMQSCa+WMTHDIZPJWQO489wX5xIAGYBZLD3GDB4OuVzB0gUhhBBi96Q8EwCZTI6+fWNYh5+NlgX/5xOAsWjZJsCLq6s7wsKiWIMihBBCugEOYnFru/A7FhwSAWdnV5bBfQCMBi4kAONZeuvXfzAd6EMIIYR0Et8EgOM49I5iWq4HANcAAiQADg6OCA4OZw2GEEII6TbEYgnvG+fAwFDWR+7XAi0JgBsuWhVoruCQCHAc1fgnhBBCzMH3fByRSITAoBCWoeMAuEoADEbrJYE7JSSE+cgAXpqa1GhsbIBBr4euWddxA0IIIUQgMqkMYokEzs6ucHBw5NWHSGReeeCLBQWFISc7k1dbABIAMRIAvfn2oFA4dFm5X6PRgKKifBQW5KK8vARaraZLxiWEEELaI5cr4Ovrj17B4QgI6AWRqHP31GKRGM3gV+LX3d0TcrmC5VrYW4KW2sC8+Pr6823aaSaTCYWFeUg5cQSNjUqLj0cIIYSYQ6vVoKAgFwUFuXB0dEK//rEID4/u8Bk/J2JbPO/t7Yvi4ny+zaOYZgA8vXrwbdop9XU1OHhwJ+rqaiw6DiGEECIEtVqFpMR9yMpKx8iR4+Hm5tHOqzlwHMe7xr+HhxdTAiACEMC3tYuLO9+mHSouzse2bX/TxZ8QQshVp662Gtu2/o2SkoJ2X8eyiN7ZhakeQIAIgAvf1i5sg7cpN/cM9u3diuZm5uMPCSGEEKtobtZh754tyMs70+ZrWGroODnxvnwDgAtTAiBATeIrVFaWISlxH+uxh4QQQojVmUwmJB7Zi4qK0tZfwLAMQCqV8W/8/wTAmffgEinL4FdQq1XYt3er2UclEkIIIbbKaDTiwP7taGpSX/F7HEMGIJUyXYNdRQAc+Lbme6JRW06mJNH2PkIIIXZHo2nCyZQkQfsUi5muwQ42U8Kvrq4GZ89mWTsMQgghxCLy8s6gtrb60m9a8Rgdm0kATqUeo+f+hBBC7JbJZEJa2nFrh3GeTSQAWq2GZS8jIYQQclUoLsqHTqe1dhgAbCQBKCsrgtFotHYYhBBCiEUZjQaUlRVbOwwANpIAVFWWWzsEQgghpEtUVpZZOwQANpIANDTUWTsEQgghpEvYyjVP2H18PGk0TbzbOvYIgltwXwGjIYQQ0h00Nxtg5Ln4XFWUCW0Nv6l8lmuekGwiAdDr9bzbDn10KVwDowSMhhBCSHfQ0KiBRsuv5Ly6NBunPp3Dq63eRsrc28QjABYSuaO1QyCEENLNiOW8a+jZjKs+ASCEEEKI+SgBIIQQQrohSgAIIYSQbogSAEIIIaQbogSAEEII6YYoASCEEEK6IUoACCGEkG6IEgBCCCGkG6IEgBBCCOmGKAEghBBCuiFKAAghhJBuiBIAQgghpBuiBIAQQgjphigBIIQQQrohSgAIIYSQbkhi7QAIId2DUd8Mg64JAKDXqGAy6AEAJpMJHMcBAKSOrgDHQSSRQSxTWC1WQroDSgAIIUwM2iaoq4vRVFWMpppSqKtLoKktg05ZC11jLXSNdWhW1UOvUZnVr0gqh8zZHVInN8ic3CFzdofCwxeOXgFw8PKDg5c/HLz8IXP2sNCfjBD7RgkAIaRTTAY9lCXZUBZnoaHoDJTFWVAWZ6GpptQi4xmbtdDUlkNTW97u66RObnAN7A0X/wi4BEbBxT8CrkFRkCicLBIXIfaCEgBCSKu0DdWoyzuJ+vx01GQnozb7OAw6jbXDukKzqh7Vp5NQfTrp/Pc4kRjOPUPgFtwPnpGx8IiIhYtfOPD/Rw2EEEoACCH/Z9BpUJt9HJUZh1CVfgj1BemAyWTtsHgxGQ1QluRAWZKDokMbAAAyF094RcWhR98R8BkwFgoPXytHSYh1UQJASDemqS1HafI2lKfsQk1WMozNWmuHZDE6ZQ1Kj25B6dEt4DgRXHtFw2fAGPgNmQTXoChrh0dIl6MEgJBupqmmDGXJ21B6dAtqc07AZDJaO6QuZzIZUZ+fjvr8dGT9+w0cvQPgO+ga+A2dDM+IwfSogHQLlAAQ0g0YdBqUHtuKwv1/ovrM0at2at9S1FXFyNuxHHk7lsO5ZyiCRk1H4IipkLt5Wzs0QiyGEgBC7Fh9fhoK9v2J4iP/Qd+ktHY4V4XGsjxkrF2MzHWfwnfgWASNngGfAWPAicTWDo0QQVECQIidMZmMqDi5B3k7lqMq/ZC1w7lqmYwGlJ3YibITOyF364HgsTMRet3clmJFhNgBSgAIsRN6jQqF+9chd9svaKousXY4dkVbX4kzG75E7paf4D98CsIm3g3nnqHWDosQJpQAEHKV02tUyN+1AtmblqFZTdP8lqTXqlGwdzUK961FzyETEHXLAkoEyFWLEgBCrlIXLvzfo1ndYO1wuhWTyYjSo1tQdmwbeg6ZgOhpT8DJN8TaYRFiFkoACLnKGJu1yN3+K3I2/UAXfis7nwgkb0dQwi2IumUB5G49rB0WIZ1CCQAhV5HylF1IW/kB1JWF1g6FXMRkNLTstkjciJDxcxA5ZT4kckdrh0VIuygBIOQqUJeXirSVH6A257i1Q2GicHCESCyBTCaHRCa75PdMRiOa1C0nBqobr86ZDYO2CTmbvkfJkf8QfevTCIi7gYoKEZtFCQAhNkzfpETGn5+gYM9qm67YJ5ZI4OsfDO+e/vD08YNXDz94+vjBzdMbTi6ucHZxh6OLKyQSaaf6M5lMUCnrz/+nrK9FdXkpqitKUVPZ8v/yorPQNKkt/Cfjp6mmFMe/W4iCvWsxcO4bcPINtnZIhFyBEgBCbFTZ8R049cc7HR6H29UcnVwQGj0AvcKjERgaCf9e4fANCIZYItzHCcdxcHZ1h7Ore5uvMZlMqK4oQUl+Lkryc3A2OwO5mamor7adn1d15hHseeMW9J7yMMIn3wdOTB+5F9Nr1WgszkZjWS7U1SUwaJvQrFZCIneAWO4AuZs3nH1D4ewfDoW7j7XDtTv0biTExmjrK5H6+zsoS95m7VAAAO5ePug7eDgi+g1GWNQA9AwKBWcD09ocx8HbNwDevgEYOGz0+e9XVJQjI/UEcjNPIvdUEioKc6wYZcuizcz1n6I4aSMG3f023EMHWDUea2ssy0PJkf9QmX4QdXmpMBkNnWrn5NMLXtHx8Bs6Ed594sFxIgtHav9sIgEQifj/RYqkcgEjIcS6ypK34+Svr0PXWGu1GMQSCXoPGIJ+sSPRL3YE/IPDrRYLHz4+vvC5dhLix06EssmA6qoK5KQeRk5qIrJTDkGjbrRKXMqiMzjw/mxETpmPyCnzu1VpYZPJiLLk7cjd+jNqc07w6kNVUQBVRQEK9q6GwsMXIePuQMj4OyBxcBE42u7DJhIAR0cnNDTUmd2OE0sgd/WyQESEdC29Vo30le+jYN+fVhlfIpEiOmYYhoy6DoOGj4OTy9Vf7lYu4SB3kcBJ3hMeXjchZswUGPTNyD2ViPTEXcg8thcaVdcWTjIZDTiz4UtUph3A4Ac+hGOPoC4d3xoq0/YjfdWHUJYINxOjqS1H5vpPkbPlB0Rc/yDCJt5Dj1d4sImfmI+vP8rKis1u5xU5pFtl0cQ+1eWeRPKyhVbZ2hcS2Q8JE6di6JiJcHSyzzspB5kICpkIaq0BSg0QGZOAyJgETNE3I/vkYRzf/Q+yUg7CaOjcVLQQanNOYO+b09HvjpcQlDCty8btSrrGOpz6/S2UJG222BjNaiUy/lyCwoN/Iebe9+AeNtBiY9kjm0gAQkMikXYqGQYz/wH2GnObhSIipGuc3fUH0ld9CKO+ucvGdHR2Rfz4GzBq4jQEhER02bjWxAFwkovhIBNDqdFDpTVCLJEiKnY0omJHo7G+Gin7NiF59wbUlHVNIqbXqJDy08uoyTqGAXNetavHmbU5x5H87TNoqinrkvEaS3Nx4MM70WfG0wibcDdtvewkm0gAHJ2c0advDE6lHut0G6+oOPjHXW/BqAixHINOg9Tf3kDRoQ1dNqaPfy9ce/MdGHHdTZArHLpsXFsi4gA3BwkcpEbUNRmgN5gAAM5uXkiYcidG3jgbWccP4tDmlTib3vnPIxaF+9ehoTATQx7+DI7eAV0ypiWVHtuK48ueg1Gv69JxTQY90ld/hMbSHAyY+wbNDneCTSQAANC/fyyUynrkn83u8LUu/hEYMv8TyvLIVUldWYijXy1AQ+HpLhkvom8MJt16NwbEjaKV0/8nk4jQw0WERo0eSs2F+gocJ0Lv2FHoHTsKZflZOLjxd5w6tA0mo2VrMNTnp2P/O7dh8AMfoUf/URYdy5IKD6zHyV9e6/TKfkso2PcndKoGDJm/hJKADogBvI6WGTKzDRgwRLBAOI5DUFAopBIpqqsrYGzlDcSJxAhKmIYh8z+B1MlNsLEJ6So1WcdwaNG9aKoyf82LucL7DMLdT7yOqXc9At+AYJvYumdLOAByScv6gGa9CUbTpb/v7O6FPnHj0D9+AprUSlQW5wEmU6t9CcGg06AkcSOkDi7wCBtksXEspSx5O0788IJVL/7nNJbmQlNThp4x49u9UdTq9NAb+CV3hiYlyg+s4tVWJpMjKqo/AMBoNMLIkGBmZp7k3dZmZgDOie4zEGHhUSgqPIvKqjI0mcQQ+YTDNbA3/IZM7BarZol9Kj7yL1J+esXiU6PBkX0xde4j6Bc7wqLj2AupiIO3swRKjQGN2is/iL38emH6w29gzNR7sfvPZUhL3GmxRMBkNCBt5ftQVRag36wXrpo72PqCDCQvW2gTF/9zCg+sh5NvMCJumGftUGyWzSUAQEt2FBYehbDwKDT79YGmzyRrh0QIk7ztvyF91YcWLefr7tkDU2bPQ8LEW5hqa3RHHMfB1UECudSIOrUerd0UevsH49bH38HI3AxsXv4pCs/wv/PqyNkdv0NVlo8h85dA4uBssXGEoNeqcfy7hTA2a60dyhVO//U5PCOHwDNSuNlqe0KfEoRYkMlowMlfXkXayvctdvGXyuSYMnse3vpuPUZPnk4XfwZyiQjezjLIJW3/DP3D+uDeV7/BtIdfh4uH5Y7+rUzbj0OL7oVOWWOxMYSQsWYRGstyrR1Gq0xGA0788CIMOo21Q7FJ9ElBiIWYjAac+PElixb3iewfi1eXrsBNsx/qtiv7hSYWAZ7OEjjL255+5zgOAxMm4/HFq5Fw01xwFkq66vPTcPDDu6Cp7ZrtdOaqz09Dwd411g6jXeqqImRvXGbtMGwSJQCEWIBRr8Oxr59E8eF/LNK/o7Mr7nzsZTzz/nfwDaST5oTGAXB1EMPDSQJRO2snpTIFrpv1CB5860f4hUZbJJbGslwc/HCuVQpFdSR9zSKbeu7flpwtP0JbX2ntMGwOJQCECMygbULi0odRdnyHRfqPiR+Ht75dh9GTp9PKfgtzkIrg5SyBuIMfs19IFB54YxnGTrsPIrHwC/fUVcU4+NFdaCzLE7xvvmpzU1CdecTaYXSKsVmL3G2/WDsMm2OTiwAJuVoZdBokLp2P6tNJgvctVzhi5oPPYNSkWwTvm7RNKhbB20WGGlUzmg1tr/4XiSUYN+NBRAwcgXVfv4HaCmG3empqy3Ho47sx8rlf4eQbImjffORt/02wvsQyBbz7joBrYDTkrp5oVjegqboEFaf2C3Ycdv6eNeh982MQyxSC9GcPKAEgRCBGfTOOff2kRS7+oVH9cd+z78DHz/62wRqNRptfuCgWAd7OUtSo9NDq21/MGRjZH/Pf+xWbfl2CE3v/EzQObX0VDi++HyNf+B0Onj0F7dsc+iYlyk/sZO5H6uiKiBvmIWT87NYvzCYTKk7tR+afS9BQxFY461zM/sNuYOrHnlACQIgATEYDjn//HCpS9wre97gpM3HbA09DIpEK3rclVJeXoKw4H9XlJaipKEVNVTnqa6qgaqyHqqEemiY1NOrGVoufODq5QCZXwNHFFc4u7nB2c4dnj57w9PGDt48ffPx7wTcg2CLT7B3hOMDTSYJ6tR7q5vaTAJnCEVPnvYLg6Bj899PH0DcLV/uhqaYUR5bcjxHP/wa5i6dg/Zqj7MQu5pX1rkHRiHv8Szh4+rX9Io6Dz4DR6NF3BE6teA/5u1cyjVmStIkSgItQAkAIK5MJJ399HaVHtwjarUyuwJ2PvYzh19juB1Z5cT7yTqciNzMVRXlZKM7Phkat4t2fWqWEWqVEXU3bC7YkEil6BoUiICQCob37ISx6IAJDe0MssfzHGccBbk4ScE0GqLQdL36LGTMFvr0isfqzl1BXWSJYHI1leTiy5AGMWPgLpI5df4oj67N/F/9wjHzuF0gcOhc7J5ZgwJ2vQSSRMj16qD6dCJPRcNUUWLI0SgAIYZS26gMU7l8naJ/evgF4+JVFCAztLWi/rGoqy5CefBhpyYdwJvUoGhvqujwGvb4ZRXlnUJR3Bkd2bQTQkiyFRQ9E39h49B0cj8DQ3hZbIHluhwCATiUBfiFRmPf2T/jzy9eQkyrcormGwkwkfjYf8U9/D7G8a7eAVp9O5N1WJJFh6KNfdPrif7G+M59DXV4qanNO8Bq7Wa1EQ+FpuAX35dXe3lACQAiD3K0/C7oYCmh53v/Iq5/A1d0607uXK8nPwbED25G8fwdKCnKsHU6rdFoNMlMSkZmSiHU/LYWbpzdi4schNuE69B4wRPA1BhwANwcxOACNnUgCHJxdMfvZxdj4yyIc2/mXYHHU5hxH8nfPYuhjn3fZQU96jQrqav6zGSHj58DJl9/WVU4kRt+Zz+HA+7N5j68szqIE4P8oASCEp8q0/chYu1jQPgePuAb3PfsOZHLrrlSur6nCoR3/4tCOf1BWdNaqsfBRX1OFPRvXYs/GtXBx90TcmIlImHgLAkMiBR2nZSbA1OoZApcTicWYct/z6BEQgi3LlwpWGbI8ZRcy132KPjOeFqS/jqjKzzKdhRByze1M43uEx8CtVx/UF2Twat9YbjtbKa2NEgBCeFCWZOPYN08LWgTlulvm4Nb7n7Takb0mkwlpxw5iz8a1OHXsAIwG2y/w0hnKuhrs3LASOzesRHBkX4yeNA3x42+EVCYXpH8XBwlMJj1Uus5d0IdPmgVnd2+s//pNGPTNgsSQs+l7uPhHIHDEzYL01x5NXQXvts5+YYIc6OYzcBzvBEBTyz9+e0MJACFm0jXW4egXj0Hf1ChYn5NuvQfT73lcsP7MoW/W4ei+rdiy9lebneIXSn5WOvKz0vHnT59hxLVTMHH6XfDw9mXqkwPg6iiB0aRHUwe7A87pN/xaOLm4Y8WShdBpmpjGP+fkr6/DyTfY4kcJ6zX8F3nynfoXsh+W+O2NzW6+NZlMaGioQ2VhNpRFZ2DQCvOPhBAWRn0zjn61AKqKAkH64zgOM+59wioXf32zDvs2r8NL99+En5a8bvcX/4s1qRqxc8NKvPLAVCz/4l3UVrEVm+EAuDtK2j1E6HIhfYdg9jOLIVM4Mo19jrFZi6NfPo6mGsueG2DQ8T/1T+roJkgMMmd33m0NOrqWnGNzMwBarQZpacdxNi8LWu25faZfQixTwGfAGPS+6RG4BNrWymjSfWSsXYSaM0cF6YvjONw+/3mMu/E2QfrrLL2+GXs2rsXmNT+hoba6S8e2NXp9M/ZtXofDO//F6MnTccOsB+Di5sGrr3N1Aqoa268YeLHgPoNx14ufY/lHT0KjUvIa92La+ioc/fJxJLz4O0QSGXN/rRFL+T86aW4UZtcIywmJErkwCZc9sKkZgMqKMvz372qczky96OLfwqDToPTYVux9awbydiy3UoSkOytP2SXoe2/mg892+cX/ZOJevPnwbVj93aJuf/G/WLNOh50bVuLl+2/GP398i2Ydv8I955KAjs4OuFhAeF/MWbhEsJmA+vw0ZP75iSB9tUbi4MS7rVAL8BpL+fcjUfCP397YTAJQW1uN3bs3XnHhv5zJaEDaiveQv3tVF0VGSEsd9pSfXmFa/XyxW+5+DONvZlsNbY7SwjwsfnEevnzrKVSU2t6pcrZCq1Hj3z++wxuP3IrUpP28+hCLOHg6SWFOGYLAiP6487lPIBVoP3/u9l9RnrJLkL4u127lvg6oyvPRWJrLHEN5Cv8yxAoP65VQtjU2kQCYTCYcOrgTer2+023SVr4PdZWwh20Q0hqT0YDkZQuha6wVpL8bZt2P62+7V5C+OmLQ67Fl7c94Z8FsnEk91iVj2oOqsmJ88eYT+PKtJ1FXbf6qcamEg7uDedXmgnoPxMwF70IsRMlnkwknf35V8CNwDToNKk6ylbvO28FWN6Mq4zCUJfzXqzj3DGUa357YRAJQVJiH+nrzPlyNeh1yNv9goYgIuSDr328Ee+4/etI0TJ37iCB9dSQ/OwNvL7gD637+XNBa9N3JycR9ePPRWTiye5PZbR1kYjjJzPuIjRg0AlPnvQKzpg/aoFXW4MQPLwpSb0CvVSNn84/Y+fx1yFz/KVNfBXvXoqGQ38E+Rr0O6as/YhrfJVDYWhBXM9tIAHgWGrHUeeuEnFObcwJZ/34jSF/9Ykdg9iMvCtJXe0wmI3ZsWIGPnr0XpQXs063dnbqxAT8uegXfffA8VMoGs9q6OkggM2NnAAAMGDkR18x40Kw2balMP4jcLT/xbq9vakT2f99h5/MTkLF2EbQMi+/OMRkNOPrl4+Yv5DOZkPrbm2gozOQ9tszZAy4BlACcYxMJQENDPa922vpK6JvYV84S0hqjXoeTv7wqSLGfgJAIzHvhQ4ufYldXU4nFL8zD6u8WQS9QkRnS4tj+7XhnwR3IyUjpdBuOAzwcxRCZeUM/5pZ7ETNmipkRtu70X5+jscy8RLBZrcSZf77CjhcmIHP9p4I9/jpHXVWEA+/P7vR6AINOg+RlC1F4YD3TuN59hlut0JYtsoltgDqGfaU6VT2vQyUI6Uj2xmVMzxrPcXX3xONvLIXC0bKrj7NOJeO7D1+widX9Tk7OCAuPQHh4BMLCIxAR0RtBvXrB0dEJ7u4ecHBwhKOTI5ydW/7tajRNUKvVUDY0QNmoRJNajdLSEuTmZCMnOws5OVnIyc5CdXWVVf9cNZVlWPLiQ7j1gadwzZRZnWojFnFwd5SgRtX5NU4AcNP9z6OusgRnM5L5hHqeUa/DyV/fwMiFv3T4aKFZVY/cbb8ib8dyi99cqSoKsO/tWxF67VyETbwbslaONjbqm1F6dAtO//WZIGu+/IfdyNyHPbGJBICJQKuyiflMRgOaqkvQWJYHbX0V0zdPrAAAIABJREFUDNomGHRNkDi6QiyVw7FHIJx8QyB39bJ2qGZTFmche+N3zP2IxGI8+MIHzNXmOrJjwwqs/eETq5XvDQ0LR0LCGCSMGoP4kaMQFNTLrPYKhQMUCgd4erb/XqmtrUHSkcPYv38PDh7Yh9STJ2Do4j+zXt+Mld98hLzTpzD38VchlXW8314hFcFRJoZa1/lYRWIJbn38HXz3yj1oqGErX1tz5igK9q1FrzGtbzvVKWuQu+1XnN35e5dWyjPoNMjetAw5W36ER/gguAZGQ+7mhWZVA9TVxajKOCxYxU2Zswd8BowRpC97cfUnAKRLqcrPovTYVlRlHkFt9nEYdO1v2wQAhYcvvKLi4NN/NHxjxtv8PlyTyYiTv7wGowBT6DPuXYDe/YcIEFXrjEYjVn7zIfZsXGuxMVqjUDhg8vU3YtLkGzFqzDj4+fl3ybgeHp6YOPkGTJx8AwBAqWzA4YMHsGPHFvy1fi2qKoVd9d6eI7s2oqqsGA+/srhTxYNcHcTQ6Y3QGzt/0+Lk6oHbFryLn995hPncgIy1i+A76BrI3bzPf0/bUI3cLT/i7O6VVq22ajIaUJOVjJosttmO9oSMnw2REDss7AglAKRDJqMBJYkbcXbXCl7ncGtqy1F8+F8UH/4XYpkCfkMmImzivXANirJAtOzO7vwDtbmdf87blqGjJ+DaqXMEiKh1Wo0a33/0Ek4m7rPYGBcTiUSIGxaPm2+Zgdtm3tHh3XpXcHFxxYRJ12PCpOvx7vuLkZR0GKtX/oE/16yESiXcWQ1tyclIwQfP3I3H31iKnoEh7b5WxAHujmJUN+phzrxlYER/TLrzCWz8eRFTrM1qJdJWvofYh5ZAU1eBnC0/omDP6k4l8Vc7icIJodfeae0wbA4lAKRdxUf+xem/Poe6UpjiMQadBkWHNqDo8D/wHTQOfW9bCCffEEH6FoKusRZn/v6cuR/vngGYu+A1cAJs52qNStmApa89hrNZaRbp/2I9fHww76HHcPvsuV12p8+HWCxGfHwC4uMT8Pa7H+Lff/7CV198hrRTJy06blVZMT5+7n488faX6BUe3e5rZRIRnORiNGrNe2wRd90MnM1IRvoR/gVwAKAkaTOMBgMqUvfC2Mx/7dXVJnLKfEidhDmHwJ7QckjSKnVlIQ4tuhfHlz0n2MX/EiYTyk/swp7Xp+L0X58LeqwuizMbvkKzmm3xk0gsxn3PvA2Fg2VqjivrarDkpYcsfvEPCuqFdz9YjOSU03jqmedt+uJ/OScnZ8y6/U7s2Z+EfzfvxJix11h0vMaGOix56SHkpHc8c+SiEENs7rYAAFPufR6unj58wrtEWfK2bnXxd/EPR9iEu60dhk2iBIBcoSRpM/a+NQPVmUcsPpZR34ysf7/Ggfdno6m6xOLjtaexLBf5e9hLTN8w8z6E97HMkax1NZVY9MKDKMo7Y5H+ASA6ui++/vYnJB3PwEPzH4ODhRKZrhIfn4B1f2/Gv5t24LoJkyw2TpOqEZ+99miHFRc5ruXkQHM5OLvilodepW1sZhBJ5Yi5/0NwYprsbg29k8glzvz9BZK/fVrQs+47oy4vFfvfnYW6vNQuHfdiGasXwWQwb6vW5UJ698ONtwtTxOVyjQ11+OyVR1HGs3BWR1xd3fDuB4uxe38Sbps1GxKJfX1oxo8YhZVrNuCvf7YiKrqPRcbQaprw5VtPIj8rvd3XySUcHKTmf/yG9huK+Mmd235IgH6znodbcF9rh2GzKAEgLUwmnPr9bZz55yurhaBtqMahRfcIVnbXHFXph1B+cjdTH2KJBHc/8bpFiv00qRqx9LXHUFLAXpfgchzHYebtc3Dk6Ck8NP8xu7vwX27U6LHYvS8J736w+HwdAiFpmtRY+vrjKC1s/8Q6V0cJ+KwQGX/bQ/DwDeAXXDcSNvEeBI/rugO3rkaUABAAQOa6T3F21wprhwGDtgmJSx/u2pkAkwkZa9lWWAPApBl3wz84XICALtWs0+HzNxcgPztD8L779u2PfzbtwFff/IgePuzPl68WUqkUD81/DPsPH8eNU6YK3n9jQx2WvvYYaqvK23yNmAOcFeYnixKZHFPufV6Q8wKE5uwXZhNb7YJGTUff2xZaOwybRwkAQcHe1cjetMzaYZyn16iQ9MVj0NSxFT/prPLUPagvYLu4+gYE44ZZDwgU0QUmkwm/LX2rU4vLzDXz9jnYunM/4uMTBO/7ahEYGIRflq/Gl9/8AEeBKzXWVJZhyUvzoaxru+a9s0IEMY9P4bD+cRiUMJkhOmG5BkVj6COfYexbGzDsiW8hcXC2Wizh1z+AQXe/bZMJkq2hBKCbayjMxKkV71s7jCto6yuR/M3TXbI7IPvfb5n7mPPoS52qCGeu9b98weskuva4uLhi2Y/L8dU3P0KhEOb8+avdrNvvxI7dh9Cv3wBB+60oKcDX7z0LQxtHnXPg4KLg98hl4pwFcHC27tY2t5D+iHvsS4x57U/0jJ0AjhPBu088El78Ay7+ws+GtUcsd0DM/R+gz4yn6eLfSZQAdGMmgx7Hlz1ns1uCarKTkbv1F4uOUZVxmLnoT2zCtYgaOFSgiC5I2rMZW9b+LGifMYOHYPe+REyb3npJ2O4ssncUtu7Yj3nzHxW035z0FKz/pe3aEg4yEaRi8y9Yji7uGDf9fpbQePMIj8GwJ77F6FdWwzfmmisuuC7+ERj1yhqEXHNHl+xa8AgfjNGvrEHgiJstPpY9oQSgG8vd9guUJdnWDqNdZzZ8gaaaUov1z3rUr0Qqw/R7FggUzQVFZ7Pw69K3Be3zzrn3YtPWPQgOCRW0X3siVyjw3gdL8Onn3wi6GHL7X7/j2P7trf4eB8BZzm/h6NBrp8HbP5ghMvN4Rg7B8Ke/R8KLf8BnwOh2XyuWKdB/zqsY9coqeEZaphy2wsMXg+55BwkvLIezX5hFxrBnlAB0U7rGOmT987W1w+iQQafB6b+WWqTvmuxkVJ9OZOpj/M23o4dfoEARtVCrlPj23YXQaYUr0frUM8/jk6VfQyq1/gKtq8Gdc+/FL8tXC/aIxGQy4ZdP30RpQevH3ypkIkh4FAcSiSWYOPtx1vA65BU9HCMW/oyRz/+GHn1HmtXWLbgfRj7/G0Y+9yt8B44DJ2LfJeMS2BsD73oD49/fiqBR02nKnyf73u9D2nR2x3LotWprh9EpxYf+QeSN8+HkK+ydTu7mH5naO7m44YaZwk/B/vHVB6goFab6okgkwjvvLRJ8Wrs7mDT5Rvz510bMuX066upqmfvTatT4+r1n8fKnyyFXXFpciUPLjoA6tfl1KCJjEhDabyjy0oTfPtujXwIipzwMz8hY5r48ew+FZ++h0DZUo/ToZlSeOoDqrKOdqjnCicRwDx0A7+jh8Bs62WbPEbnaUALQDRn1Opzd9Ydg/YkkMnhGxsLB0w9SR1doG6rRUJgBZYkwe9ZNJiPO7l6BfrNeEKQ/AGiqKUP5yT1MfUyYPhcOTsKudj6yayOS9mwWpC+ZTIYvvvoe02+lwjF8DY8fif8278LMGVNQXFzE3F95UT7W/fw57pj//BW/5yAToVHDmXVa4DnX3DpP0ATAZ8AYRN70MDzChK9oKXf1Qsj4OQgZPwcmowHqyiKoys9CXV0Cg0aFZrUSYoUjJHJHyN284eQbAueeoRDLFILH0t1RAtANlafshq6xjrkfuVsP9L7pEQTET2n1iF9VeT5ytvyIwv3rmFfzFx34C31mPCPYHuOCvWuYYnJ2dcf4m4S9sNZUlmHlNx8J0pdMJsPPv646f2wu4S8qug82bNyBGyeNQ1kZ+3qUPf+txZBR111xTDQHwEkhRj2PWYCgyAEIHzgcOSfZynf7xlyDyCkPwz2kP1M/ncWJxHDyDRZ8do90Dq0B6IZKEjcy9+Ebcw2ueXcjgsfNavXiDwBOvsEYeNebSHjhd8jdejCN16xuQPVpYc4mMBn0KNi3lqmPidPnXjGNy2rF1x9CrWI7iAhoORXvy69/oIu/gIKDQ7D2r41wd/dg7stkMuKXT96EVnPlIzhHqQg8lgIAAMZNZ69DEXnDQ1128SfWRwlAN2MyGVGVcZipj4BhN2Loo5+3eeG/nHvYQIx6aQXkbt5M45ansE3Zn1N2fAe09ZW82zu5uGHclJmCxHJO4u7NOJm4V5C+lnz2FabNEDY+0nJI0vIVawVZGFhVXoy/f72y7DbHAY4yfovkAiP6I3zAcKa4CvavY2pPri6UAHQzDQWZaFY38G7vGhiFgfe8bfbeXgcvfwyZ/ynTnuDanOO8214sf/dKpvZjJk8X9O5fpazH6mXspYgB4OlnX8CcO+8RpC9ypfgRo7Dsx98gFuC8h53/rEJu5skrvu8k5/9vZMQNd7CEhJKkTTDohNt9QmwbJQDdTEPRaab2fWYu5L0YxzMyFv7D+E9LNxSdYS5apK4qQhXD1j+xRCL43f+G5V9DWc++yvyWabfixZffYA+ItOv6G27Cex8sYe7HZDJizfdLYDJduuhPLOJ3UiAAhPUfBp9A/vvh9U1KlB7byrs9ubpQAtDNqMrO8m7rEhBp9h7gy4VOuIt3W5NBD3V1CdP4pUe3ACbzV1mfM3TUBLh7CXdoTmlhHvZtWc/cT58+/bD0y+/A0X7oLnH/g/Nx60y2u20AyM1MbbVAkIOM30czx3GIn8x2Al4hPQboNigB6GZYqur5xlzDPL57cD8oPHx5t2etCliSxFZX/9qps5naX27N90varBPfWU5Ozvjh5z8EP8yGtG/xJ18gIrI3cz/rf/4c+mbdJd9TSEUQ8fx0HpAwCY6u7rzjqTlztMsO4iLWRQlAN6PXqHi3dfGPYA+A4+Dix/+QkMTP5mPf27chbcV7KD26BVpl2yetXU5dWYj6/HTeYweGRCI4si/v9pc7c+oY0o4dZO5n0ZLP0TsqWoCIiDmcnJyx7IffIFew7U+vKi/G7v9WX/F9Bym/dQYSqQwDGU4KNJmMKEvexrs9uXpQAtDNGHRNvNvKnNm3QAGAzNWTd1uTQY/6/DTk7ViOY988hW1PjcKulybjxI8vIn/3KiiLzrS5v7+YcfvjqMnTmNpf7p/f2U8hvOnmabhtlrCzEqTzBgyMwauvv8Pcz8ZVP1yxBdSR52MAAIgdexNTPLQOoHugQkDdjEgq5922Wc2+Rx0AmlX1gvRzjqqiAKqKAhQd/BsAIJE7wjUoGh6RsfCMGAzPiFhIndyYpv+lMhmGj7teqJBx+uRRnEk9xtRHDx8fLFrS9ilzxLIaG5X4Ydk3+OrLz5j7UikbsPvf1bhh1oXS0lIxB4mYg95g/pqVHoFhCAjvh+KcNF7x1Jw5Bm19JXP9DmLbKAHoZjq7d7816soCQWJQV7KXVG2PXqtGTXYyarKTkQOA40Rw9gtjOvkwZsR4ODq7ChbjxlU/MPfxzrsfw8ubPqC7WkNDPZZ9+xW+/fpz1NRUC9bvzn9WYsK0OyGVXUjSHaQclDwSAAAYPHYK7wTAZDKi7PhOBI+jMtL2jB4BdDMsxXgqUtkL1agqCtBYlsfcjzlMJiPzscdxYyYKFA1QfDYbp08mMfUxMmEM1fjvYo2NSiz9dBFiB0bh/XffEPTiDwDKuhoc3P7PJd9T8NwOCAB9h10DkZj/PV7FKWEKUxHbRQlAN+Psy/8s+NrsE1AWnWEav2DvlYudbJ3C0Ql9B48QrL/tfy2/Yu+3OaRSKRZ/8gVt+esi1dVVePft1zCgTxjeeuNlQU4GbMu29b/BZDKe/7VUzO+YYABwcHZDaN8hHb+wDdWZiTAZ2HaoENtGCUA34xIQybutyWRE+ppFvPfRqysLkbfjd97jW8vAYaMhlckE6UtZV4PEPVuY+rjzrvsQ2ZuOQ7W0qspKvPHai4gdGIVPFn8IpZJ/Bc3OqiwtQvrxS8+8kDPOAvCl16hQm3OCd3ti+ygB6GbcQ/szHatZmbYfWf+Zv3rdoG3C0a8WMFfys4bYhOsE6+vQzv+u2PNtDkdHJyx87mXB4iFXqqqsxFtvvIzBA3vji6VLoFJ1fF69kPZfVhhKLuU/0xM9ZCxEDGWLK9MO8G5LbB8lAN2MSCKDZ0QsUx+n//4cZzZ82emZAG19JQ4vvg8NhWxliK1BIpWh7+B4wfo7uO1vpvYPzHsYPr78CymRtpWUFOPF55/CoAERWPrpIjQ1XXlaX1dIObIHDbUX1hfIJSLwfdrj6OqOwAj+p/tRAmDfKAHohvzi+BcJAQCYTDiz4UscWnQP6vJS236ZQY/83auw983pqM1NYRvTSiL6xkAuwOlvAJCbeRKlhfwXQMoVCjz8yBOCxEIuKCwswLNPP46hg/tg2bdfQaux7mE4Br0eh3b+e/7XHACZhP8sAMsJgfUFGTBo+dcOIbaNtgF2Q/5DJyFtxXvMp35Vn07C/ndnwSUgEj4DRsPByx9SB1doGypRX5CJitS9gu/572r9YoVb/Mf67H/2nLvRw0e4cwisRaVqRFFhIerr69BQXw+tTgtnZxe4ubkhOCQUHh78C0WZI/9sHj5Z/CFWrVyO5ubmLhmzs47u3YpJM+4+/2u5WAxtM78FeeEDhmPX2u94tTUZDag7mwqvqGG82hPbRglANyRxcEHgiJuRv0eYFfnK4iwoi7ME6cvW9B0iTAJgMhlx/MAO3u05jsP8hx8XJJauVldXi43/bcC+vbuRciIZ2VlnYDQa23y9l5c3YofGYdSosbh2wiRERwtXfhkAcrKz8MniD7F2zQroGc9hsJSCnExUlRXDu2cAALYZAP+waDi6ukPdUMerfW32CUoA7BQ9Auimwq9/AJyI/Uxze+bi5oGAYAHOPwCQk3ESdTWVvNuPHjMO4RH8d3BYw/atm3H7zKno27sXFjw6D2tW/YEzpzPbvfgDLdvutm3ZhNdffQGj4gdj/Nh4/LDsG+Zn8mdOZ2L+vHswcvggrFzxm81e/M85duDCKYFSMcCBXxLAcSKERPNf90M7AewXJQDdlKN3IILHsR0bau9CowYIttf+xKFdTO3vuW+eIHF0hU0b/8H4sfG4feZUbN+6GTod/10PAHAy5TieX/jE+VX55vaXnn4KD9w7B6NGDMba1StgMLR+VoStSb5oxojjOEgZ5muDIgfwbnu1rt8hHaMEoBuLnraAqTJgV/COHg6fgWMhdXLr8rHD+gwUrK+05ENM7Z98fD5mzpiCjz54B7t37eiSPenmKikpxpzbp2Pu7FtxMuW44P2f25c/JmEI9u/b0+HrT6Wm4J65szA2YSj+Wr+2w5kHW5OflQGV8sIaGpmYfzIaGMl/J4CusRaa2jLe7YntojUA3ZjEwQUD734LSZ8/yru4jyU59wxD3ONfQSx3AEwmNJbloTbnBGqyk1Gbc6KlpLAF4w6PFiYBqKuuQGlBLlMfDQ312LljG3buaDmmVSwWIzq6L4bFj0Rc3HDEDYtHaBj/Y5ZZ/bV+LZ5a8HCXJCbZWWcwfepkLHjyWbzw0uuQSC79GDuefBSLPnoPW7dsZKq4yGpQTCxGjEjAN1/zO7DJZDIiMyUJQ0a11KGQMiQAfsFRkEhlvGtQKIuzofDoyXt8YpsoAejmfAeOQ/jEe5Cz5Sdrh3IJkVSO2IcWt1z8AYDj4OwXBme/MASNmg6g5VTB2pwT/08KjqPubKpgW5ZEIhGCI4VZfJZ+/IjgFyKDwYC0tFSkpaXipx9aCjP18PFBXFw8hg0fgaHDhmNwzBDms+o7YjKZ8PGH7+LjD9/p0out0WjEp0s+wonjx/Dzb6vg7OyCpMTDWPzxe9i+jW23BashQ4fh2YUv4bqJk6FSNeLHH7+DTsuvAFbGiSPnEwCJRASA3+MLsVQKv5AoFGa1vW23PQ3FWejRfxSvtsR2UQJAED3jaagqClB2nP8qdSFxIjFiH/wYrkHtl7uVOrnBZ+BY+AwcC6Bly1JDYSZqs1uSgqrTR6Ctr+IVQw//IMH2/2end80iqsqKCmz8bwM2/rcBACCTyTBw0GDExQ1vmSkYFo+ePf0EG89kMuGpBQ9j+W/WSx5379qBKddfC29vb+zeZd337/D4kXhm4UsYf+2E899zdnbB6NFjsWP7Vl59Zpy4UBZYwrUsA+SbZvn2iuCdANjrLp/ujhIAAk4kxuAHP0bi0odRnXmk4wYWDYbDwLvfQs9Y88vvciIx3IL7wS24H0KunYPMPz9B9qZlvMIQavU/AORmWGcRlU6nw9GkIziadARff7UUAODbsycGxcQiPj4Bw+JHIDY2DjKe5xy8/uoLVr34n3Mq1bqL1IbHj8SCJ5/FpMk3tvr7kybfyDsBqCorhrKuBi7unuA4QCLi0GzklwL4BIbxagdQAmCvaBEgAQCIZQoMf+Ib9Iyd0PGLLUQklWPw/R8iKGGaIP2pKvJ5t/UPFuZ5ulqlRFkR/ziEVl5Whq2bN+KtN17GlMnjERnqh1tumoj3330D27du7vRJd59/thhfffGphaO1bWPHjcc/G7fjv8272rz4A8Ck66cw7SbJz844/7WEoR6ATyD/9zTLvyViu2gGgJwnksoxZP4SnP77c+Rs/P6SY0ktTe7mjaGPfg6PsEGC9amqKODdNkCgBCA/K71Lf47mUqkasX/fnvOr6jmOQ++oaMTFxSNueDzi4uIR2TvqkgvY0aQjePft16wVstVdN2ESnln4EuKGde6MiICAQISGhSM3J5vXeGez0tF/aAIA8D4aGAB8gvjPAOibGtGsboDU0ZV3H8T2UAJALsGJxIie9iS8esfh5C+voqnG8tt//OOuR7/ZL0PuImwJWHVlIe+2PQNDBYmh+Cy/D31rMZlMOJ2ZgdOZGeen9z08PDF02HDExcVjcOxQPPvUozZfREdoHMdh4qQb8OxzL2Fw7FCz28cOieOdAORnpZ//WsyQADg4u8HB2Q1NjfzKczdVl1ACYGcoASCt6tEvAePe/g9n/vkKeTuWW+QYXyffYPS97Tn4xvA/s7wtzap66DUq3u09fYRZLFeSnyNIP9ZUW1uDbVs2YduWTdYOpctxHIcJk67Hwude5nXhPyc2Ng5rV6/g1ba08MIWUpYEAADce/jxTgDU1SVwDYpmGp/YFkoASJvEcgf0ufUZhE24Czlbfkbh/rVoViuZ+3UNikLE9Q/Cb+gki5Uj1tTzL7vr5OIKhYOjIHEU519dMwCkhUgkws1Tp+PphS+ib1/+RXTOGTI0jnfb6vIS6PXNkEikTI8AAMDduydK8zJ5tW2qLmEam9geSgBIh+RuPdB35kJET1uA8pTdKD22FdWZR6BV1nSuA46Di18Yeg6+Dn5xk+Ea2P72PiFo6/gnAELd/QNAZWmRYH0RyxOLxbhl+m14+pkXEBXdR7B+BwwYBJlMxqssstFoRGVpEfyCQiHiwLQV0N2b/3tbU1vOuy2xTZQAkE4TSeXwGzoJfkMnna/MpyzJhqrsLLQNVdBrVDA26yB1coXE0QVyV2+4BvaGW68+kDi4dGmsLDMAnj2ESQA0TepLSrmSCziOQ2TvKPj7B0Aml6OstBSnT2dAq2E7opoviUSCGbfejqeffcEihy7J5HIE9QpGTja/7XQVJQXwCwoFxwGcCOC7rtTN25dfQwDNKn6nCRLbRQkA4eeiyny2SKes5t3W2dVdkBhqKkoF6ceeeHl544mnFmL6rbOuKEqkUjVi6+aNWLLoA2RkpHVJPFKpFLNuvxNPPv0cQkIt+14ODg7hnQBUl194L4nBwchzDsDRxYNXOwDQqSiZtTdUB4DYJZa1CoIlAJV0gMrFbrp5GpKOp+ORx55stSKhk5Mzps2Yid37k/Dq6+9AJLLcx5NMJsPd9z6IxOR0fPr5Nxa/+ANAUK8Q3m2V9Rcet7H8WByd+R+qpWukGQB7QzMAxC41NzEkAC7CnDzIMv0fHByCgMBeOHH8GNRq/rsZbMU9983Dx4uXdqogjlgsxhNPLUSv4BDMu3+uoGcMyBUKzL3rXix4ciH8/QME67czevUK5t1WWXchAWj5GfL7mTi48N/G10wJgN2hBIDYJX0T/4umo7Mwe50bGRKAhFFjsfTL76DX63EqNQVJiUeQmHgISUcOoaiIf30Da0gYNQYffPSJ2dXwpk2/DWdOZ+DjD99ljsHBwRF333M/HnviGUHPQzAHSwLQcFECwLIRwMGJIQFQ294R1IQNJQDELrHUAFA4OgkSg5ohAfDy9gbQsjgtZvAQxAweggcfegQAUFpagsQjLclAUtIRnEw5jubmZkFiFppYLMYHH396xZG9nfXU089j1YrlKCjgV4pWKpVi3vzH8NjjT6OHjw+vPoTi6sb/0VKj8sLdN0tZYbkD//e2Uc/vKGFiuygBIHaJ5cNKKpUKEoOmSc27raenV5u/5+fnj6m3zMDUW2a0jKNpwonjx5B45HBLYpB0BNVV/HdBCGnipBvQp08/3u1lcjnmP/IEXnrhaV7tpVIZ3nz7A97jC8nJiX9tCf1F2wc53psAAYmU38FPAGDU22aSSfijBIDYJZOBf6lasUSYBEDP8IGpMOMoYoXCAfEjRiF+xIXz2nOys5CUdLjl0cHhgzh9OgNGY9efSXDjTVOZ+7hhys14+cVneK0FUKtVqK6ugpeXN3McrBwZZpaaL0kA+M8AiMX839uUANgfSgCIXTIyJAASgWYADAzT8gqFnGns8IhIhEdE4vY75gJo2WKXmpqCxMOHcPjwASQdOYza2k4WcmLQfwD74U6BgUFwd/fgHW9Dfb1NJAAODNUl9c0XzWgxrAEQSSQAxwE8kimjobmlHcMjCGJbKAEgdolpBkAszD8LlhkAoZKQc5ycnBEfn4D4+AQswLMwGAzIzExH4uGDSEo6gsQjh3A2L7fjjszUw1uY5+6+vj15JwAqG9lF4ejEMAMgUALAcRzEYgkMfN6bJhOMBj1EAs2QEeujBIDYJZYzBoTadiZiiEGnFf7wpYuJxWL06zdOVxWYAAAgAElEQVQA/foNwL33PwQAqKyoQHJyElJOJOPI4YM4cvgQNJompnGE2sLY2Mh/W6dcxjabIhSWv9NLaiKY2O7AjUYDv4YcB05smbM7iHVQAkDsEstdCsud+8VY1hKoVF1/19rDxweTJt+ISZNvBADodDqknEjG/ffMRklJMa8+CwsLEBoWzhSXTqtFRQX/OvTOLl1bhrotKlUj77YXv5dMDIsAjQYDTDzXgogkMnAc1Y6zJ/S3SeySiGGxk16gLXUSKf/8muWOVygymQxxw+KZauPv3LGVOY69e3fzOkQHaJnp8PTwZI5BCCx/p5c8EmKYoDIY+L+3xVLbmEkhwqEEgNgljuHum9fz0VZIGT4wGxv53y0KLTCwF++26/9czXzAz6oVv/FuGxjUC3KFgml8oTQq+f+dSi96jMHygIplYapYZhs/RyIcSgCIXWJ5BKDTCnMinRND2VVrPAJoy4CBMbzbFhcXYdl3X/Fufzz5KP5av5Z3+95R0bzbCq2R4RGA00XVKVmWqDTrGNYh0AyA3aEEgNgliZz/liuVUpiSp44MZwo0NNjOyWtDhsYxtX/v3TeQlHjY7HY1NdV4kPEsgJEjR/NuKzQlw9+p00UHVLH8PJpU/N/bNANgfygBIHZJ6sy/7KqqUZiLL8uhQvln8wSJQQiDYmLbrUzYEZ1WizvvmIHDh/Z3uk1paQlumz6FeWvi6DHjmNoL6SzD3+nFs0lGhhkAtZL/gT60BsD+UAJA7JLMif/FVyXQ3berB/+LZm5OtiAxCEEikZzfGcBXdXUVpk+9Hu+98zqU7cywGI1G/PH7L7h2XDxSTiQzjdmrVzAGxcQy9SGknOws3m3d3C+8l4wMMwAaFcNCRIUwZ2QQ20HbAIldkjqxHLwiTALg5cP/1Lm6ulpUV1XCy7uHILGwmnn7HKz441emPnQ6HZYs+gA/LPsGEyffgDFjr0FAQBBkchlKS0qQfDQR//37N++Dfy5368w7mA7OERpLUufl63/+a6YZAIbZLbm7bbwXiXAoASB2ScbwCKC+WpiDdNw8vSGRyi4t42qG7Owsm0kARo0ei+jovsjMTGfuq76+DmtW/YE1q/4QILLWSaVSzL37fov1by6j0Yjc3Bze7S9OAFjWADTUVPBuq/DoybstsU30CIDYJZmLB++21ZWlgsTAcSJ49uD/oZmbazuPATiOw4Inn7V2GJ1228zZCAriv31RaCUlxUxVFc/NJhlNbDMA9VX8Cyop3K17nDIRHiUAxC45ePp3/KI21FaVw2jgWS71Mn5BobzbZqSnCRKDUG6deQf69Rtg7TA6pFA44JnnXrJ2GJfISDvFu63C0QnuXi0XXz3L1R9AXRX/5NbBw5dpbGJ7KAEgdknh3gMcz0N9jAYD6mqEeQwQEBLBu+3BA/sEiUEoIpEIH3z8yaV16W3Qk08/h+DgEGuHcYkDB/bybuvfK/z8WgYjawLAMLulcKcEwN7Y9r9kQnjiRGI4MDyzrCrjV/v+cv69wni3TT15wqbqAQDAiJGj8cC8h60dRpsGDhqMBU88Y+0wrnBgP0MCEHzhPcQyA2A06JnWANAiQPtDCQCxWw5e/B8DFOcL8/w9KJx/JTqDwYAjhw4KEoeQXn/jPcQMHmLtMK7g4uKKH376HTK5be1XVyobkHryBO/2QaFR5782GPgnANWlBTDyPCab40RQuFECYG8oASB2y9E7gHfbkny2AjTn+AYEM5UE3r9/jyBxCEmuUODX39fAt6ftrAqXSqX4/qffmU8etIQjhw5Cr+d34QWAsD4Dz3/dzO8gPwBARRH/97SjTxDvR2rEdlECQOyWsx//i0GJQDMAHMchNIr/wjmWqWNL8vcPwLq/NsO7h/XvCkUiEZZ+8R2uvW6itUNp1b59u3m3lSscERhy4TRGvYF/BsCSALgGRnX8InLVoQSA2C3XwN6825bk5zDtt75YePTAjl/UhpMpx1FYWCBIHEKLiu6D9Ru2ICAg0GoxyORyfP/T77ht1myrxdAek8mEjf9t4N0+NKofRGIxAMDAuAWwopB/HQKXAP5HQhPbRQkAsVsuAfxX4KtVSlSWFgoSR9Qg/ofpGI1GrFu7SpA4LKFPn37YuuMAYoewHRjER8+eflj310bcPHV6l4/dWceOJiKPoQBQ1MALP1e9ni0hLcnL5N2WJZkmtosSAGK3FB49IWU4EyAn46QgcYT27g9HJxfe7S1ZMU8Ivj174r/Nu/DEUwu7bIvgdRMnY/e+JMSPGNUl4/G1ds0Kpvb9Ykec/7qZYQFgfVUZ0w4AlwBKAOwRJQDErrn4858FyM1MFSQGkViM6JhhvNtnZqbjVGqKILFYilQqxauvv4NtOw8gPj7BYuP4+wfgh5//wMrVf9vE+oP26PV6rF+3lnd7Z1d39Iq4sItEx/D8vyibfyEisUwBxx7We8xDLIcSAGLX3EP5P3/PzRDuojsgju1Odc1qtjvJrjIoJhb/bNqBP1auF/TuvFevYHy8eCmOHs/A1FtmCNavJe3euR3VVfwLSvUfmgCOu/ARzZIAFGbxT2Zd/CPAicS82xPbRQkAsWse4YN4ty0pyIGqnaNrzTFo+DiIJfy3Ua1Z/Qe0Go0gsVgax3GYOPkG/LtpB/YcOIonnlqIsHDzZ2J8fH1xx+y7sO7vzTh6IhP33v+Qze3xb89vv/7I1D424drzXxuMJhgZtgDmn+Zfh8AtuC//gYlNo42dxK55hMfwbms0GpGZkogho65jjsPJxRXRA+OQlnyIV/uK8nKs+ONX3HPfPOZYutL/2rvv8KiqNAzg72TSM0kggVRCQug1FOk9IAgqIgoo2BCsaxdssGBfC7i2ddW1oKjYxY6CioUqIL23gKQT0qfP3T/GIAkJmbn3TO6dO+/vefbZhyTnux+G5Hz31K5du6Nr1+7454JHkZeXi3VrV2P/vr04fPggiosKUV1dDYfDAZPJhLi4eLROz0Dbdu3Ru09fdOrkvx3Pvr178O03X8puHx4ZhS69/p7/tznk9/5VZSXIz9kvu318R/nTV6RtLABI18KbJSAiPgXmE7my2u/6Y62QAgAA+gwZLbsAAIAXnn8GV1x1LYIVjCSoKTk5BRdPmqx2Gk3i+WcXwqXglT2r3zCEhIae+rNVwQ6Agzs2AAq2tMZ1OEd2W9I2TgGQ7ikZBdi5SX6HXVefIeciNCxcdvucI4fx+WfyF5VR0zh+/E98+omyrZsDR11Y689WBUcAHty2XnbbqMQMXgOsYywASPdadOovu+3J4gLk5sjfx3268Mgo9B6sbDThmUVPKHqzJN978flFsNlssts3b5FY6+wIh0uC3B2AkuRyjwDIxOF/fWMBQLrXsttQRe03r/lRUCbAkDEXKWq/d89uRSfLkW/l5eXinbcXK4oxeMxFtc5TUPL2f3TPVlSVlchuH9+p6Q94oqbDAoB0LyIuCaakNrLbb169Ulgu7bv1Rqs2yg5VmXf/bFRXVwnKiESaP/cemM3Vstsbg4MxZMzEWh+z2uXP3+/aoKx4jW/P+X89YwFAAaFlN/l70o8fOYCCP3OE5ZI94TJF7f/88xief3ahoGxIlLVrfsUyhWs0+g4bi+YtEk/92SVJsMrcASBJLuzeuEp2LqbkTIQ3T2z8C8lvsQCggNCyq7LT6Tb9tkJQJkD/EeMQ0zxeUYznn12IA/v3CcqIlHI4HLh39h2KL5AaeeHUWn+22l2QG/HYvu2oOFksO5fk3ufKbkv+gQUABYQWnQcgOMIku/3aH78WdjtgcEgoRl4wtfEvPAubzYZ5D8wWkg8p9/JLz2PXLvnH7QJAp6x+yGjftdbHzAqG/7f++o2ifJLPGauoPWkfCwAKCEHBoUjsMUJ2+8Lcoziw8w9h+WRPuBxR0fIvKgKAlSu+0/RNgYHi8KGDePrJxxTHmTD9xlp/dknyFwDarWbsXP+D7FwiW7RCTFqnxr+Q/BoLAAoYyX2UDWmuXvG5oEyA8IhInHvxFYrj3Hn7zZwKUJHNasWsa69AVVWlojhdeg1A2y61j6222J2yh/93rv8RVrP8haJ8+w8MLAAoYLTsNhTBYZGy22/6bSXMCn/Rny57wmWIbhanKEZVVSVuuO5q2KxWQVmRNx5ccD+2btmsKIbBYMCFdd7+AaDaJn/4/4+fv1KSEuf/AwQLAAoYxtBwJPQYLru9zWrBmh/kn+9eV1h4JC664ibFcbZu2YyHFjwgICPyxvfLv8H/XnlJcZxzho1FZqfutT7mcEmyz/8vOHoARxVc/hMRl4Rmbbo3/oXk91gAUEBpNUjZQTw/frFU6El8g8dMRGqG9zfl1fXqK//hAUFN6OjRHNx847WKF4aGhIbh4qtvOePjZptTdsx1y99XkhKSzzkPMBgUxSD/wAKAAkrLroMREZcku31x/nFsXbdKWD5BQUGYPOsuxXEkScLNN1yLbVvFLVSk+pWVleKKyyahtPSk4ljnTroS8QnJtT4mSfKH/6vKSrBjrbItq2lDLlHUnvwHCwAKKIYgI1IHTlAUY+WydwVl49a5Z3/0HzFOcZzKygpMvuRCLgr0IYvFjOmXXaJ4yx8AJCSnYfyUa898hsMFp0teAbD++4/gsMu/hyC+U39Ep7SV3Z78CwsACjith16qaIjzwK4t2L9D2cKvuqbeMAfRsc0VxzlRXISpkyegID9fQFZ0OqfTiZuun4F1a38TEm/aP+5HSGjYGR+vssob/reaq7Dxh08V5ZQ+fIqi9uRfWABQwIls0QotFN5y9tXSVwVl4xYVHYtLZ94pJFbOkcOYOnkCKirKhcQjtzl334Yvv/hMSKxBoy9E555n3lJpd0iwOWS+/X/3AcyV8r/nYdFxSOql7LZK8i8sACggZYy+UlH7PVt/x74dmwRl4zYg+3z0HjxKSKwd27fi8ikXo6ysVEi8QCZJEubPvQdvL35NSLz4xBRMvX5OvZ+rlPv2X12Jtd8qW/yXNuQSBAWHKIpB/oUFAAWkxKwRim4IBICv3hM7CgAAV946r9ZlMEqsW/sbzh87Erm5x4XEC0QOhwN33nYTXvrPc0LiGQxBuObOBxEeGXXms1wSzDJP/lu3/ANYqiqUJIa0oVz8F2hYAFBAMhiCkDFymqIYe7dtxM5NawRl5BZpisHVdyyAwSDmR3PPnl24cFw2Dh7YLyReIKmursL0yy7GO0veFBZz/NRr0aFbn3o/V2mR9/ZfVX4Sa79dqiQtJHYfjqiE1opikP9hAUABK23oJQiJUnYe/0evPQOnwyEoI7fOPfvjwuk3CIuXk3ME5507DL9vWCcspt6dPFmCSy8+Hz+s/F5YzE5Z/XDBtPq/rw6XhGqbvLf/Hz96RdGxvwDQ7vzrFLUn/8QCgAKWMTQc6cOUrXrOO3YYvy5XtvK6PuOnXose/YYKi1fTofHyoMZt37YFY0YNwYb1a4XFjGuZhOvu/ReCgur/lSv37b/g6AH88bOy0ylbdh2M5m17KYpB/okFAAW0zLHXKLofAAC+fO8VVCuZf62HwRCEGXc/gsTUdGExq6oqcf2sq3DnbTfBYjELi6snb7z2Ms4bMxyHDx0UFjMkNAw3PPAUTDHN6v283Sn/7f+7d5+DpPBkyvYXnHkPAQUGFgAU0EJNzZGRPV1RjMryUix760VBGf0tMioatz38guILg+pa8vYbyB4+QMhhNnpRUVGO62ZeiXtm3w6rxSIsrsEQhJmzH0VG+64NP1vm2/+OtStweOdGuakBAOI79kNc+/rXJJD+sQCggJc5dgaCw89cle2NX779FAd2yb+ApSEtElNx09yFCAkNFRp33949GDtqKJa8/Ybi8+z93fp1azBiSF989smHwmNfOvN29BqU3eDnrXYJFhkr/63Vlfj+veeVpAYAaH+h8suoyH+xAKCAF2pqhjajrlAUQ5JceOfFx+Bw2AVl9be2nbMwc87jCDIahcY1m6tx52034YJx2dixfavQ2P6guKgIt/3jelwwLhs5OUeExx910TSMnnj2f1flFnkLSL9/7wVUnCyW1bZGXLveaNHpzMOIKHCwACACkDn2WoSalB3Fm3f0EJZ/KG7L2Ol6DRyJa+54UNj2wNOtX7cG2cMH4OYbr0VJyQnh8bXG5XLhg/ffweABPfHeu2/5ZARk4KgLGr3kqcrqhN3p/bNzdv+BzQoX/sFgQKdLlF9CRf6NBQARgJDIaHS46B+K43z9wWs4vNc3c+v9R47HtJvvg8EHV7W6XC58+P67GDygJ5a8/QbsdvEjGVrw6y+rMGrEQPzjxpk4cULZG3RD+g4bi6tuX3DW75NTAios8ob+l736iPvKQAVS+45HXPveimKQ/2MBQPSX9OFTEZ3aXlEMl9OJNxbOg9VSLSir2oaNuwTTb5nrk5EAACgqLMSdt92ErG5t8fyzC2E2++bv0ZQkScJ3y7/GuDHDcfGEsdi+TfxajRp9h5+HGXc93OB2vxrlZidcMjrxb95ahNKiPLnpAXBvf+10iZh7J8i/sQAg+oshyIjOl85WHKcw7xg+fl3M0bH1GTr2Ysyc8yiMwcE+e0ZhQQEefnAuenZrj6eeeAQnT5b47Fm+4nK58N3yrzFqxEBMv2ySzw9CGjbuEsyc/Uij3xerQ4LZ5v3K/92//4Rtq5fLTe+UtuNmISI+RXEc8n8sAIhOk9B9KBK6Kz+A55dvP8Yfa38SkFH9+g4bixvuexKhYeE+ewYAnDhRjKeeeBRZXdvhphtm4IeV38Mh+ORD0XZs34r58+5FVte2mH7ZJGzb+ofPnzlu8gxMu/n+RkdmXBJQVu39f7/Solx88b/H5aZ3SkRcMtqOvVZxHNIHFgBEdXS/YgGMYRGK4yx+Zj7yjh0WkFH9sgaMwN3/ehUxgs8JqE91dRU++uA9TL30QnRun4a77vgH1q1brZkthMeP/4lXXn4RI4f1x4ih/fDSi88iLy/X588NCgrCtJvvx8Srb/FobUaF2QGHy7v/Zg67DR8+PxeW6kq5aZ7SefIcGEN9WzSS/2ABQFRHRHwKOky4RXEci7karz5xL6w+PHUvo0NX3LtoMZJbZ/rsGXWdPFmCtxe/hgvOy0bXTum4buaVWPzGq9i/b2+T5VBYUIDPPvkQs++6FQP79UBW17aYe9/dPp3frys8Mgq3PvQCho+/1KOvt9pdqJJx4t/Xbz6NvMN7vG5XlzEsAvEdzlEch/TDd5OIRH4s89yrkLv+K5Qd3a0oTm7OQSx54VHMmvOYoMzO1CIxFfctegtvPfsgNq/+wWfPqU9NR1xziE5CYiIGDhyCjp06o127Dshs2w6ZbdshJkbepUs2qxWHDh/EwQP7cejgARw8sB8bNqzFvr3KO0QlUtLb4sYHnvb4qGanJOGk2fuh/00/LsOWX77yul29OVjNWLvwGgycvRhhsS2ExCT/xgKAqB6GICOyZjyOXx+5FJJL3lGtNX7/eTlS09ti3BTfzb2GR0Ti+vuexIpPl+Czt1+Ey6ksZ7kKCwrw+bJPzvh4y4QEpKWlIzo6GtHRMYiMikJkZBRiYmIAuA8lqq6qRmVlBcrLy1BVVYWC/DwcO3YULoVn3YvWd/h5uPLWeQgL92yaSAJQVuWEt3+NnD1b8O3bz3if4FlU5h3C2qevxoDZbyK8WYLQ2OR/WAAQNSAmrSPajZuF/V+/ojjW50teQlzLJPQfOV5AZvUzGAwYc8lVyOzcA28umo/iguM+e5a3igoLUVRYqHYaioSFR2DydXdj6NiLvWpXaXXC4vCu9y/OzcH7/74HTh+cLFmZfxjrFs5gEUBcA0B0Nh0uugXNMnsojiNJEt5+7mHs3abs8hZPtOvSE/98YSmGnjfJ588KFOntu2Dus+963flbHRIqzN6NxlRXlGLpotmwCL5h8nQ1RYCl1L+LMlKGBQDRWRiCjOh57b+E7ApwOOx45V/3IO/oIQGZnV14ZBSuuGUubpq3CM3iWvr8eXoVEhqKi668Gfc+/SYSW3l3NbPLBZRWe/cGb7OY8d7C2Sgp+NOrdnJU5h/GukXXwlrmmxMRSftYABA1wpTUBl0m3yMkVlVFGZ554AYU/JkjJF5jeg4YgQf/+zGyJ1zW6Ol0VFv7rr0w7/mlGD91pteHLkmShJJqB5xejPw7HXZ8+Pz9OH5wp5eZylezJoAjAYGJvxGIPJA+YiqSep8rJFZ5aQmeW3ALThYXCInXmIgoE6ZePwf3LlyMtl2ymuSZ/iyuZRJm3fM47n7if0hqleF1ewlAmdkJmxfz/i6nAx88ez8Oblvv9fOU4khA4GIBQOShnjMegympjZBYJwpy8e+5N6H8ZNPdvpfRoSvmPPk6rrv3CbRITG2y5/qL8IhIXHTlzXj4lU/Rd9hY2ZcuVVqcqPZiv7/L6cSnLz2I/VtWy3qeCJV5h7B24TUsAgIMCwAiDwVHmNDn5ucQHBYpJF7B8RwsvO86lBTlC4nnCYPBgHOGnouHX/kUM+56CC2TWzXZs7UqLDwC2RMuwyP/+xzjp85ESGiY7FhmuwsVFs8X/Tkddnz0wlzsXN+05zfUR0QRIEkuWMuKUV10DE6r7w7AIjG4DZDIC9Ep7dDjmkew+ZW7hcQrOJ6DhffOwh2P/RcJyWlCYnrCGByMAdkX4JxhY7FmxedY8dm7KMw92mTP14JIUwyGj7sEoyZOR3Rsc8XxrHYJpVWeH/Zjt1nw4bP348A2315S5I2aIsDTw4Ls1eUo3P4LCrb8hJIDm2EtK651boYxLAKmxAy07D4USVnZiG3TzWc3WZL3WAAQeSml7ziUHdmBg9+9KSTeicI8dxHw6EtIad1WSExPBQeHYNi4SzH0vEnYtuFXrFz2LvZt39SkOTS1hOQ0jLpoGgaOvtDjw3waY3NIKKlywNNT/q3mKixdNBs5e5ru6GJPeVIEmEvysP/L/+LPtV/A5bA1GMtpNaPs6G6UHd2NA1+/iuiUtug46U4k9cz2VfrkBRYARDJ0uvRuVBUdQ/7mlULilZUU4+l7ZuGmuQvRoXsfITG9YTAEIav/cGT1H46CP3OweuUXWLvyC5SX+t81wPUJDglFVv9hGHreJHTK6id7fr8+dmdN5+9Z919eUoj3Ft6NgqMHhOUQEREJq9Ui7NTEBosAScLhlUuwZ9lzsob4K3IPYuOLt6B5217ImvEITElNd4cFnckIYAEAWT8N3QX9otq3dwdsNqustm1GX4mQKHnnjBPJZTAYkJg1EsW71gjbQmW3WfH7z8sRn5CEVm06CIkphymmGTr37I9RE6Yho0M3BAcHo6QoH3aZP6NqCQ4OQZfeAzFuyrW4+vYFGJB9PlomtRLa+TucEkoq7fD0gr/8I/vw1uP/ELrPPzQ0FKNGX4ik5FY4duywsBsabZUnUbj9ZyT3GYPg8Eg4bRZsfuUuHF65BJJT2ZXQlpP5+HP1MphS2wlbWCuH1eaAw5u9mqdxmitQsPoDWW1DQ8PQsWM3AIDL5VJUuO3Zs012WxYARDIFGYOR2DMb+ZtWwF5dLiSmy+XC1nU/Q4KEDt36CO2svBUUFITE1HT0HDgSoydOR7vOWYiMjoW5ugJV5WWq5XU2Mc3i0HPgSIy95Cpccds8DBkzEWmZHRESGir8WXanhJJKB5we9rf7t6zGewvvhrlSzL8VAAgKMmL48PMQH5+AmJhmaN483idFQMtuQ7Dp5TtRtFPcTgWX0468jd8hMj4FMWmdhMX1RqAXAJwCIFIgLCYe/W5/GWuevBK2ypNCYkqShK/eexXHD+/HNXc+hPDIKCFxlQgODkHXPoPQtc8gAO51C3u3bcSh3VtxcPc25B07DElq+kt7mrdIRNvOWcjs3AMduvZGq8wOTVI02bx485ckCb9+vhirPn0NkuCLjQYMHIGExJRTf05NTceQoefit19XCJ0OWDXvfMWXYtVHcjmx9c15kCQJaYO9O2aZlGMBQKSQKTkT/e98FWsXXguHWdz57X+s/Qm5Rw/hxrlPN/niwMbEJyRj0OgLMWj0hQAAc1UlcnMO4njOAeTmHET+n0dwojAPJUX5cNgbXiTmCYMhCM3iWyI+IRmJqelIbp2J1Ix2SElvq8oxxzanhBOVdnjykm2pqsBnLz+EfX+I3+Pf55zBSE8/89+FL4oAX3T+p2JLLmxb/E8AYBHQxFgAEAkQm94V/W7/L9b/+zqh+58LjufgibuuxhW3zEO/EecJiytaRJQJbbtknXHSoCRJKDtZjIrSElRVlKGyvBTmqkrYbTbYbZZaXxtkDEZ4RCRCwyMQZYqBKaYZomObIza+JYKDQ5ryr9Mgi92Fk9UOjzr/vCN78dELc3HSB7cyZvXshw4dujb4eV8UAb7EIkAdLACIBIlr1xt9b30JG567ES67uAVzVosZry+ciy3rfsIVt8xFpClGWGxfMxgMaBbXUhcXElVZnSg3Oxtd6y9JEjZ8/yFWLP2PT67z7datN7p06dno16WmpmPYsLH49dfv4XT67g1eFElyYevieXA57EgfPkXtdAICT2QgEqhFp/445+bnEBQi/zS5hmz6bSUevW0a9u/YLDw2NUwCUG52osyDzr/8RAHe/tetWL7kWZ90/l269ET3Hud4/PXJKWkYPGS0/1wEJUnY8c7DOLb6M7UzCQh+8q+CyH8kdB+Gfre/LOzI4NOdKMzDMw/cgI9e+zesFh616msuCSitcqDSevY3aEmS8MfPX+G/D1yJI7t8c5BS9x7nIKtnP6/b1UwH+EsRUDMdwCLA9/zjXwSRn2nRqT8GzFmMUFMz4bFdLhdWLnsHD/1jCnZuWiM8Prk5nBKKK+ww288+h36y4DjeefJ2fPG/x2CpErcI9HS9eg1At269ZbevmQ4wGo0Cs/KdmumAnJ8/VDsVXWMBQOQjzTK6of9dryM0Os4n8U8U5OL5Bbfi9YVzUVbCW9xEsthdKK60w3GWfX4Ouw2/LHsDL903DYd2/O6TPAwGA2iQPmUAACAASURBVPr2G4pOnXsojsXpAKrLT/4lEPmn2NadMeSBpT497WzDquX45/UT8eniF2C1VPvsOYFAktzz/SVVjrPu8d+3+Te8dO80/PTx/xRvc2yIMTgYQ4eNQbt2nYXF5EgAnY4FAJGPRbZMw6D73kHztr189gyrxYzvPl6MB2+ajN9/Xi7sJLhA4nRJOFFlP+t8//GDu/DGwzdg6TNzcLJQ/Pa+GuHhERg16gKkpqYLj+3rkQADgOgwgQUGRwJ8hgUAURMINTXHwNlvIKWvb/fylxTl47Wn5+LRWy/HH2t+ZCHgAQnuLX5FFXbYHPX/98o7shfvP3MPXntwFo7tk3/0qqf69RuG+PgEn8VPTU3HgIEjhMc1ALhnTBKW3dgOXZPF3LQIcGGgr7AAIGoiQSFh6H39IrQ//wbAx8fV/nlkP15+fA4evW0atqxbpcoxvf7A4XKf519mdtY75J9/ZB/e//e9ePWfM7B386/w6AQgATZs+AVlZWKOlq6Pw2HH/v27hMas6fwn9WwOU1gQnp/SmkWAxvEyIKKmZDCgRecBiM3oiqLtv8Dlo/njGuWlJ7Dxl++xYdVySJCQmt5OM6fqqa3K6j7Vr+5CP0mScHjnRixf8m98v/QFnMjNafLcHA4Hjh07jJTkNISHi+tEa2L//PN3KCrMExbTAGD26CRc0qv5qY+FBhswqlMMNh2tRlGlstsD/yahYOtPCIttiWYZDZ+E6KlAvwyIIwBEKkjsMQJD5n6I6NT2TfK8wrxj+PDVhbh/xvn4fMlLOFlc0CTP1SK7U0JRhR1l5tpH+tos1dj04zK8dO80LHniNvf5/SpOoVgsZvz449dCRwIcDjtWrfoGhQW5wmLWvPlf2rv5GZ/zxUgA1wSIwxEAIpWEmpohbdBEmEtyUfHnviZ5pt1mxf6df+CHz5fi0J5tMAaHICElDUF+sipcCZckodziRFm1s9YVvkf3bsWqT1/HF/97DLt/X4XqilL1kqzj1EhASmvFIwHuzv9bFBXmC8qu9rB/Q3w1ElC4dRUi4pMR21r+LolAHwHgXQBEKjKGRaDXrKeQ0G0otr/7qNDbBM9GklzYuXktdm5ei6joWPQdNga9B49G+269/WefuIckCTDbXSi3OOH6a7i/8M9D2LXhR+xYswIn8o+qnOHZWSxm/PjDV8gedQFiYxvuaM/GJ52/Abj33GRc3LPxw65qRgJu+/AoduaJOcGSFwgpxwKASANSB1yI5u16Y8vr96Fkv2+Okm1IVUUZVn39EVZ9/RGim8Wh18CR6DUoG+279kZIaGiT5iKa2e5ChdkJu9OJvCN7sXfTb9i14QcUqzCvr4SSIsBXnf+CizMwtW88KkrNHu02YRGgPSwAiDQiskUqBs5ZjIPLX8e+L16Cy+HbBYL1qSgtwS/ffoJfvv0EIaFh6NCtN7r0HoguvQcgOS0TBh/vXhBBAmB1uJCbW4C9W9fjwLZ1OLTzd1SXa2doXw45RYAvO/9pg9zbFKObRbAI8FMsAIg0xBBkRLvx1yOp12hse3s+Svard/Of3WY9NU0AAFHRMcjs1AOZHbsjs3MW0tt1RkSUSbX8Tuew23D8yAHs2bkVB3dvR86+bSgtErfKXSu8KQIcDjtW/fQtiop81/kDgDHEyCLAT7EAINIgU3ImBt2zBDm/fIQ9nyyCvbpp1gacTVVFObb//hu2//7bqY/FtUxCcutMpGa0Q3JaJlokpSC+ZTKat0j0ycLC8pMnUFyQi5KiPOQfO4LjOQeRm3MAhXnH4NLgnfeGICNSB1yIgi0/wl5dLiSmJ0VAU3X+NVgE+CcWAERaZTAgffgUJPUciZ0fPInc379VdVtafUqK8lFSlH/GrYRBRiOaxycgNq4FoqJja/0vODgYwaFhCA0Nq9XG6XDAaqmGJAFVFaWoqihHZUUZqivKUF5WgpLCPNhtTT8tIld8x37oetn9iEnriLKcnVi3aGaTFAFN3fnXYBHgf1gAEGlcWGxL9L5+ITLHXINd7z+BkgPqTQt4yuV04kRhHk4IPGzGX4Q3T0Sni+9Aq4ETTp34GJveFQNmv4n1z8yErVLMWoRTRUD2+Yht5r5x8tQhP4I7//kT08/a+dfQShGwdfE8uBx2pA+fIiSmXulrvw+RjjXL6IZB9y5Br1lPISIuSe10qA5jWAQ6TrwNIx/7Fq0GXXTGcc+xrTuj/53/Q0hkjLBnnn5YkPvNX/AhP3+9+U8fnOhxm5oiwNMFo6awIMwfn4wgketLeViQRzgCQORPDAakDrgASb1HI2fV+zi4/HVYy0+onVVAM4aGo/XQS9F23CyENzv7W3JselcMuPt1n0wHmEzRKC4uFBIT8GzYvyHejAQUVzpwz2d/nvX6ZTk4HdA4jgAQ+SFjaDgyx1yD7CdWoOtl9yMstqXaKQUcY1gE2oy6AiMfX46ulz/QaOdfo2Y6INTU+AE6nrJYzMI7f0+H/RviyUhASZUDt3xwFDklvlnbUTMdkPPzhz6J7+9YABD5MWNoONqMvhLZjy9H58lzODXQBIIjTGg3/nqMenKlVx3/6XwxHSCKnGH/hpytCCiudODGpTk4fELeMfAe43RAgzgFQKQDxrAItB07A5mjr0Tupu9w+Pu3UHpkh9pp6UpEXDJaD5+CjJGXC+m4fTEdoJSSYf+G1DcdUFzpwM3v5/jszb8uTgfUjwUAkY4YjMFI7Xc+Uvudj5L9m3Hkx3eR/8cPqpwqqAeGICMSug1F6xFTkNBtKAxBYs820FIR4IvOv8bpRUBRhb1JO/8aLALOxAKASKfi2vdGXPvesFdXIG/jt8j5+UOU5exSOy2/EBbbAq0GTUT68KmIbJHq02fFpnfFwDmLsW7RtcK2CHpLxJx/Y4whRtiCg3HLhwebvPOvwS2CtbEAINK5kMhotB42Ba2HTUFZzk78ue5L5G/6HuYScXvF9SAkKhZJPbOR3GcMWnYbIvxt/2xi0jqh/53/U2UkwJdv/qcrLLfhylf34XCxj+f8G/PXmoCg4BDEZo1TNxeVsQAgCiCx6V0Rm94VXafeh4rcA8jb+B2Or/8KVQX+dTueKKGmZkjoPgzJ54xFy65DEBQcolouaowENMWbPwAUV9hxzSt7cbjI4tPneKpmJKD95Go07zNB7XRUwwKAKEBFp7RD9IR26HDhzSj/cx+Kdq5G0c7fULJ/s27XDBiCjIhJ64j4jv2QmDUCce37NOmbfmOaciSgSd/8/7tHM53/KZKE/R/9C5lSEFqcc4Ha2aiCBQBRoDMYEJPWETFpHdH2vGvhtFlwYu/vOLF3PU4e3ILSIzvhsqs8bCuTu8PvhPiO/RDf8RzEtT8HIZHRaqd1Vk2xMDDgO/8akguHPn4MAAKyCGABQES1GEPDkdB9KBK6DwUASE4HynJ2uYuBnB2oOL4flXmH4HLYVc60NoMxGNHJbRGd2h4xrTogulVHxLXrieAIbXf49fFlEeDPnX+o0YD541OwdGOJsLsDArkIYAFARGdlMAajWWYPNMvscepjksuJqoIcVBzfj4q8gzAXH4f5RC6qT+TCcjLfZ8VBUEgYwpslILxZS0Q0T0ZEfAqi0zogJqU9TMmZMBj18ystKqkNohLTUXp4u7CY/t75P3lxKwzKNGFgpknoBUKBWgTo56eFiJqMIcgIU3ImTMmZSK7zOUlywVpaBFtlKexVpbBVlcFWcRL2qjLYLZUAAJfNAqe99jqDkKgYGGBwD9EHGRESEQWDMQRhMfGIaJ6EsGYtEWpqjkDgctiw8T+3svP/y+mdP+CbWwQDsQhgAUBEQhkMQQhvnojw5sqPkg1UO957HMW71gqLp6fOvwaLAOV4FwARkYYUbPkJR38Rd3mNHjv/GjVFQNfkCGHPrCkCijd+JS6mRrEAICLSCJfDhp3vPy4snp47/xosAuRjAUBEpBF/rv0C1cXHhcQyGIAHJ/lp5x9swAtXtsXgtp7t4GARIA8LACIijTj2m5gra2tO+Lt8oP+d8BdiNOD5q9pjZLe4Bq8Sro/vioBHUbhen1cJswAgItIAa0UJSg9vUxynpvOfPti3izCLK+y46uU9OFAgaAEe3J3/C1e3R3aXZgD+vkVQ3SJAwpHPntRlEcACgIhIAwq3/QzJ5VQUo2bY39edf2G5DdNe2i208w8NNuCla/7u/Gtopwh4SnfTASwAiIg0oDL3gKL2TT3sf8QHw/7DOzer9/PaKAL0Nx3AAoCISAMsZcWy2+pp2L8h2igC9DUdwAKAiEgDrOXyC4C7xrXS1bB/Q7RTBDyFoo1fi4upEhYAREQaYIBnnVp99uaZ4XRJArOprbDchiv+u0fosH9osAH/ubrhYf+GaKMIcCH3h9fFxVMJCwAiIg0IiYqV3farP07gvg8O+aQI0FLnX0MTRYAOsAAgItKAqITWitp/vukE7n7voNAiQI0Ff55iEaAcCwAiIg2IzeimOMY3W0qEFQFqLvjzFIsAZVgAEBFpQItO/WEMDVccR0QR4A+dfw0WAfKxACAi0oDgCBNadhsiJNY3W0pkrwnQwmp/b7EIkIcFABGRRmSOuUZYLDlrArQ8598YFgHeC1bSuKSkCFCwdaWGU8HxlxXHD8BeXa44ByIitRlDwhCd2h4Vx/cLiffNlhKEGA14YmomjEFn/12txdX+3qopAipKzZCkxgufmiLgtg+PYmeeuBGPxjhdTpSUuM99cDgdcDoc8gJ58Hc8GwMAF0T04kREpEnje8Zh0bS2DRYB/jTn7wmn3elxEQAAlVZXkxcBGiAZASwACwAiIt3an2/G4SILzu3WHEF1hsj11vkDQJAxCCGhRtisnr1ZhwYbMKpTDDYdrUZRpcy3cT/EAoCIKADUVwTosfOvwSKgcSwAiIgCxOlFQEmlQ7edfw0WAWfHNQBERAFmfFYcduVW+/WCP29wTUC9JBYARESkiNbe/OvDIuAMEs8BICIi2fyh8wd4TkB9OAJARESyaHnYvyEcCTiFIwBEROS9pjrhTzSOBPyNBQAREXnFX4b9G2IMMcLEIoAFABERec7fO/8awSFGRMaEefz1eiwCWAAQEZFH9NL51wgNC0FwqNHjr9dbEcACgIiIGuXrK33VEhHl+SgAoK8igAUAERGdlb8u+POEMTgIhkZuSqxLL0WAom2AWT17i82GiIhksVjM2Ltnt/C4/rjVz1sVJ6vhsHt/Lb3SLYLR0THIyGwLl4JrfXdu2yK3qRQs+6kAVv60xuNVlERE5DuSJGHe/bPxyssvCo3bNzMGQzrGCo2pOTK7MVNYECb0aCa7AOjVuw/e+egrVNvsstpLkoTOac1ltQU4BUBEpAsGgwGP/mshbrjxFqFxV+8rw/0fHIbTJf8tVeskmX+3DUeq8MwP+bKfGxVlkt1WBBYAREQ6YTAY8NgTi3DbHbOFxl22qRh3v3dQl0WAS5LgdLi8brfhSBVmf3oMVof8/yat0tJktxWBBQARkc78c8GjwkcCvtlSosuRALvF+2t/RXT+ANClSzdF7ZViAUBEpDMcCfCQBFiqrF41EdX5GwwGjDr3PEUxlGIBQESkU/MffEx4EfDNlhJ9FAESUFVuhsuLv4eozh9w76JLSUlVHEcJFgBERDrG6YB6SEB1pRU2q+fD/yI7fwCYMnW6kDhKsAAgItIxTgfU8VfnbzXbPG4iuvNv3Tod18yYJSSWEiwAiIgCAEcCoInOHwDue2ABQsO8O4LYF1gAEBEFgIAfCdBI5z/hokmYPHWasHhKsAAgIgogAbkwUCOdf/cePfGfl1/XzAm6LACIiAJMQE0HaKTzz2iTifc++AwREZHCYirFAoCIKMAEzHSARjr/tLTW+PTz5UhOThEWUwQWAEREAUrX0wEa6vw//3olWrdOFxZTFBYAREQBTJdFADt/j7AAICIKcLoqAtj5e4wFABER6aMIYOfvlWC1EyAi79ntdhQXF8Fm9e4iE9FCw8LQsmUCgoP5q0QP5j/4GADg+WcXCov5zZYSAMCiaW1hDPLh9jd2/l7jTy2Rn6ioKMerL/8HXyz7BLt27YAkaWOltcFgQJcu3TBx0mRcd8PNMJmi1U6JFPDLIoCdvywGAK6//t9rRSctmjnQgEjP1q39DTOuvhxFhYVqp3JWCYmJeOOtpRgwYLDaqZBCDz84V2gRAADje8aJLwL8vPOvtjlQbbPLeqYkSeic1lxWWwAS1wAQady6dasxaeJ4zXf+AFBYUIBJF43DhvVr1U6FFPKLNQF+3vmrjQUAkYZVVVVi5jXTVJ/r94bNasXMa6ahurpK7VRIIU0XAez8FWMBQKRhb7z2Cgry89VOw2t5ebl48/VX1U6DBNBkEcDOXwgWAEQa9vmyT9ROQTZ/zp1qm//gY7j9zjlCY8ouAtj5C8MCgEijJEnCrp3b1U5Dth07tmlmpwIp988Fj6pfBLDzFyoI7l0AsrhcspsSUSMsFjNsNs9/0WmNzWqFxWJWOw0SaN78R3DjTbcKjenxLYIa6fwz2mTiq+U/Cez85eemsA92BQGQvVKHi3yIfCciIhKRkVFqpyFbVJRJU1efknIGgwGP/muh8JGARm8R1EjnX3OrX2pqK2ExlQySVVVVKnl0RRCACrmtKysVPZyIGtG3X3+1U5Ct/4CBaqdAPtKk0wEa6vx9MeyvJMMqZX2wsgKgID9PycOJqBFTLpuudgqyTZ4yTe0UyIeapAjQeecPQNE6mcICRX1wRRCAUrmtD+zfp+ThRNSISydfjh5ZvdROw2s9e/XBJZMvUzsN8jGfrglwSpro/MXP+dfmVFAAHDl0QMmjS4MAHJTbeu/e3UoeTkSNMBqNeOudD5GUlKx2Kh5LTk7B4iUfICiIm4z0zmAw4JHHnxZeBCzbVIw57x6AuVr9zv/zr1YInfOvy6XgQKSD+/YqefTBIACyX+PXrlmt5OFE5IG0tNZY8dMaDB4yTO1UGjV02Ais+GkNWrVKUzsVaiK+Whj41baTmP/lcY+2CPrLgr+6JAlwKRgB2LBOUR+81wBgKoD35bQODQ3FgSP5fr1Smcif/PTjSnz+2cfYtm0Lyspkz94JFRvbDFlZvTBx0mQMH5Gtdjqkokcemofn/v200JjndorBQxekNHiBkL/N+Z/O5nCh3CLvmO+qykr079YGDoe8i4QATA4GsEtua5vNhhXfL8dFEy+RG4KIvDAyezRGZo9WOw2ies2b/wisFgte/u8LwmKu2FOOYKMB88enoG4N4K/D/jXsTqfstqt++E5J5w8Au40AigHcAkDWhl2b1YpJl05VkgQREemAwWBA9ugxsFqtWL9ujbC4B4qsOFpiw/D20Qj66wp6X735L/vye6SltRYW82yqbQ7ZUwCLHn8QOYdlL+E7AeDempMAf5Eb5YeV3yEvL1ducyIi0hlf7A5Ysaccj3ybB5fkn6v963K5AIfMk/zyco/jt19+VPL4nwC4jH/9oSWA8XKiuFwuSC4XskePUZIMERHphMFgwMhR56KivAwbN24QFvdAkRVrDlXi/U0lsPnpsH8Ni8MBu1NeAfDcU49h6+bflTz+RQAba2ZUOgCQvZ8gIiISm7bsQUJiopKEiIhIRyRJwj8fmCN0TYBoanT+AFBabZU1AlBYkI8xg3vCYrEoeXw7AAdrRgBOALgAQIqcSA6HHUXFhTj/gouUJERERDriqzUBojT1nH8Nh9OFartDVtv5992B3Tu2KXn8OgBPA4DxtA+GQeY0AADs2rkDgwYPRev0DCWJERGRzgwbPlL4dIBSGW0y8eU3PzR55w8AlVa7rBMA1/y6Cgsfm6/08f8C8DsAnL6pIh5ALoBQuVFTUlLx068bEB/fQll6RESkO744J0COptrnXx+Hy4XSau/3/pecKMbFY4cqvYPHBiAV7t1/tUYAzAC6AOguN3JFRQX27NmFiydN4TGgRERUixZGAtR88weASqvNo9MNT+d0OnH79Vdj905FQ/8A8AGAd2r+YKzzyd0AbkLtkQGvHDp4AEVFhRh7nuzZBCIi0iG11wSoNedfw+Z0otrm/dz/Ywvuw9fLPlb6eAnAdACFNR+oWwAUAegNoJOSp2zdshl2ux3Dho9UEoaIiHRIjZEAtd/8JUioMNvg7cz/M088jMWvvigihc/g3v53St0CAHDfDjgLCkYBAGDd2tUoKirCqNFjOB1ARESn+OqcgIaotdXvdFVW7/b9O51OPPTA3Xj7tf+KeLwE4EoAtRYQ1FcA5ALIBJCl9Ilb/tiErVs3I3vUuYiIkHXSMBER6VBTFQFa6PytDieqbZ6f23+y5ATuuPEafPPFJ6JSWAzg5bofrK8AAIC1cI8ChCt96qGDB/Dpxx8gq2cvpKmw4pKIiLSpZk1ARXk5Nv6+Xnj8NpltVe/8HS4XKsyed/7r1/yKWdMnYef2raJSKAEwEUB13U80VABUAagAcL6Ip1dUlOP9pe/gaM4R9Os/EJFRvD6YiIjcskeNQUREJH795SdIMi/HqatvvwH45LNvkZSULCSeHC5JQrnZBpcHM//FRQV46IHZePKReaisqBCZxp1o4L6fs83zBwFYAUDoBd9RUSZcPWMW/nHLnUhMShIZmoiI/Nh3y7/G3Xf8A/kK9roHBQVh5nU3YsFDjyM8PEJgdt5xSRLKzNZGt/wVFebjjZdfwPvvvAlz9Rkv6UqtBDAW7kv/ztDYQr8kAFsACD/kPzQ0FOeOGYepl1+B7FHnqvqNIiIibSgvL8PTTzyKt996A1VVlV61HTxkGP654FGc07e/j7LzTM2bf0Nn/VssFvy26gd8/vFS/PzjCths3h8M5IE8AL0AFDT0BZ6s9B8F4Hu4RwR8Iiw8HH379segwcPQsVNntG3XHikpqTBFmRAaFuarxxIRkUaVlZXi/aXvYMV332Dt2tWwNnD5Tbv2HTB69FhMuWw6emT1auIsz+R0ud/8XZIEu92G6qoq5OUex5FDB3Bg3x5sXL8Gf2zcAKtV0WU+jaYB4Fy4r/1tkKdb/eYAeEppRnoUGRmFlNRUDBgwGJdNvxIDBgz2yXNsNhs+eP8dfP3lMuzauQPV4oeKiIg0yWq1wmw+83ee0WhEdHSMChnVT4KEmiUMFrPZV2/2nrgbwDONfZE3e/0XAbhLdjoB4qKJl+C5F1+ByRQtLOYfmzdi1rVXIOfIYWExiYhIlxbC/dLeKG8KAAOAtwFcISejQJLVsze+/GYlIiOV73ZYt241Lp14PiwWs4DMiIhIx5YAuBrw7MDBhrYBNuQrAG0A9PCyXUApyM9DUWEhzht/gaI4paUnccG4bJSXlwnKjIiIdGoJgJlwz/97xNuFfXYAVwH4t5ftAs57776FvXt2K4rx0ovPorioSFBGRESkU4vgfvP3/MQhyFvZL8G9FuBeNLC3kACXy4Vln32kKMYnH70vKBsiItIhF4DZf/3P6xOUlGztewrAaNS5XID+tnnT77LbniguQk7OEXHJEBGRnhQBGA/3278swQoT+AlAHwDvARihMJbu7N27Jx/AW3La7tm9Ow7AdWIzIiIiHfgRwHQA+UqCKLry9zRGADcDeARArKCYevA93McwypGAs5zgREREAacUwDy4b/bzeLFfQ0Sd7ucE8AKATgDegYy5CJ3apKBtEYBjohIhIiK/JcG9yr8TgP9AQOcPiD/eNx/AlQAGwb1lMJALAQnAByq2JyIi/ybB3ZcOhHsHntBRYVFTAA3pCeABABdD+XoDf/Me3HM0SrQEsBdAc+XpEBGRn3AA+AzA43BfyOcTvi4AaiQCuBzuCkb92xp8bxfcoyAiTvAZA3cFGCIgFhERadcfcJ+4uxRNsAasqQqA03WGe2FcNoDhALRzk4MYy+F+8y8RGHMk3CMKSQJjEhGRusoB/Az3qv7vACg7Pc5LahQApwsGkAV3UdAJQAcAbQE0g3s3gQmA1u8DluBe+/AbgMUAvvHRc0wAbgQwCe6jmJVfNEBERL5kB1AB9+r9MgAH4Z7W3Qv3SPFWuIf7VaF2AUDymcBpAU8tAXC+nIYXX30rho2bJDgdz1RXVWDuzAmy2kZGReOx178QksfcmRNQXVUhq+1jr3+ByChxN2N645dvP8Vnb70gt/nXcC9oJpKrGoBq9wF7ItAW5ulJpdoJ+JFkuQ2T0jIQafLDWSqDQVzeBvnvCZFR0ar990tsla6keRKAk4JSIdIk0dsAibQoQ27D+ATZtQOprEVCipLmGYLSINIsFgCkdzEA4uQ2jk9U1ImQiuITFRVv8dDfAmWiWlgAkN5lyG0YEWVSbf6alIs0xSAiyqQkhKI5BCKtYwFAepcht2GLxFSBaZAa4jkNQNQgFgCkdxlyG3L+3/8pnMLJEJQGkSaxACC9kz2My/l//9dCWRHHKQDSNRYApHcZchtyBMD/xSn7HmYISoNIk1gAkN5lyG3IEQD/xykAooaxACC9y5DbkCMA/o9nARA1jAUA6RnPAAhwPAuAqGEsAEjPMuQ25BkA+hBpilH6feRCQNItFgCkZ23kNmyRxDMA9ELhSI7sf0NEWscCgPQsQ25DhXPHpCEK13JkCEqDSHNYAJCe8QwAUvq95BQA6RYLANKzDLkNFe4fJw3hCABR/VgAkJ5lyG2o8AQ50hCeBUBUv2C1EyDyIdnDt/4+AmCuqsTcWROExfJnHAEgqh8LANIrRWcA+PtNgJLkQnH+cbXT0ASF38s4ALEAysRkQ6QdnAIgvZK9fUvAPfKkIQLOdOBCQNIlFgCkVxlyGyo8PY40iOsAiM7EAoD0KkNuQ54BoD9cB0B0JhYApFc8A4BO4VkARGdiAUB6lSG3ob/vAKAzcQSA6EwsAEiv5I8AaKQAMBj8/8dTK38HrgEgOpM2fjqJxJN/EZBGpgDCI6MQHByidhqyBQeHIDwySu00AHAEgKg+LABIj2IANJfbWCtTAAaDAcmtM9VOQ7aU9LYwGAxqpwFA8QhAHNz/poh0UgtuTwAABVxJREFUhQUA6VGG3IaRUdFK94wL1XtQttopyNZ7yGi1UzhFwPc1Q1AqRJrBAoD0KENuQ63tABh54WUwxTRTOw2vRTeLw8jzp6idRi1cB0BUGwsA0qMMuQ21sgCwRkSUCbPmPI4go1HtVDwWZDRi5uxHNTP/X4PrAIhqYwFAepQht6HWRgAAoHOv/rhl/rOINGl/GjrSFINbFjyHzj37q53KGTgCQFQbLwMiPcqQ21CLBQAAdO0zCI+8+hm+/+RtbPxtBU4U5KqdUi3xiSk4Z+gYjL3kKkRFx6qdTr1YABDVxgKA9Ej2GQAtNDYFcDpTTDNMmnEbJs24DdWV5aiurFA7JQBApCnaL0YnFH5veRog6Q4LANIj2WcAaHUEoK5IU4xfdLpaonB7Z4agNIg0g2sASG8UnQEQz4uAdKtFYqqS5nEAtDm3QSQTCwDSG9lv/5GmGEREmUTmQhoSEWVSehYApwFIV1gAkN5kyG0Yn6jd+X8SgwsBif7GAoD0JkNuwxYc/tc9ngVA9DcWAKQ38m8B9JMFgCSfwu8xpwBIV1gAkN5kyG2olUuAyHc4AkD0NxYApDcZchtq+QwAEoNrAIj+xgKA9CZDbkNOAegfRwCI/sYCgPSEZwDQWfEsAKK/sQAgPeEZAHRWPAuA6G8sAEhPMuQ25BkAgYPrAIjcWACQnmTIbcgzAAIH1wEQubEAID3hGQDUKJ4FQOTGAoD0JENuQ54BEDg4AkDkxgKA9CRDbkOeARA4uAaAyI0FAOlJhtyGnAIIHBwBIHILVjsB0jwDgMEAxsE9/xmqbjoNMkDBGQCfL3kJIaFhAtMhrbLbrEqaxwH4CIAkJhvhbAByAHwDYA20mydpgEHtBEjTsgC8DGCA2okQkdfWArgRwDa1EyFtYgFADRkD4FMAUWonQkSyVQG4GMAKtRMh7WEBQPVpB2AjeOwpkR6UAegN4JDaiZC2cBEg1ecJsPMn0otYuH+miWrhCADVlQAgF4BR7USISBgngGQARWonQtrBEQCqaxjY+RPpjRHun22iU1gAUF3cEE+kT63UToC0hQUA1RWhdgJE5BP82aZaWAAQEREFIBYAREREAYgFABERUQBiAUBERBSAWAAQEREFIBYAREREAYjXAZMw48ZfiEunXK52GkTaJUmosNplN/9q2UdYufxrgQlRIGMBQMK079ARF028RO00iLRLAoqrzLKb79q+FQALABKDUwBEREQBiAUAERFRAGIBQEREFIBYABAREQUgFgBEREQBiAUAERFRAGIBQEREFIBYABAREQUgFgBEREQBiAUAERFRAGIBQEREFIBYABAREQUgFgBEREQBiAUAERFRAGIBQEREFIBYABAREQWgYLUTIP1Y/dsvePjBuWqnQaRZkgRY7A7Z7TesWy0wGwp0LABImE0bN2DTxg1qp0FERB7gFAAREVEAYgFAREQUgFgAEBERBSAWAERERAGIBQAREVEAYgFAdUlqJ0BEPsGfbaqFBQDVVa52AkTkE2VqJ0DawgKA6jqsdgJE5BOH1E6AtMWgdgKkOeEAigCY1E6EiISpAJAAwKJ2IqQdHAGguiwAXlA7CSIS6nmw86c6OAJA9TEBWAugm9qJEJFi2wEMAlCpdiKkLRwBoPpUAjgf7l8cROS/tsH9s8zOn85gVDsB0qwyAG8DcALIgnttABH5h1IATwG4FkCxyrmQRnEKgDwRCmAggAwAieC/GyKtygdwBMAaAHZ1UyEiIiIiIiIiIiIiIiIiIiIiIiIiIiIiIiIiIiIiIiIiIiIiIiIiIiIiIiIiIiIiIiIiIiIiIiIiIiIiIiIiIiLyP/8HEffwh35jfkQAAAAASUVORK5CYII=;" vertex="1" parent="1">
          <mxGeometry x="200.5" y="-337" width="224" height="224" as="geometry" />
        </mxCell>
        <mxCell id="DY7HlPOlNImtq-ZD-zq9-3" value="&lt;font color=&quot;#4a909b&quot;&gt;&lt;b style=&quot;&quot;&gt;&lt;font style=&quot;font-size: 40px;&quot;&gt;监控场景&lt;/font&gt;&lt;/b&gt;&lt;br&gt;&lt;/font&gt;" style="text;html=1;strokeColor=none;fillColor=none;align=center;verticalAlign=middle;whiteSpace=wrap;rounded=0;" vertex="1" parent="1">
          <mxGeometry x="227" y="-90" width="171" height="30" as="geometry" />
        </mxCell>
        <mxCell id="DY7HlPOlNImtq-ZD-zq9-4" value="&lt;font color=&quot;#4a909b&quot;&gt;&lt;b style=&quot;&quot;&gt;&lt;font style=&quot;font-size: 40px;&quot;&gt;服务治理&lt;/font&gt;&lt;/b&gt;&lt;br&gt;&lt;/font&gt;" style="text;html=1;strokeColor=none;fillColor=none;align=center;verticalAlign=middle;whiteSpace=wrap;rounded=0;" vertex="1" parent="1">
          <mxGeometry x="612.5" y="-90" width="171" height="30" as="geometry" />
        </mxCell>
      </root>
    </mxGraphModel>
  </diagram>
</mxfile>
